<svg width="513" height="986" viewBox="0 0 513 986" fill="none" xmlns="http://www.w3.org/2000/svg">
<g clip-path="url(#clip0_1042_11134)">
<path d="M545.749 0.654663L641.354 232.875H584.54L523.006 79.8167L459.54 232.875H400.838L500.649 0.654663H545.749Z" fill="#B6BC50"/>
<path d="M496.401 1048.71L400.838 816.447H457.609L519.144 969.506L582.566 816.447H641.354L541.543 1048.67L496.401 1048.71Z" fill="#B6BC50"/>
<path d="M135.348 877.696L230.996 645.519L271.161 685.92L207.095 838.029L359.515 774.924L401.096 816.447L167.273 909.681L135.348 877.696Z" fill="#B6BC50"/>
<path d="M169.719 136.274L400.537 232.486L360.373 272.887L209.24 208.444L272.019 361.761L230.438 403.587L137.707 168.388L169.719 136.274Z" fill="#B6BC50"/>
<path d="M0.390625 499.712L231.252 403.586V460.692L79.0895 522.588L231.252 586.384V645.518L0.390625 545.12V499.712Z" fill="#B6BC50"/>
</g>
<defs>
<clipPath id="clip0_1042_11134">
<rect width="512" height="984.736" fill="white" transform="translate(0.390625 0.726318)"/>
</clipPath>
</defs>
</svg>
