<svg width="93" height="119" viewBox="0 0 93 119" fill="none" xmlns="http://www.w3.org/2000/svg">
<path d="M80.3703 95.9811L68.7984 95.7353L62.6428 96.8438L57.2378 97.4896L53.9029 95.9811L49.7161 94.0132L40.4844 105.21L44.7933 110.871L55.3799 110.009L69.6599 106.932L80.3703 95.9811Z" fill="white"/>
<path d="M37.0371 46.7628L40.3608 40.2422L45.409 38.1489L48.9786 39.1337L51.3171 42.7017L51.0712 45.0407L48.7327 50.2215L46.9519 54.4128L40.3608 50.2215L37.0371 46.7628Z" fill="white"/>
<path d="M79.7683 95.7023C81.181 94.2757 88.6304 120.063 57.1727 117.738C53.3154 117.454 49.2829 116.292 45.3806 114.387C35.0544 109.335 32.2643 103.792 27.5745 93.7199C25.821 89.9575 24.0515 84.653 23.0293 78.9709C23.4134 77.8841 24.067 76.9124 24.929 76.1467C27.9827 73.5603 32.3928 75.1266 35.4337 78.5034C36.8619 80.0797 37.9021 81.9677 38.4713 84.0168C43.0068 100.856 44.7394 88.4507 57.2434 97.4903C58.9539 98.7505 60.5717 100.132 62.0843 101.624L79.7683 95.7023Z" fill="white"/>
<path d="M60.8781 118.738C59.6694 118.738 58.4137 118.69 57.1108 118.593C53.1989 118.304 49.0137 117.115 45.0053 115.155C39.9684 112.693 36.4775 110.015 33.6907 106.466C31.1191 103.195 29.2934 99.4376 26.7974 94.0816C24.8093 89.8116 23.1281 84.3593 22.1863 79.1238L22.1445 78.8941L22.2265 78.674C22.6583 77.4484 23.3963 76.3535 24.3705 75.4932C26.005 74.1068 28.1442 73.6715 30.3943 74.261C32.392 74.7863 34.4123 76.0892 36.0629 77.9318C37.5847 79.6052 38.6918 81.6126 39.295 83.7922C41.4181 91.6768 42.8035 92.5169 44.2692 92.7563C44.8802 92.8306 45.496 92.8569 46.1111 92.835C49.3368 92.8157 54.213 92.7884 62.6813 101.002L61.4888 102.231C53.5219 94.509 49.2467 94.5331 46.1207 94.5555C45.4098 94.5801 44.6981 94.5457 43.9928 94.4527C41.14 93.9885 39.5971 91.5065 37.6412 84.2452C37.1089 82.3252 36.1334 80.5568 34.7932 79.082C32.2908 76.3012 28.3081 74.404 25.4714 76.8041C24.7807 77.4206 24.2449 78.1911 23.9076 79.0531C24.8318 84.0766 26.4438 89.2767 28.3435 93.3507C33.1281 103.632 35.8668 108.773 45.7511 113.61C49.5714 115.483 53.538 116.612 57.2345 116.885C68.5492 117.721 76.0982 114.749 79.0651 108.289C81.7395 102.469 79.8205 96.003 79.1696 95.3508C79.2764 95.4363 79.4104 95.4808 79.5473 95.4761C79.728 95.4759 79.9013 95.4043 80.0294 95.2769L78.8176 94.0736C78.984 93.9045 79.2034 93.7976 79.4392 93.7707C79.6749 93.7438 79.9128 93.7985 80.113 93.9258C81.0484 94.4929 81.6913 96.864 81.9581 98.7243C82.196 100.397 82.4322 103.724 81.3152 107.211C80.1243 110.942 77.7633 113.833 74.2998 115.799C70.8363 117.766 66.3506 118.738 60.8781 118.738Z" fill="#000001"/>
<path d="M47.211 56.0511H46.9474L37.391 49.7538C37.0236 49.6968 36.685 49.5214 36.4267 49.2541C36.2742 49.0887 36.1575 48.8936 36.0839 48.6811C36.0104 48.4685 35.9815 48.243 35.9992 48.0188C36.3415 42.2612 40.652 38.1101 44.6202 37.4161C47.5533 36.9084 50.0316 38.3141 51.2547 41.1784C52.6417 44.4315 51.5762 46.3577 50.5395 48.2212C49.6588 49.8084 48.7475 51.4502 48.9034 54.292C48.9198 54.5167 48.8898 54.7423 48.8151 54.9549C48.7404 55.1674 48.6228 55.3623 48.4694 55.5274C48.306 55.6951 48.1102 55.828 47.8939 55.918C47.6776 56.008 47.4453 56.0533 47.211 56.0511ZM37.9471 48.0637L47.1853 54.1507C47.0664 50.957 48.1609 48.9859 49.0448 47.3938C50.03 45.6267 50.7404 44.3416 49.6877 41.8547C48.7716 39.7101 47.0792 38.7334 44.924 39.1077C41.6951 39.6683 38.0355 43.2476 37.7221 48.0637H37.9471Z" fill="#000001"/>
<path d="M32.6846 80.8392L52.2522 95.0002C55.69 97.4886 55.5984 97.532 59.5537 97.0308L88.8144 93.4564C89.9234 93.3134 90.9954 92.6532 91.529 91.6652L91.5418 91.6411C91.9439 90.9016 92.0643 90.0416 91.8808 89.2203C91.6973 88.3989 91.2223 87.6718 90.5438 87.1735L72.7039 74.0663L53.9173 60.1768L38.4496 48.9026C37.7913 48.4182 36.9831 48.1815 36.1674 48.2343L4.08284 50.2649C3.37845 50.3095 2.70425 50.567 2.14955 51.0032C1.59486 51.4394 1.18585 52.0338 0.976715 52.7076C0.767581 53.3814 0.768194 54.1028 0.978471 54.7763C1.18875 55.4497 1.59877 56.0434 2.1542 56.4787L32.6846 80.8392Z" fill="#E1E55E"/>
<path d="M56.8308 98.0898C55.1995 98.0898 54.3927 97.5533 52.0848 95.8793L51.7746 95.6544L32.1844 81.4677L1.64761 57.1072C0.964828 56.5702 0.461412 55.8385 0.204073 55.0091C-0.0532657 54.1797 -0.0523769 53.2917 0.206622 52.4628C0.46562 51.6339 0.970501 50.9032 1.65435 50.3676C2.33821 49.832 3.16875 49.5167 4.03591 49.4636L36.1204 47.4346C37.1243 47.372 38.1184 47.663 38.9298 48.2571L54.3911 59.5346L73.176 73.4257L91.016 86.5313C91.8482 87.1465 92.4307 88.041 92.6565 89.0507C92.8824 90.0605 92.7364 91.1177 92.2455 92.0286L92.231 92.0543C91.8877 92.6543 91.409 93.1659 90.8332 93.5485C90.2573 93.9311 89.6001 94.1742 88.9137 94.2584L59.645 97.828C58.4187 97.9838 57.5444 98.0898 56.8308 98.0898ZM33.1712 80.2002L53.0282 94.5765C54.5116 95.6528 55.2574 96.1926 55.9887 96.3821C56.7199 96.5717 57.5669 96.4721 59.4473 96.2343L88.7096 92.66C89.1426 92.6063 89.5576 92.4542 89.9225 92.2152C90.2875 91.9763 90.5929 91.6569 90.8151 91.2816L90.8295 91.2575C91.1366 90.6882 91.2279 90.0273 91.0868 89.3961C90.9456 88.7649 90.5816 88.2058 90.0613 87.8213L72.2214 74.7141L53.4396 60.8197L37.9768 49.5487C37.4695 49.1758 36.847 48.9932 36.2185 49.0331L4.13395 51.0669C3.59191 51.101 3.07307 51.2991 2.6462 51.6347C2.21933 51.9703 1.9046 52.4277 1.74371 52.9462C1.58283 53.4647 1.58339 54.0199 1.74534 54.538C1.90728 55.0562 2.22295 55.5129 2.6505 55.8477L33.1712 80.2002Z" fill="#000001"/>
<path d="M69.5481 31.5675L28.6642 36.1717C27.5438 36.2971 26.4195 35.9729 25.5383 35.2701C24.657 34.5673 24.0911 33.5435 23.9647 32.4238L21.5346 10.8698C21.472 10.3153 21.5193 9.754 21.6738 9.21784C21.8283 8.68167 22.087 8.18119 22.435 7.74497C22.7831 7.30876 23.2137 6.94536 23.7023 6.67554C24.1909 6.40573 24.7279 6.23477 25.2826 6.17245L66.1666 1.56831C66.7214 1.50573 67.283 1.55298 67.8195 1.70738C68.356 1.86178 68.8569 2.12031 69.2934 2.46819C69.7299 2.81607 70.0937 3.2465 70.3638 3.73489C70.6339 4.22328 70.8051 4.76006 70.8676 5.3146L73.2961 26.8686C73.3587 27.4231 73.3115 27.9845 73.157 28.5208C73.0025 29.0571 72.7439 29.5577 72.3958 29.994C72.0478 30.4304 71.6172 30.7939 71.1286 31.0639C70.6399 31.3339 70.1029 31.505 69.5481 31.5675Z" fill="#E73A50"/>
<path d="M28.1844 37.0012C26.9417 37 25.7429 36.5419 24.8164 35.7142C23.8898 34.8864 23.3004 33.7469 23.1603 32.5127L20.735 10.9587C20.6606 10.2994 20.7168 9.63189 20.9005 8.99433C21.0842 8.35676 21.3918 7.76162 21.8056 7.24291C22.2195 6.72419 22.7316 6.29207 23.3126 5.97122C23.8936 5.65037 24.5322 5.44709 25.1918 5.37298L66.0725 0.768843C67.4042 0.620721 68.7403 1.0065 69.7879 1.84158C70.8355 2.67666 71.509 3.89289 71.6608 5.22358L74.0941 26.7776C74.2427 28.1089 73.857 29.4449 73.0215 30.4923C72.1859 31.5398 70.9689 32.2132 69.6373 32.3649L28.7533 36.969C28.5644 36.99 28.3745 37.0008 28.1844 37.0012ZM66.6431 2.34318C66.5136 2.34356 66.3843 2.35107 66.2557 2.36567L25.3718 6.96982C24.9218 7.02034 24.4862 7.15902 24.0899 7.37791C23.6936 7.5968 23.3444 7.89162 23.0621 8.24551C22.7798 8.5994 22.5701 9.00542 22.445 9.44037C22.3198 9.87531 22.2816 10.3307 22.3326 10.7804L24.7675 32.3328C24.8712 33.2405 25.3307 34.0701 26.0453 34.6398C26.7599 35.2096 27.6713 35.4729 28.5798 35.3722L69.4637 30.7681C70.3716 30.6644 71.2013 30.205 71.7708 29.4906C72.3403 28.7762 72.603 27.8652 72.5013 26.9575L70.068 5.40351C69.9719 4.56238 69.5698 3.7859 68.9384 3.22167C68.3069 2.65744 67.4901 2.3448 66.6431 2.34318Z" fill="#000001"/>
<path d="M22.1795 16.5979L21.5366 10.8693C21.4102 9.75002 21.7336 8.62639 22.4359 7.7455C23.1381 6.86461 24.1617 6.29859 25.2814 6.17195L46.4772 3.78955C45.0419 5.62896 43.0538 7.29487 41.2023 8.01617C39.0149 8.86599 36.6411 9.39934 34.7012 10.7857C32.7613 12.1721 31.6684 14.4565 29.6385 15.7786C28.2451 16.6815 25.2364 16.7762 22.1795 16.5979ZM69.5469 31.567L56.2682 33.0626C54.7575 30.8666 58.5038 16.5915 72.3 18.01L73.2981 26.8681C73.3607 27.4229 73.3133 27.9845 73.1586 28.521C73.004 29.0574 72.7451 29.5582 72.3967 29.9945C72.0483 30.4309 71.6173 30.7944 71.1283 31.0642C70.6394 31.334 70.102 31.5049 69.5469 31.567Z" fill="#1E438E"/>
<path d="M55.8748 33.9134L55.6016 33.5166C54.5634 32.0065 55.3653 27.9036 57.3518 24.5557C59.2098 21.4263 63.6328 16.3113 72.3792 17.2109L73.022 17.2768L74.0924 26.7774C74.2411 28.1088 73.8553 29.4447 73.0198 30.4922C72.1843 31.5396 70.9673 32.2131 69.6357 32.3647L55.8748 33.9134ZM70.42 18.7146C63.7437 18.7146 60.2657 22.7982 58.734 25.375C56.9934 28.3084 56.6254 31.0908 56.7958 32.1945L69.4573 30.7679C70.3664 30.6658 71.1977 30.2071 71.7685 29.4925C72.3393 28.778 72.6029 27.8661 72.5013 26.9574L71.5772 18.7547C71.1786 18.729 70.7929 18.7146 70.42 18.7146ZM24.5007 17.4744C23.7742 17.4744 22.9851 17.4492 22.1333 17.3989L21.4566 17.3603L20.735 10.9585C20.6606 10.2992 20.7168 9.63175 20.9005 8.99419C21.0842 8.35662 21.3918 7.76149 21.8056 7.24277C22.2195 6.72406 22.7316 6.29193 23.3126 5.97108C23.8936 5.65023 24.5322 5.44695 25.1918 5.37285L48.2856 2.77197L47.1076 4.27884C45.5004 6.34155 43.3981 8.01709 41.492 8.75928C40.8716 9.00025 40.2336 9.21713 39.6164 9.42758C38.0092 9.97859 36.4727 10.4991 35.1661 11.4324C34.3078 12.0477 33.6232 12.8574 32.8999 13.7152C32.0786 14.6791 31.23 15.6928 30.0745 16.4462C29.0217 17.1338 27.1863 17.4744 24.5007 17.4744ZM22.9015 15.8374C26.8906 16.0125 28.5267 15.545 29.2001 15.1081C30.1564 14.4847 30.8941 13.6108 31.6752 12.6871C32.4306 11.7907 33.2117 10.8654 34.2355 10.1344C35.7334 9.06291 37.4499 8.47815 39.1021 7.91428C39.7016 7.71026 40.3236 7.49821 40.9118 7.27169C42.0529 6.8267 43.3226 5.94475 44.4718 4.82825L25.3718 6.96968C24.9218 7.02021 24.4862 7.15888 24.0899 7.37777C23.6936 7.59666 23.3444 7.89148 23.0621 8.24537C22.7798 8.59926 22.5701 9.00528 22.445 9.44023C22.3198 9.87517 22.2816 10.3305 22.3326 10.7802L22.9015 15.8374Z" fill="#000001"/>
<path d="M31.877 23.9837L28.9149 24.3162C28.5008 24.3622 28.0854 24.2421 27.76 23.9821C27.4345 23.7221 27.2256 23.3437 27.1791 22.9298L27.0666 21.929C27.0434 21.7238 27.0608 21.516 27.118 21.3176C27.1751 21.1192 27.2708 20.9339 27.3996 20.7725C27.5285 20.611 27.6879 20.4766 27.8687 20.3768C28.0496 20.277 28.2483 20.2138 28.4536 20.1908L31.4125 19.855C31.827 19.8085 32.243 19.9284 32.5691 20.1884C32.8952 20.4484 33.1047 20.8271 33.1515 21.2414L33.264 22.2422C33.311 22.657 33.1913 23.0734 32.9312 23.4C32.6711 23.7265 32.2919 23.9365 31.877 23.9837Z" fill="white"/>
<path d="M28.7349 25.1306C28.151 25.1296 27.5878 24.9139 27.1528 24.5246C26.7177 24.1353 26.441 23.5997 26.3755 23.0197L26.263 22.0189C26.1925 21.3938 26.3728 20.7663 26.7645 20.2739C27.1562 19.7815 27.7272 19.4645 28.3524 19.3923L31.3225 19.0518C31.9477 18.9821 32.5751 19.1627 33.0675 19.554C33.5599 19.9454 33.8773 20.5156 33.9503 21.1402L34.0628 22.141C34.1329 22.766 33.9524 23.3933 33.5608 23.8856C33.1692 24.3779 32.5984 24.695 31.9734 24.7676L29.0113 25.1017C28.9198 25.1164 28.8275 25.1261 28.7349 25.1306ZM31.5877 20.6582H31.5025L28.5404 20.9908C28.3376 21.0142 28.1522 21.1168 28.0249 21.2764C27.8975 21.4359 27.8384 21.6393 27.8606 21.8422L27.9747 22.843C27.9859 22.9434 28.0168 23.0405 28.0656 23.1289C28.1144 23.2174 28.1802 23.2953 28.2591 23.3582C28.3381 23.4212 28.4287 23.468 28.5258 23.4959C28.6229 23.5238 28.7245 23.5323 28.8249 23.521L31.787 23.1884C31.9898 23.165 32.1752 23.0623 32.3025 22.9028C32.4299 22.7433 32.489 22.5399 32.4668 22.337L32.3527 21.3362C32.3303 21.1492 32.24 20.9769 32.099 20.8519C31.958 20.727 31.7761 20.6581 31.5877 20.6582Z" fill="#000001"/>
<path d="M56.5178 93.616L1.20117 52.0904L2.16549 50.8052L56.9726 91.9485L91.6721 88.0319L91.8521 89.6287L56.5178 93.616Z" fill="#000001"/>
<path d="M55.9821 92.5075L54.7324 96.0684L56.249 96.6001L57.4987 93.0392L55.9821 92.5075Z" fill="#000001"/>
<path d="M38.4375 70.7313C36.4414 70.7313 28.5275 70.0566 23.5918 68.871L23.992 67.2067C28.9165 68.3891 37.1839 69.0782 38.5982 69.0156C40.8917 68.9208 43.8409 68.6108 46.3128 67.0525C46.6696 66.8276 47.9457 65.7882 49.1109 64.6026C51.1071 62.572 51.0749 61.8829 51.0749 61.8716C51.0836 61.9197 51.1093 61.963 51.1472 61.9937L52.0103 60.5142C52.2469 60.6471 52.4438 60.8408 52.5805 61.0752C52.7173 61.3096 52.789 61.5762 52.7882 61.8475C52.8252 64.1721 47.6805 68.2108 47.2257 68.4967C44.4099 70.2638 41.173 70.6172 38.6689 70.7217C38.6047 70.7297 38.5275 70.7313 38.4375 70.7313Z" fill="#000001"/>
<path d="M58.2747 84.609L74.2021 82.1993C74.7817 82.1404 75.3622 82.3029 75.827 82.654L75.9186 82.7198C77.4374 83.8122 77.2992 85.8798 75.6952 86.0934L59.6762 88.4356C59.0715 88.4927 58.4684 88.3118 57.9951 87.9312C56.5438 86.8163 56.7109 84.8227 58.2747 84.609Z" fill="white"/>
<path d="M59.4396 89.255C58.7393 89.243 58.0621 89.0027 57.511 88.5706C56.4727 87.7674 55.989 86.5497 56.2815 85.4476C56.3924 85.0168 56.6321 84.6301 56.9687 84.339C57.3053 84.0479 57.7226 83.8664 58.1651 83.8187L74.086 81.409C74.8733 81.3187 75.6653 81.5318 76.3008 82.005L76.3924 82.0708C77.466 82.8435 77.9996 84.1127 77.7151 85.2308C77.6083 85.6713 77.367 86.0676 77.0245 86.3648C76.682 86.6619 76.2555 86.845 75.8041 86.8886L59.7964 89.2309C59.6782 89.2472 59.559 89.2553 59.4396 89.255ZM74.4509 82.9897C74.4043 82.9872 74.3576 82.9872 74.311 82.9897L58.3837 85.3994C58.255 85.4043 58.1314 85.4508 58.0314 85.5319C57.9314 85.613 57.8604 85.7244 57.8292 85.8493C57.7312 86.2236 57.8935 86.8324 58.4833 87.2854C58.7884 87.5357 59.1777 87.6598 59.5714 87.6324L75.5775 85.2902C75.899 85.2484 76.0854 85.0974 76.1529 84.8308C76.2509 84.4404 76.0725 83.8155 75.4489 83.3673L75.3573 83.3014C75.0939 83.1078 74.7777 82.999 74.4509 82.9897Z" fill="#000001"/>
<path d="M61.9488 65.8754C63.143 68.4827 66.1693 69.5863 68.8855 69.0064C71.9633 68.3493 73.6332 65.13 74.0286 62.2399C75.8029 49.2083 56.3317 53.6036 61.9488 65.8754Z" fill="white"/>
<path d="M67.4497 70.0134C64.7336 70.0134 62.2376 68.5676 61.1672 66.2318C59.327 62.2156 59.8107 58.4292 62.4931 55.8572C64.9634 53.4893 68.7612 52.7937 71.5401 54.2042C74.1823 55.5472 75.3973 58.5192 74.8734 62.3554C74.4684 65.3242 72.7037 69.0656 69.0634 69.8432C68.533 69.9565 67.9921 70.0136 67.4497 70.0134ZM68.3916 55.197C66.6369 55.2133 64.9533 55.8915 63.6776 57.0958C61.5545 59.1312 61.2058 62.2028 62.7246 65.5201C63.7998 67.8688 66.5465 68.6303 68.705 68.1708C71.4774 67.578 72.8467 64.545 73.1762 62.1257C73.6005 59.0107 72.7439 56.7392 70.7654 55.7303C70.0269 55.369 69.2137 55.1863 68.3916 55.197Z" fill="#000001"/>
<path d="M23.6195 78.6787C24.3909 78.8988 25.2395 78.7783 26.0303 78.7558C26.821 78.7333 27.5491 78.8104 28.0779 79.4209C29.2029 80.7205 29.4247 83.8612 29.7397 85.5158C30.2958 88.4284 28.6725 90.1393 26.2376 90.5425C24.817 86.7932 23.7437 82.9214 23.0312 78.9759C23.0489 78.9261 23.0682 78.8747 23.0891 78.8249L23.6195 78.6787Z" fill="white"/>
<path d="M25.6868 91.5023L25.4377 90.8501C23.9954 87.0492 22.907 83.1235 22.1863 79.1228L22.1445 78.8931L22.2265 78.673C22.2474 78.6168 22.2683 78.5622 22.2908 78.5124L22.4515 78.1092L23.6312 77.7959L23.8594 77.8602C24.3223 77.9935 24.8752 77.963 25.4666 77.9308C25.6514 77.9212 25.8347 77.9116 26.0147 77.9067C26.926 77.8794 27.961 77.9742 28.7341 78.8706C29.7836 80.0803 30.1243 82.3518 30.3975 84.172C30.4634 84.6105 30.5261 85.025 30.5888 85.3592C30.8845 86.9046 30.6466 88.2845 29.9041 89.3512C29.1616 90.4179 27.9353 91.1344 26.3859 91.3914L25.6868 91.5023ZM24.0233 79.6273C24.6761 82.9995 25.5962 86.3144 26.7749 89.5408C27.4613 89.3519 28.0649 88.9391 28.4898 88.3681C28.9719 87.6805 29.1069 86.7745 28.8964 85.6772C28.8273 85.3094 28.7614 84.874 28.6939 84.4226C28.4656 82.9013 28.1539 80.8177 27.4306 79.9823C27.1751 79.6883 26.8118 79.5919 26.0532 79.6128C25.8925 79.6128 25.7189 79.6273 25.5502 79.6353C25.0419 79.6769 24.531 79.6737 24.0233 79.6257V79.6273Z" fill="#000001"/>
<path d="M55.0896 36.5015H53.4824V39.9714H55.0896V36.5015Z" fill="#000001"/>
<path d="M55.7325 44.9268H53.4824V42.6777H55.0896V43.3203H55.7325V44.9268Z" fill="#000001"/>
<path d="M62.7567 43.3203H59.2852V44.9268H62.7567V43.3203Z" fill="#000001"/>
<path d="M47.6413 10.9308C47.643 10.93 47.6445 10.9288 47.6455 10.9272C47.6465 10.9256 47.6471 10.9238 47.6471 10.9219C47.6471 10.92 47.6465 10.9182 47.6455 10.9166C47.6445 10.9151 47.643 10.9138 47.6413 10.9131L46.002 11.085L46.1739 12.7236C46.1739 12.7348 46.1916 12.7348 46.1916 12.7236C46.2175 12.3119 46.3706 11.9184 46.6296 11.5973C46.8887 11.2762 47.241 11.0433 47.6381 10.9308" fill="white"/>
<path d="M45.8129 9.3372C45.8122 9.3362 45.8112 9.33539 45.8101 9.33483C45.809 9.33427 45.8077 9.33398 45.8065 9.33398C45.8053 9.33398 45.804 9.33427 45.8029 9.33483C45.8018 9.33539 45.8008 9.3362 45.8001 9.3372C45.727 9.3779 45.6626 9.43247 45.6104 9.49784C45.3404 9.81914 45.4931 10.2577 45.289 10.5212C45.0849 10.7846 44.6075 10.7204 44.3536 11.0513C44.3031 11.1161 44.265 11.1896 44.2411 11.2682C44.2404 11.2696 44.2401 11.2712 44.2403 11.2727C44.2405 11.2743 44.2411 11.2758 44.2422 11.277C44.2432 11.2782 44.2446 11.2791 44.2461 11.2795C44.2476 11.2799 44.2492 11.2799 44.2507 11.2794L45.9994 11.0963C45.9994 11.0963 45.8386 9.5123 45.8145 9.34844" fill="white"/>
<path d="M46.0935 24.4072L47.4821 24.261C47.4465 24.3543 47.4191 24.4505 47.4002 24.5485C47.3503 24.8621 47.4069 25.1833 47.5609 25.461C47.6472 25.6097 47.7665 25.7367 47.9096 25.8321C48.0626 25.9326 48.2342 26.0014 48.4143 26.0345C48.6227 26.072 48.8356 26.0785 49.0459 26.0538C49.2615 26.0399 49.472 25.9826 49.6647 25.8851C49.9861 25.71 50.4972 25.3244 50.4217 24.5999C50.4159 24.4766 50.3797 24.3567 50.3164 24.2507C50.253 24.1448 50.1644 24.0561 50.0585 23.9927C50.0681 23.9927 50.2642 23.9252 50.2642 23.9252V23.8867L50.2433 23.6955L50.2015 23.3003L45.9199 23.7501L46.0935 24.4072ZM49.8206 24.518C49.837 24.6215 49.8279 24.7274 49.794 24.8265C49.7601 24.9256 49.7025 25.0149 49.6261 25.0867C49.4422 25.2576 49.2036 25.3578 48.9527 25.3694C48.7172 25.4075 48.4757 25.3734 48.26 25.2714C48.1695 25.2205 48.0937 25.147 48.0402 25.058C47.9866 24.969 47.9572 24.8676 47.9546 24.7638C47.943 24.6564 47.9495 24.5478 47.9739 24.4425C47.9932 24.357 48.0235 24.2744 48.0639 24.1967L48.5782 24.1421L49.5426 24.0409C49.6205 24.0946 49.6857 24.1648 49.7338 24.2463C49.7818 24.3279 49.8114 24.419 49.8206 24.5132V24.518Z" fill="white"/>
<path d="M48.7419 23.1303C48.5135 23.1595 48.2817 23.1447 48.0588 23.0869C47.8735 23.0394 47.7001 22.9541 47.5493 22.8363C47.4109 22.7274 47.297 22.5906 47.2151 22.4347C47.1363 22.2846 47.0862 22.1212 47.0672 21.9528C47.0405 21.782 47.0509 21.6075 47.0978 21.4412C47.1446 21.2749 47.2269 21.1206 47.3388 20.9889C47.5638 20.7393 47.9212 20.5889 48.4108 20.5375L48.5362 20.5278H48.6615L48.8624 22.4251C49.0671 22.3965 49.2521 22.2879 49.3767 22.1231C49.4954 21.9271 49.5394 21.695 49.5005 21.4692C49.4854 21.3192 49.4547 21.1711 49.4089 21.0274C49.376 20.921 49.3335 20.8178 49.2819 20.719L49.8203 20.5744C49.8486 20.6207 49.8733 20.669 49.8943 20.719C49.9243 20.7899 49.9506 20.8623 49.973 20.9359C49.9987 21.0162 50.0212 21.0965 50.0421 21.1993C50.064 21.2952 50.0801 21.3923 50.0903 21.4901C50.1189 21.7163 50.1041 21.9458 50.0469 22.1664C49.9972 22.3506 49.9059 22.521 49.7801 22.6644C49.6554 22.8023 49.5025 22.9119 49.3317 22.9857C49.1442 23.0664 48.9452 23.1174 48.7419 23.1367M48.234 21.2202C48.1445 21.2292 48.0567 21.2514 47.9737 21.2861C47.8979 21.318 47.8291 21.3644 47.7711 21.4226C47.7152 21.4784 47.6724 21.5459 47.6458 21.6202C47.6178 21.7051 47.609 21.7951 47.6201 21.8837C47.627 21.9727 47.6541 22.059 47.6992 22.136C47.7443 22.2131 47.8062 22.279 47.8804 22.3287C47.9498 22.3759 48.0271 22.4101 48.1087 22.4299C48.1924 22.4504 48.278 22.4623 48.3642 22.4652L48.234 21.2202Z" fill="white"/>
<path d="M49.2948 19.2401C49.2891 19.1069 49.2534 18.9768 49.1904 18.8594C49.1657 18.822 49.1306 18.7927 49.0895 18.775C49.0484 18.7573 49.003 18.752 48.9589 18.7598C48.911 18.7658 48.8654 18.7836 48.8261 18.8117C48.7868 18.8397 48.7551 18.8771 48.7339 18.9204C48.6621 19.0632 48.6081 19.2143 48.5732 19.3702C48.541 19.4971 48.5057 19.6128 48.4671 19.7204C48.4311 19.8202 48.3819 19.9148 48.3209 20.0016C48.2607 20.0825 48.1847 20.1503 48.0975 20.2008C47.9929 20.258 47.8772 20.292 47.7583 20.3004C47.6384 20.318 47.516 20.3066 47.4013 20.2672C47.2867 20.2278 47.1831 20.1615 47.0994 20.0739C46.9108 19.8589 46.8004 19.5866 46.786 19.3011C46.7589 19.017 46.7757 18.7304 46.8358 18.4513L47.3919 18.5156C47.3621 18.6108 47.3416 18.7087 47.3308 18.808C47.3147 18.9413 47.3147 19.0762 47.3308 19.2096C47.338 19.3238 47.374 19.4343 47.4353 19.5309C47.4586 19.5687 47.4925 19.5989 47.5328 19.6177C47.573 19.6365 47.6179 19.6432 47.6619 19.6369C47.7055 19.6331 47.7477 19.62 47.7857 19.5983C47.824 19.5741 47.856 19.5411 47.8789 19.502C47.9107 19.4482 47.9366 19.3911 47.956 19.3317C47.9847 19.2484 48.0088 19.1637 48.0284 19.0778C48.0631 18.9343 48.1072 18.7932 48.1601 18.6553C48.1982 18.5496 48.2524 18.4505 48.3209 18.3614C48.3823 18.2834 48.461 18.2207 48.5507 18.1782C48.6521 18.1314 48.7609 18.1026 48.8721 18.0931C48.9937 18.0736 49.1181 18.0855 49.2338 18.1277C49.3494 18.1699 49.4523 18.2409 49.5327 18.334C49.7178 18.582 49.8241 18.8797 49.8381 19.1887C49.8641 19.3946 49.8641 19.6029 49.8381 19.8088C49.822 19.9224 49.7995 20.0351 49.7706 20.1461L49.1984 20.0883C49.2332 19.9677 49.2595 19.8447 49.2771 19.7204C49.2978 19.5604 49.2978 19.3985 49.2771 19.2385" fill="white"/>
<path d="M45.9629 18.0982L45.7812 17.4444L46.6556 17.3528L46.5479 16.3199L47.1056 16.262L47.2149 17.2902L48.393 17.1665C48.5662 17.1625 48.7342 17.1065 48.8751 17.0058C48.9235 16.9541 48.9588 16.8915 48.9778 16.8232C48.9968 16.755 48.9991 16.6832 48.9844 16.6139C48.9746 16.504 48.9503 16.396 48.9121 16.2926C48.8843 16.2187 48.8526 16.1463 48.8173 16.0757L49.3364 15.915C49.3879 16.0099 49.433 16.1081 49.4714 16.209C49.5237 16.3496 49.5567 16.4966 49.5694 16.646C49.5936 16.8212 49.5843 16.9995 49.5421 17.1713C49.5062 17.3061 49.4346 17.4288 49.3348 17.5263C49.2306 17.6226 49.1066 17.695 48.9715 17.7384C48.807 17.7909 48.6373 17.8254 48.4653 17.8412L45.9629 18.0982Z" fill="white"/>
<path d="M46.2305 13.3115C47.2795 13.4747 48.3147 13.7164 49.3275 14.0344C49.4824 14.0828 49.633 14.144 49.7776 14.2176C49.8963 14.2765 50.0048 14.3541 50.099 14.4473C50.1859 14.5342 50.2547 14.6374 50.3015 14.7509C50.3518 14.8803 50.3842 15.016 50.3979 15.1541C50.4084 15.2578 50.4084 15.3622 50.3979 15.4658C50.3916 15.5467 50.3754 15.6266 50.3497 15.7036L49.8001 15.6377C49.8374 15.5068 49.85 15.37 49.837 15.2345C49.8293 15.0869 49.7695 14.9469 49.6683 14.8393C49.5498 14.7357 49.409 14.6609 49.2568 14.6208C48.8732 14.8746 48.4516 15.1242 47.992 15.3694C47.5146 15.6239 47.0231 15.8508 46.5198 16.0489L46.4442 15.3357C46.5953 15.2827 46.7657 15.22 46.9344 15.1461C47.1032 15.0722 47.2864 14.9967 47.4664 14.9148C47.6464 14.8329 47.8248 14.7541 48.0016 14.6561C48.1784 14.5581 48.3423 14.4778 48.4934 14.3911C48.1527 14.3075 47.7927 14.2304 47.4102 14.171C47.0276 14.1115 46.6596 14.0505 46.3044 14.0023L46.2305 13.3115Z" fill="white"/>
<path fill-rule="evenodd" clip-rule="evenodd" d="M66.9727 12.1142C67.2025 12.5207 67.1961 12.9175 66.9727 13.2387L67.0145 13.2596L67.7891 13.6677C67.8604 13.5387 67.9175 13.4024 67.9595 13.2612C68.0921 12.7963 68.061 12.3 67.8714 11.8553C67.6818 11.4105 67.3453 11.0443 66.918 10.8178L66.5034 11.6066L66.4809 11.6483C66.6888 11.7494 66.8605 11.9121 66.9727 12.1142ZM66.4407 6.44981C66.4533 6.57277 66.4462 6.69695 66.4198 6.81769L67.3584 7.02814C67.4085 6.80582 67.4215 6.57677 67.397 6.35021C67.3464 5.86608 67.1303 5.41421 66.7851 5.0709C66.4399 4.72759 65.9867 4.51387 65.5021 4.46582L65.4089 5.4297C65.6721 5.45486 65.9186 5.57013 66.1066 5.75601C66.2946 5.94189 66.4126 6.18698 66.4407 6.44981ZM65.5182 8.67156C65.8155 8.64177 66.1031 8.54917 66.3618 8.39989C66.6206 8.25062 66.8447 8.04807 67.0193 7.80567L66.2334 7.23216C66.1391 7.36564 66.0174 7.47741 65.8763 7.55999C65.7353 7.64256 65.5782 7.69402 65.4156 7.71091C65.2531 7.72779 65.0887 7.70972 64.9337 7.65791C64.7787 7.60609 64.6366 7.52173 64.5169 7.41048L63.874 8.12696C64.0936 8.32936 64.3538 8.48262 64.6373 8.57653C64.9208 8.67044 65.2211 8.70284 65.5182 8.67156ZM63.3742 7.44421L64.2549 7.0442C64.1877 6.89678 64.1524 6.73682 64.1514 6.57481C64.1504 6.4128 64.1837 6.25242 64.2492 6.10419C64.3146 5.95596 64.4106 5.82324 64.531 5.71475C64.6514 5.60625 64.7934 5.52444 64.9476 5.47468L64.6583 4.55257C64.3731 4.64293 64.1103 4.79276 63.8873 4.99215C63.6643 5.19154 63.4861 5.43596 63.3646 5.70926C63.2431 5.98256 63.1809 6.27852 63.1823 6.57759C63.1837 6.87666 63.2485 7.17204 63.3726 7.44421H63.3742ZM64.8801 13.2982C64.7489 13.097 64.6931 12.8558 64.7225 12.6174C64.7519 12.379 64.8646 12.1587 65.0408 11.9953L66.0614 13.8155C65.835 13.873 65.5959 13.8533 65.3819 13.7596C65.1679 13.6659 64.9913 13.5035 64.8801 13.2982ZM64.0974 13.7496C64.3812 14.2234 64.8384 14.5681 65.372 14.7108C65.9057 14.8535 66.474 14.7831 66.9566 14.5143C67.0473 14.4617 67.1348 14.4038 67.2186 14.3408L65.1678 10.715L64.991 10.8066C64.5721 11.0163 64.2355 11.3602 64.0347 11.7833C63.8675 12.1416 63.7997 12.5384 63.8386 12.9319C63.8679 13.2193 63.9559 13.4977 64.0974 13.7496ZM62.5898 9.65472L62.6831 10.5479L66.7155 10.1158C66.8907 10.1021 67.0582 10.038 67.1977 9.93103C67.315 9.83411 67.4015 9.70517 67.4468 9.55993L67.6622 8.83863L66.7959 8.57035L66.6078 9.22418L62.5898 9.65472Z" fill="white"/>
<path d="M48.4027 57.1022C48.5763 60.4758 50.4181 63.1667 53.5779 64.4245C56.4387 65.5635 60.1851 64.9611 61.5656 61.912C62.7534 59.287 62.1796 55.8637 60.6817 53.4748C59.9038 52.2346 58.8238 51.1101 57.4753 50.4997C53.6839 48.7823 48.0716 50.6362 48.4027 57.1022Z" fill="white"/>
<path d="M56.3469 65.7991C55.291 65.7995 54.2446 65.6006 53.2626 65.2127C49.8248 63.844 47.7419 60.9009 47.549 57.1386C47.3883 54.1168 48.4555 51.6766 50.5384 50.2516C52.5957 48.8492 55.4581 48.6452 57.8303 49.7135C59.5741 50.5039 60.7393 51.9449 61.4095 53.0132C62.8898 55.3747 63.7528 59.1499 62.3465 62.2568C61.2424 64.705 58.8123 65.7991 56.3469 65.7991ZM49.2591 57.0502C49.4198 60.162 51.0656 62.4962 53.8959 63.6223C56.3758 64.6087 59.632 64.1042 60.7859 61.5515C61.7615 59.3957 61.4208 56.2502 59.9582 53.9224C59.4118 53.0533 58.478 51.887 57.1231 51.2734C55.2829 50.4396 53.0778 50.5938 51.4979 51.6669C50.3874 52.4236 49.0968 53.9722 49.2479 57.0502H49.2591Z" fill="#000001"/>
<path d="M55.9053 61.8457C57.0038 61.96 58.0865 62.1937 59.1342 62.5429C59.1342 62.4578 59.1342 62.3823 59.1422 62.3309C59.1503 62.2795 59.1422 62.2361 59.1422 62.2152C59.2837 60.6618 59.5087 58.7211 59.2129 57.1307C58.9172 55.5403 58.1056 54.3017 56.1689 54.1523C53.5443 54.2536 52.4273 55.6946 52.0272 57.354C50.735 62.7229 52.8099 61.4987 55.9053 61.8457Z" fill="white"/>
<path d="M59.9392 63.7351L58.8496 63.3511C57.8633 63.023 56.8442 62.8033 55.8103 62.6957C55.2639 62.6347 54.7528 62.6266 54.2578 62.6186C53.0765 62.5977 51.9627 62.5784 51.2845 61.7029C50.6416 60.874 50.6175 59.5567 51.1961 57.1534C51.6043 55.4666 52.792 53.4264 56.1398 53.2979H56.188H56.2379C57.6843 53.4087 59.5342 54.138 60.0582 56.9735C60.3491 58.5398 60.1771 60.3872 60.0373 61.8732L60.0019 62.262C60.0019 62.2877 60.0019 62.3198 60.0019 62.3599L59.9392 63.7351ZM56.1559 55.0103C54.3076 55.0955 53.2629 55.9052 52.8627 57.555C52.3002 59.8876 52.5188 60.4997 52.6393 60.6555C52.8129 60.8804 53.5619 60.8932 54.2867 60.9061C54.7962 60.9061 55.3748 60.9238 56.0016 60.9944C56.7962 61.0822 57.584 61.2239 58.3594 61.4186C58.4863 60.0434 58.6053 58.5269 58.3738 57.2867C58.1006 55.8072 57.4352 55.1244 56.1559 55.0103Z" fill="#000001"/>
<path d="M67.107 65.7113C67.785 65.885 68.4456 66.1206 69.0806 66.4149C69.5579 66.6279 69.9984 66.9153 70.3856 67.2663C70.6639 67.502 70.8482 67.8299 70.9048 68.1901C70.9208 68.1499 70.9353 68.113 70.9498 68.0792L70.9851 67.9909C70.9948 67.9652 71.0028 67.9443 71.0108 67.9266C71.0153 67.9123 71.0206 67.8984 71.0269 67.8848C71.3484 67.1764 71.7325 66.3844 72.062 65.5683C72.3973 64.7814 72.6441 63.9598 72.798 63.1184C72.9266 62.3152 72.9025 61.5602 72.6245 60.9015C72.3464 60.2429 71.8209 59.687 70.9289 59.295C69.6753 58.9031 68.6643 58.9529 67.8511 59.279C67.0628 59.6177 66.3991 60.1924 65.9514 60.924C65.5034 61.6376 65.1658 62.4148 64.9501 63.2293C64.214 65.933 64.6897 65.0671 67.107 65.7113Z" fill="white"/>
<path d="M70.3704 71.7813L70.0489 68.2679C70.0038 68.1157 69.9129 67.9811 69.7885 67.8824C69.4669 67.5969 69.1032 67.3628 68.7101 67.1884C68.1226 66.9185 67.5114 66.7034 66.8843 66.5458C66.4383 66.4299 65.9852 66.3435 65.5279 66.2871C64.9203 66.202 64.345 66.1265 63.9978 65.598C63.6073 65.0052 63.7824 64.2678 64.128 63.0164C64.3615 62.1124 64.734 61.2502 65.2321 60.4605C65.8493 59.5159 66.6224 58.854 67.5288 58.4893C68.5976 58.0604 69.8271 58.0588 71.182 58.4813L71.2752 58.5166C72.3102 58.9777 73.0303 59.6701 73.4112 60.5761C73.7326 61.3392 73.8082 62.2179 73.641 63.2605C73.4775 64.1658 73.2133 65.0501 72.8535 65.8968C72.5738 66.5875 72.2588 67.2671 71.9792 67.8679L71.6979 68.5121L70.3704 71.7813ZM65.5134 64.5521L65.7625 64.5875C66.2893 64.653 66.8112 64.7534 67.3247 64.8879C68.054 65.0727 68.7647 65.3244 69.4478 65.6397C69.9126 65.8531 70.3493 66.1228 70.748 66.443C70.9264 66.0526 71.1032 65.6542 71.2672 65.2477C71.578 64.5201 71.8076 63.7605 71.9518 62.9826C72.0643 62.2742 72.0258 61.6862 71.8345 61.2332C71.6288 60.7512 71.2334 60.3737 70.6243 60.0926C69.676 59.805 68.8564 59.797 68.1685 60.0701C67.5438 60.3435 67.0197 60.8045 66.669 61.389C66.2673 62.0297 65.9675 62.7288 65.7802 63.4614C65.7207 63.6734 65.5745 64.21 65.5134 64.5489V64.5521Z" fill="#000001"/>
<path d="M80.0307 66.8494C83.2274 69.4743 81.0448 76.8095 78.4315 77.6448C76.9304 78.1268 73.1101 76.4143 72.0107 75.1098C67.6086 69.884 75.5418 63.1625 80.0307 66.8494Z" fill="white"/>
<path d="M77.8316 78.577C75.7117 78.577 72.4202 76.9239 71.3546 75.6612C68.8731 72.715 69.8326 69.2996 71.8866 67.2208C74.0466 65.036 77.8252 63.9308 80.5735 66.1879C82.1968 67.5212 82.8364 70.0434 82.2835 72.9158C81.8351 75.25 80.551 77.8685 78.6898 78.4597C78.4116 78.5432 78.122 78.5827 77.8316 78.577ZM77.0376 66.6377C75.6072 66.6377 74.1447 67.3686 73.1064 68.4241C71.6423 69.9052 70.7583 72.2941 72.6661 74.5592C73.64 75.7142 77.1389 77.1585 78.1707 76.8291C79.0177 76.5592 80.1572 74.9014 80.6008 72.5929C81.0348 70.3438 80.6169 68.4401 79.4854 67.51C78.7983 66.9391 77.9311 66.63 77.0376 66.6377Z" fill="#000001"/>
<path d="M72.9062 72.238C73.1352 71.7051 73.4501 71.2134 73.8384 70.7825C77.2649 66.7438 81.1415 68.9543 78.4141 74.222C78.194 74.6812 77.8886 75.0945 77.514 75.4397C76.397 76.5915 77.821 76.206 75.1177 74.3344C73.6182 73.3191 72.8982 73.1408 72.6378 73.0492C72.3774 72.9577 72.5735 72.9304 72.9062 72.238Z" fill="white"/>
<path d="M76.978 76.9455H76.9651C76.7998 76.9397 76.6388 76.8911 76.4979 76.8043C76.357 76.7176 76.2411 76.5957 76.1615 76.4507C76.0635 76.2901 75.7646 75.829 74.6235 75.0387C73.3988 74.2113 72.7688 73.9961 72.465 73.8932L72.3316 73.8466C72.1868 73.8014 72.0545 73.7231 71.9452 73.618C71.8358 73.5129 71.7524 73.3839 71.7016 73.241C71.6556 73.0821 71.6478 72.9146 71.6788 72.7522C71.7098 72.5897 71.7787 72.4369 71.88 72.306C71.972 72.1663 72.0541 72.0202 72.1259 71.8691C72.387 71.2702 72.7424 70.717 73.1786 70.2305C75.3322 67.6907 77.6064 67.432 78.905 68.3027C80.1153 69.106 80.9092 71.2522 79.167 74.6161C78.9113 75.1452 78.5605 75.6228 78.132 76.025C77.9974 76.1592 77.8768 76.3067 77.772 76.4652C77.6914 76.6061 77.5762 76.7242 77.4373 76.8083C77.2984 76.8923 77.1403 76.9396 76.978 76.9455ZM73.7106 72.547C74.3697 72.8546 75.001 73.2184 75.5974 73.6346C76.094 73.9659 76.5588 74.3423 76.986 74.7591C77.2621 74.4944 77.4857 74.1799 77.645 73.8322C78.7845 71.6345 78.6093 70.1646 77.952 69.7277C77.2946 69.2907 75.8819 69.6939 74.4836 71.3341C74.1614 71.6935 73.9003 72.1032 73.7106 72.547Z" fill="#000001"/>
<path fill-rule="evenodd" clip-rule="evenodd" d="M60.4955 100.903C65.2223 95.1298 76.2863 96.4054 79.6212 97.2488C80.8427 97.4383 81.6993 97.3098 80.8925 96.1772C80.5952 95.7596 80.7189 95.0527 80.2384 94.6447C79.3994 93.9362 68.6778 96.076 67.22 96.2768C63.1747 96.8311 59.1053 97.3323 58.3419 97.3034C58.0011 97.2921 58.0204 97.3259 58.0976 97.4142C58.1599 97.4648 58.2011 97.5368 58.213 97.6162C58.2249 97.6956 58.2067 97.7766 58.1619 97.8432C58.5508 98.354 58.9408 98.8643 59.3319 99.3741L60.5019 100.903" fill="#000001"/>
<path fill-rule="evenodd" clip-rule="evenodd" d="M38.6688 43.5039C37.7784 44.2847 37.7929 46.259 38.3956 47.1988C40.6328 50.6864 44.6878 52.0407 48.267 50.6559C48.267 52.3989 47.7849 54.15 46.9539 54.4134C46.1503 54.6673 45.3033 53.7435 44.1429 53.1106C41.176 51.4913 37.5534 48.5145 37.5743 47.8799C37.6338 46.5819 37.6948 44.3569 38.6688 43.5039Z" fill="#000001"/>
<path fill-rule="evenodd" clip-rule="evenodd" d="M39.3613 85.4351C40.4478 86.5483 49.6169 92.3268 49.1652 93.265C48.4211 94.812 40.2083 95.6265 39.3613 85.4351Z" fill="#000001"/>
<path d="M41.6448 57.4301C41.6641 57.4414 41.6882 57.4301 41.6705 57.4301L40.3976 56.5626L39.1617 55.7192L36.7943 55.9634C36.7766 55.9634 36.7943 55.9811 36.8184 55.9827C37.62 56.0158 38.4141 56.1519 39.181 56.3875C40.0371 56.6461 40.8631 56.9956 41.6448 57.4301Z" fill="#000001"/>
<path d="M41.7087 55.4528C41.7184 55.4528 41.7184 55.4528 41.7087 55.4384C41.5446 55.3667 41.376 55.3055 41.2041 55.2552C40.3346 54.9982 39.8283 55.1701 39.1436 54.9789C38.459 54.7877 37.9559 54.3186 37.1314 54.0905C36.9765 54.0468 36.8186 54.0146 36.6589 53.9941C36.646 53.9941 36.6428 53.9941 36.6509 54.0038L37.9752 54.9066L39.1613 55.7098L41.7152 55.4464" fill="#000001"/>
<path d="M19.3701 56.3213L20.8487 57.6724C20.6867 57.6398 20.5231 57.6157 20.3585 57.6001C20.1769 57.5808 19.9937 57.5808 19.8121 57.6001C19.5949 57.6099 19.3833 57.6716 19.1949 57.78C19.1328 57.8187 19.081 57.872 19.0443 57.9353C19.0076 57.9986 18.987 58.0699 18.9844 58.1431C18.9878 58.3287 19.0471 58.509 19.1547 58.6604C19.3138 58.8994 19.5004 59.1188 19.7108 59.3142C19.9636 59.5593 20.2434 59.7749 20.545 59.9568C21.1171 60.2957 22.21 60.85 23.2322 60.76C23.8751 60.699 23.7899 60.3584 23.7851 60.3488L24.1065 60.5753H24.1596L24.4312 60.5496L24.9937 60.4965L22.4672 58.2298C21.6636 57.5101 20.8857 56.8113 20.1271 56.127L19.3717 56.3245M22.7468 60.1126C22.3884 60.1389 22.0293 60.0707 21.7054 59.915C21.3067 59.7478 20.9423 59.5087 20.6301 59.2098C20.3087 58.9142 20.148 58.6764 20.1191 58.4901C20.0901 58.3037 20.2412 58.1977 20.5675 58.1688C20.7281 58.1541 20.8899 58.1578 21.0496 58.18C21.1985 58.1981 21.3461 58.2255 21.4916 58.2619L22.0718 58.7905C22.4399 59.1246 22.8079 59.462 23.1808 59.8026C23.1856 59.8154 23.1808 60.0692 22.7452 60.111L22.7468 60.1126Z" fill="#000001"/>
<path d="M23.7739 58.9794C23.5286 58.774 23.3161 58.5324 23.1439 58.2629C23.0378 58.1062 22.9879 57.9182 23.0025 57.7295C23.0146 57.6554 23.0438 57.5851 23.0879 57.5243C23.132 57.4635 23.1897 57.4139 23.2564 57.3793C23.4305 57.2854 23.623 57.2306 23.8205 57.2187C24.4016 57.1677 24.9866 57.2507 25.5306 57.4612C26.199 57.7198 26.8169 58.0933 27.3564 58.5649C27.4062 58.6034 27.4576 58.6484 27.5171 58.6966L27.6633 58.83L24.9745 59.0966C25.2769 59.3386 25.6204 59.5242 25.9886 59.6444C26.5495 59.8172 27.1488 59.8205 27.7116 59.6541C27.8288 59.6199 27.9412 59.5708 28.0459 59.5079L28.8896 60.1007C28.8445 60.1345 28.7961 60.1635 28.745 60.1874C28.664 60.2232 28.5808 60.2537 28.4959 60.279C28.3849 60.3127 28.2722 60.3406 28.1584 60.3625C28.0257 60.3898 27.8915 60.4091 27.7566 60.4204C27.3896 60.4567 27.0195 60.4448 26.6556 60.385C26.2919 60.328 25.9353 60.2327 25.5917 60.1007C25.2564 59.9694 24.9336 59.8081 24.6273 59.6187C24.3284 59.433 24.0461 59.2217 23.7836 58.9874M26.1237 58.4026C26.0069 58.3025 25.8816 58.2127 25.7492 58.1344C25.6161 58.052 25.4756 57.9821 25.3297 57.9255C25.1936 57.8714 25.0526 57.8305 24.9086 57.8034C24.7709 57.7776 24.6302 57.7716 24.4907 57.7857C24.3831 57.7882 24.2786 57.8223 24.1902 57.8837C24.1615 57.9049 24.1381 57.9325 24.122 57.9643C24.1058 57.9961 24.0972 58.0312 24.097 58.0669C24.103 58.1529 24.1313 58.2359 24.1789 58.3079C24.2403 58.4002 24.3085 58.4877 24.3831 58.5697L26.1237 58.4026Z" fill="#000001"/>
<path d="M30.3568 59.4803C30.5259 59.483 30.6926 59.4397 30.839 59.355C30.8984 59.2971 30.8599 59.212 30.72 59.0995C30.5699 58.9852 30.3974 58.9037 30.2138 58.8602C29.9221 58.7888 29.6264 58.7351 29.3282 58.6995C29.0952 58.669 28.8766 58.6353 28.6676 58.5967C28.4666 58.5591 28.268 58.5092 28.073 58.4473C27.8831 58.3871 27.6986 58.3108 27.5217 58.2192C27.3359 58.1211 27.1613 58.0031 27.001 57.8674C26.6795 57.5927 26.5494 57.3662 26.6313 57.183C26.7133 56.9999 26.9865 56.8858 27.4494 56.8376C27.6929 56.8129 27.9378 56.8054 28.1823 56.8151C28.4346 56.8248 28.6323 56.8392 28.7802 56.8569L29.3009 57.4288C29.131 57.4024 28.9599 57.3847 28.7882 57.3758C28.5846 57.3634 28.3803 57.3677 28.1775 57.3887C28.0434 57.3892 27.9128 57.4307 27.803 57.5075C27.7403 57.5654 27.774 57.6457 27.893 57.7453C27.9535 57.7944 28.0186 57.8374 28.0874 57.8738C28.1685 57.9131 28.2529 57.9449 28.3398 57.9686C28.4541 57.9998 28.57 58.025 28.6869 58.0441C28.8187 58.0666 28.9762 58.0891 29.153 58.1116C29.4552 58.1501 29.722 58.1919 29.9566 58.2369C30.1741 58.2768 30.3888 58.3305 30.5995 58.3975C30.7917 58.4625 30.9782 58.5431 31.1572 58.6385C31.3407 58.7418 31.5154 58.86 31.6795 58.9919C32.0604 59.2955 32.2019 59.5413 32.099 59.7277C31.9962 59.914 31.6619 60.0361 31.1026 60.0891C30.7753 60.1239 30.4455 60.1288 30.1173 60.1036C29.8329 60.0779 29.6352 60.0538 29.5034 60.0345C29.3121 59.8225 29.1193 59.612 28.9312 59.4016C29.1289 59.4321 29.3523 59.4578 29.5982 59.4787C29.8517 59.5011 30.1066 59.5011 30.36 59.4787" fill="#000001"/>
<path d="M28.332 55.9696L29.1131 55.7656C29.4796 56.0516 29.8508 56.3423 30.2269 56.6331L31.6734 56.4853C31.9209 56.6733 32.1684 56.8628 32.4224 57.054L30.9614 57.2034C31.4805 57.6115 32.0125 58.0243 32.5525 58.4436C32.8115 58.6575 33.0993 58.8338 33.4076 58.9673C33.6494 59.0653 33.9113 59.1033 34.171 59.0782C34.3158 59.0686 34.4587 59.0388 34.5953 58.9898C34.6739 58.9589 34.7498 58.9213 34.8219 58.8774C35.1316 59.0691 35.445 59.2602 35.7621 59.4509C35.6664 59.5152 35.564 59.5691 35.4567 59.6115C35.2681 59.6802 35.0705 59.7213 34.8701 59.7336C34.5736 59.763 34.2746 59.756 33.9797 59.7127C33.6962 59.6711 33.4184 59.5967 33.152 59.491C32.8782 59.3837 32.615 59.2509 32.3661 59.0942C32.0971 58.9259 31.838 58.7425 31.5898 58.5448L29.9248 57.2291L28.3369 55.9713" fill="#000001"/>
<path d="M35.9445 56.0453C36.5113 56.629 37.0352 57.1977 37.5163 57.7514C37.9974 58.3051 38.4345 58.8513 38.8278 59.39C38.9511 59.5519 39.0587 59.7251 39.1492 59.9073C39.2119 60.0226 39.2329 60.1559 39.2087 60.2848C39.1922 60.3406 39.1626 60.3916 39.1223 60.4335C39.0821 60.4754 39.0323 60.5071 38.9772 60.5258C38.8032 60.5964 38.6184 60.6372 38.4308 60.6463C38.2564 60.6601 38.0812 60.6601 37.9069 60.6463C37.7516 60.6387 37.5971 60.6215 37.444 60.5949L36.8107 59.9603C37.0477 59.9977 37.2882 60.008 37.5276 59.9908C37.7927 59.9667 37.9342 59.8993 37.9567 59.79C37.9792 59.6808 37.9149 59.525 37.7606 59.3177C36.8348 58.8968 35.8786 58.4406 34.903 57.9506C33.9274 57.4606 32.9969 56.9675 32.0566 56.4405L33.0627 56.3377C33.3247 56.4871 33.6188 56.659 33.9451 56.8293C34.2714 56.9996 34.6137 57.1924 34.9657 57.3771C35.3177 57.5619 35.6857 57.7498 36.057 57.9378C36.4282 58.1257 36.785 58.3008 37.1225 58.4647C36.814 58.0904 36.4636 57.7 36.0779 57.292C35.6921 56.8839 35.3209 56.5064 34.9528 56.1417L35.9429 56.0405" fill="#000001"/>
<path d="M68.6446 82.7752H67.0374V79.6908H68.6446V82.7752ZM68.6446 76.6063H67.0374V73.5219H68.6446V76.6063ZM68.6446 70.4375H67.0374V67.3531H68.6446V70.4375ZM68.6446 64.2687H67.0374V61.1842H68.6446V64.2687ZM68.6446 58.0998H67.0374V55.0154H68.6446V58.0998ZM68.6446 51.931H67.0374V48.8466H68.6446V51.931ZM68.6446 45.7621H67.0374V44.9268H66.3945V43.3203H68.6446V45.7621Z" fill="#000001"/>
</svg>
