<svg width="26" height="25" viewBox="0 0 26 25" fill="none" xmlns="http://www.w3.org/2000/svg">
<path d="M8.64845 16.1256C7.37513 14.8896 5.97683 14.0121 4.66802 13.3896H11.5217V20.0968C10.8763 18.7947 9.95691 17.3957 8.64845 16.1256Z" stroke="#46505A" stroke-width="1.5"/>
<path d="M23.52 11.6524L23.5129 11.6451C22.6539 10.7656 21.517 10.4538 20.2061 10.1686C20.1178 10.1494 20.0282 10.1302 19.9377 10.1108C19.3839 9.99203 18.7953 9.86581 18.2505 9.68651C17.6062 9.47447 16.9619 9.1705 16.4209 8.66014L16.4119 8.65163L16.4032 8.64282C15.4648 7.69693 15.1656 6.3714 14.9121 5.24828C14.8891 5.1465 14.8665 5.04639 14.8438 4.94837C14.5512 3.68282 14.2332 2.59188 13.3306 1.76115L13.3232 1.75441L13.3161 1.74748C13.2277 1.66167 13.1304 1.57712 13.0237 1.49501V1.50566V1.52767V1.54982V1.57214V1.5946V1.61721V1.63997V1.66288V1.68594V1.70915V1.7325V1.75599V1.77963V1.80341V1.82734V1.8514V1.87561V1.89995V1.92443V1.94905V1.97381V1.9987V2.02373V2.04889V2.07418V2.0996V2.12515V2.15084V2.17665V2.20259V2.22866V2.25485V2.28117V2.30761V2.33417V2.36086V2.38766V2.41459V2.44164V2.4688V2.49609V2.52349V2.551V2.57863V2.60637V2.63423V2.66219V2.69027V2.71846V2.74675V2.77516V2.80367V2.83229V2.86101V2.88983V2.91876V2.94779V2.97693V3.00616V3.03549V3.06492V3.09445V3.12407V3.15379V3.18361V3.21352V3.24352V3.27361V3.30379V3.33407V3.36443V3.39488V3.42542V3.45604V3.48675V3.51755V3.54842V3.57938V3.61042V3.64154V3.67274V3.70402V3.73538V3.76681V3.79832V3.8299V3.86156V3.89329V3.92509V3.95696V3.9889V4.02092V4.053V4.08514V4.11736V4.14964V4.18198V4.21439V4.24685V4.27939V4.31198V4.34463V4.37734V4.4101V4.44293V4.47581V4.50874V4.54173V4.57477V4.60786V4.64101V4.6742V4.70745V4.74074V4.77408V4.80746V4.8409V4.87437V4.90789V4.94145V4.97506V5.0087V5.04238V5.07611V5.10987V5.14366V5.1775V5.21137V5.24527V5.2792V5.31317V5.34717V5.3812V5.41526V5.44934V5.48346V5.5176V5.55176V5.58596V5.62017V5.65441V5.68867V5.72295V5.75725V5.79156V5.8259V5.86025V5.89462V5.92901V5.96341V5.99782V6.03224V6.06668V6.10113V6.13558V6.17005V6.20452V6.239V6.27348V6.30797V6.34246V6.37696V6.41145V6.44595V6.48045V6.51495V6.54944V6.58394V6.61842V6.65291V6.68739V6.72186V6.75632V6.79078V6.82522V6.85966V6.89408V6.9285V6.96289V6.99728V7.03165V7.066V7.10034V7.13466V7.16895V7.20323V7.23749V7.27173V7.30594V7.34013V7.3743V7.40844V7.44255V7.47664V7.5107V7.54472V7.57872V7.61269V7.64662V7.68053V7.71439V7.74823V7.78202V7.81578V7.8495V7.88319V7.91683V7.95043V7.98399V8.01751V8.05099V8.08442V8.1178V8.15114V8.18443V8.21767V8.25087V8.28401V8.3171V8.35014V8.38313V8.41606V8.44894V8.48176V8.51453V8.54724V8.57989V8.61248V8.645V8.67747V8.70988V8.74222V8.7745V8.80671V8.83885V8.87093V8.90294V8.93488V8.96675V8.99855V9.03028V9.06194V9.09352V9.12503V9.15646V9.18781V9.21909V9.25029V9.2814V9.31244V9.3434V9.37427V9.40507V9.43577V9.46639V9.49693V9.52738V9.55774V9.58801V9.61819V9.64828V9.67828V9.70819V9.738V9.76772V9.79734V9.82687V9.85629V9.88562V9.91486V9.94398V9.97301V10.0019V10.0308V10.0595V10.0881V10.1166V10.145V10.1733V10.2015V10.2296V10.2575V10.2854V10.3131V10.3407V10.3683V10.3956V10.4229V10.4501V10.4771V10.5041V10.5309V10.5575V10.5841V10.6105V10.6369V10.6631V10.6891V10.7151V10.7409V10.7665V10.7921V10.8175V10.8428V10.868V10.893V10.9179V10.9426V10.9672V10.9917V11.0161V11.0403V11.0643V11.0882V11.112V11.1357V11.1591V11.1825V11.2057V11.2288V11.2517V11.2744V11.297V11.3195V11.3418V11.3639V11.3859V11.4078V11.4295V11.451V11.4724V11.4936V11.5147V11.5356V11.5563V11.5769V11.5973V11.6176V11.6377V11.6576V11.6773V11.6969V11.7163V11.7356V11.7547V11.7736V11.7923V11.8109V11.8293V11.8475V11.8655V11.8834V11.9011V11.9055H13.0329H13.0509H13.0691H13.0875H13.1061H13.1249H13.1438H13.1629H13.1822H13.2017H13.2214H13.2412H13.2612H13.2814H13.3018H13.3223H13.343H13.3638H13.3849H13.4061H13.4274H13.449H13.4707H13.4925H13.5146H13.5367H13.5591H13.5816H13.6043H13.6271H13.6501H13.6732H13.6965H13.7199H13.7435H13.7673H13.7912H13.8152H13.8394H13.8638H13.8883H13.9129H13.9377H13.9627H13.9877H14.0129H14.0383H14.0638H14.0894H14.1152H14.1411H14.1672H14.1934H14.2197H14.2462H14.2727H14.2995H14.3263H14.3533H14.3804H14.4076H14.435H14.4625H14.4901H14.5178H14.5457H14.5737H14.6018H14.63H14.6584H14.6868H14.7154H14.7441H14.7729H14.8018H14.8309H14.86H14.8893H14.9186H14.9481H14.9777H15.0074H15.0372H15.0671H15.0971H15.1272H15.1574H15.1878H15.2182H15.2487H15.2793H15.31H15.3408H15.3717H15.4027H15.4338H15.465H15.4963H15.5277H15.5591H15.5907H15.6223H15.654H15.6858H15.7177H15.7497H15.7817H15.8139H15.8461H15.8784H15.9108H15.9433H15.9758H16.0084H16.0411H16.0738H16.1067H16.1396H16.1726H16.2056H16.2387H16.2719H16.3052H16.3385H16.3719H16.4053H16.4388H16.4724H16.506H16.5397H16.5735H16.6073H16.6412H16.6751H16.7091H16.7431H16.7772H16.8114H16.8455H16.8798H16.9141H16.9484H16.9828H17.0173H17.0518H17.0863H17.1209H17.1555H17.1901H17.2248H17.2596H17.2944H17.3292H17.364H17.3989H17.4338H17.4688H17.5038H17.5388H17.5739H17.609H17.6441H17.6792H17.7144H17.7496H17.7848H17.8201H17.8553H17.8906H17.9259H17.9613H17.9966H18.032H18.0674H18.1028H18.1382H18.1737H18.2091H18.2446H18.2801H18.3155H18.351H18.3865H18.4221H18.4576H18.4931H18.5286H18.5642H18.5997H18.6352H18.6708H18.7063H18.7419H18.7774H18.8129H18.8485H18.884H18.9195H18.955H18.9905H19.026H19.0615H19.097H19.1324H19.1679H19.2033H19.2388H19.2742H19.3096H19.3449H19.3803H19.4156H19.4509H19.4862H19.5215H19.5567H19.592H19.6272H19.6623H19.6975H19.7326H19.7677H19.8027H19.8378H19.8728H19.9077H19.9427H19.9775H20.0124H20.0472H20.082H20.1167H20.1514H20.1861H20.2207H20.2553H20.2898H20.3243H20.3588H20.3931H20.4275H20.4618H20.496H20.5302H20.5644H20.5985H20.6325H20.6665H20.7004H20.7343H20.7681H20.8019H20.8356H20.8692H20.9028H20.9363H20.9697H21.0031H21.0364H21.0697H21.1029H21.136H21.1691H21.202H21.2349H21.2678H21.3005H21.3332H21.3658H21.3984H21.4308H21.4632H21.4955H21.5277H21.5599H21.592H21.6239H21.6558H21.6876H21.7194H21.751H21.7825H21.814H21.8454H21.8766H21.9078H21.9389H21.9699H22.0008H22.0317H22.0624H22.093H22.1235H22.1539H22.1842H22.2145H22.2446H22.2746H22.3045H22.3343H22.364H22.3936H22.4231H22.4524H22.4817H22.5109H22.5399H22.5688H22.5976H22.6263H22.6549H22.6834H22.7117H22.7399H22.768H22.796H22.8239H22.8516H22.8793H22.9067H22.9341H22.9614H22.9885H23.0155H23.0423H23.069H23.0956H23.1221H23.1484H23.1746H23.2007H23.2266H23.2524H23.278H23.3035H23.3289H23.3541H23.3792H23.4041H23.4289H23.4535H23.478H23.5024H23.5266H23.5507H23.5746H23.5983H23.6219H23.6454H23.6687H23.6918H23.7148H23.7376H23.7586C23.6885 11.8227 23.6168 11.7463 23.5435 11.6751L23.52 11.6524ZM23.52 11.6524L23.5274 11.6595L23.5432 11.6748L23.52 11.6524Z" stroke="#46505A" stroke-width="1.5"/>
</svg>
