<svg width="17" height="19" viewBox="0 0 17 19" fill="none" xmlns="http://www.w3.org/2000/svg">
<path d="M11.25 4.4088V4.2017V2.18457C11.25 1.86963 11.1249 1.56758 10.9022 1.34488C10.6795 1.12218 10.3774 0.99707 10.0625 0.99707H2.1875C1.87256 0.99707 1.57051 1.12218 1.34781 1.34488C1.12511 1.56758 1 1.86963 1 2.18457V16.8096C1 17.1245 1.12511 17.4266 1.34781 17.6493C1.57051 17.872 1.87256 17.9971 2.1875 17.9971H10.0625C10.3774 17.9971 10.6795 17.872 10.9022 17.6493C11.1249 17.4266 11.25 17.1245 11.25 16.8096V15.1221C11.25 15.1055 11.2434 15.0896 11.2317 15.0779C11.22 15.0662 11.2041 15.0596 11.1875 15.0596C10.6355 15.0596 10.2279 14.9212 9.92486 14.6943L9.92485 14.6943C9.61977 14.4659 9.41506 14.1427 9.27751 13.7638C9.00069 13.0029 9 12.0297 9 11.1847L11.25 4.4088ZM11.25 4.4088L11.3964 4.55525L15.0729 8.2317M11.25 4.4088L15.0729 8.2317M15.0729 8.2317C15.0729 8.23172 15.0729 8.23173 15.0729 8.23175C15.5063 8.66526 15.7498 9.25309 15.75 9.86607C15.75 9.86611 15.75 9.86614 15.75 9.86618V17.9346C15.75 17.9511 15.7434 17.967 15.7317 17.9788C15.72 17.9905 15.7041 17.9971 15.6875 17.9971C15.6709 17.9971 15.655 17.9905 15.6433 17.9788C15.6316 17.967 15.625 17.9511 15.625 17.9346V9.86607V9.86563C15.6245 9.28567 15.3937 8.72964 14.9833 8.3198M15.0729 8.2317L14.9833 8.3198M14.9833 8.3198L12.1036 5.44002L11.25 4.58646V5.79357V9.2642V9.47147L11.3967 9.61796L12.3569 10.5771C12.357 10.5772 12.357 10.5772 12.3571 10.5772C12.3688 10.589 12.3753 10.6049 12.3753 10.6216C12.3753 10.6382 12.3687 10.6542 12.3569 10.666C12.351 10.6718 12.3441 10.6764 12.3365 10.6796C12.3289 10.6827 12.3207 10.6843 12.3125 10.6843C12.2958 10.6843 12.2798 10.6777 12.2681 10.6659L12.2678 10.6656L8.8928 7.29064C8.62328 7.02112 8.37829 6.85598 8.14728 6.7724C7.90157 6.6835 7.70406 6.69863 7.56414 6.73358C7.22391 6.81698 6.95887 7.0724 6.74903 7.27463C6.74272 7.28072 6.73645 7.28675 6.73024 7.29274C6.73016 7.29282 6.73008 7.29289 6.72999 7.29297L7.07675 7.6532M14.9833 8.3198L8.65871 10.8164L9.01288 10.4634M7.07675 7.6532C6.96425 7.7612 6.917 7.86695 6.9395 8.02445C6.96875 8.22132 7.12288 8.57344 7.64825 9.09882L9.01288 10.4634M7.07675 7.6532C7.3175 7.42145 7.48962 7.26619 7.68425 7.21895L7.07675 7.6532ZM9.01288 10.4634L8.65932 10.817L8.98045 11.1393L8.98163 11.1404C8.98745 11.1462 8.99207 11.1531 8.99522 11.1607C8.99836 11.1683 8.99998 11.1764 9 11.1846H9.5C9.49998 11.1106 9.48537 11.0373 9.45699 10.969C9.42861 10.9006 9.38703 10.8386 9.33462 10.7863L9.01288 10.4634ZM6.6846 7.16271L6.64761 7.19861L6.64229 7.20378L6.63681 7.20879C6.51372 7.32136 6.42043 7.46267 6.36528 7.6201C6.31014 7.77753 6.29485 7.94617 6.32079 8.11094L6.32156 8.11583L6.32154 8.11583C6.37877 8.50434 6.63874 8.97408 7.2053 9.54064L8.62505 10.9604L8.95039 11.2857L8.65317 11.6369C8.29373 12.0617 7.8331 12.389 7.31378 12.5888C6.79446 12.7885 6.2332 12.8542 5.68179 12.7798C5.13038 12.7055 4.60658 12.4934 4.15876 12.1632C3.71093 11.833 3.35349 11.3953 3.11944 10.8905C2.88539 10.3857 2.78226 9.83008 2.81957 9.27493C2.85688 8.71978 3.03344 8.18297 3.33293 7.71404C3.63243 7.24512 4.04522 6.8592 4.53321 6.59189C5.0212 6.32457 5.56866 6.18449 6.12507 6.18457M6.6846 7.16271L6.12504 6.36897L6.12507 6.18457M6.6846 7.16271L6.78916 7.0626L7.56367 6.32105L6.49776 6.20441C6.374 6.19087 6.24957 6.18425 6.12507 6.18457M6.6846 7.16271L7.13428 12.1221C6.69335 12.2917 6.21681 12.3475 5.74863 12.2843C5.28045 12.2212 4.83572 12.0411 4.45549 11.7607C4.07526 11.4804 3.77178 11.1087 3.57305 10.6802C3.37433 10.2516 3.28676 9.77982 3.31844 9.30846C3.35013 8.83711 3.50003 8.38132 3.75432 7.98318C4.00861 7.58504 4.35909 7.25737 4.77342 7.0304C5.0741 6.8657 5.40136 6.75789 5.73882 6.71115C5.80467 6.62747 5.87728 6.54887 5.95608 6.47623L5.98939 6.4439L5.99183 6.44153L5.99184 6.44154L6.09759 6.34029L6.12402 6.3679L6.12346 6.18457C6.12399 6.18457 6.12453 6.18457 6.12507 6.18457M7.875 17.3721V17.8721H8.375H9.5H10V17.3721V16.8096C10 16.793 10.0066 16.7771 10.0183 16.7654C10.03 16.7537 10.0459 16.7471 10.0625 16.7471H10.625H11.125V16.2471V15.6396V15.2098L10.7001 15.1452C10.3931 15.0986 10.1018 14.9787 9.85086 14.7957L9.64697 14.647L9.40625 14.7227C8.96218 14.8624 8.57423 15.1401 8.29884 15.5154C8.02346 15.8907 7.87498 16.3441 7.875 16.8096C7.875 16.8096 7.875 16.8096 7.875 16.8096V17.3721ZM1.125 3.87207V4.37207H1.625H2.1875C2.76766 4.37207 3.32406 4.1416 3.7343 3.73137C4.14453 3.32113 4.375 2.76473 4.375 2.18457V1.62207V1.12207H3.875H2.75H2.25V1.62207V2.18457C2.25 2.20115 2.24342 2.21704 2.23169 2.22876C2.21997 2.24049 2.20408 2.24707 2.1875 2.24707H1.625H1.125V2.74707V3.87207ZM10.625 4.37207H11.125V3.87207V2.74707V2.24707H10.625H10.0625C10.0459 2.24707 10.03 2.24048 10.0183 2.22877C10.0066 2.21704 10 2.20115 10 2.18457V1.62207V1.12207H9.5H8.375H7.875V1.62207V2.18457C7.875 2.76473 8.10547 3.32113 8.5157 3.73137C8.92594 4.1416 9.48234 4.37207 10.0625 4.37207H10.625ZM1.625 14.6221H1.125V15.1221V16.2471V16.7471H1.625H2.1875C2.20408 16.7471 2.21997 16.7537 2.23169 16.7654C2.24341 16.7771 2.25 16.793 2.25 16.8096V17.3721V17.8721H2.75H3.875H4.375V17.3721V16.8096C4.375 16.2294 4.14453 15.673 3.7343 15.2628C3.32406 14.8525 2.76766 14.6221 2.1875 14.6221H1.625Z" stroke="#46505A"/>
</svg>
