<svg width="156" height="49" viewBox="0 0 156 49" fill="none" xmlns="http://www.w3.org/2000/svg">
<g clip-path="url(#clip0_722_8378)">
<path d="M151.129 0.0107422H4.91296C2.48006 0.0107422 0.507812 1.98299 0.507812 4.41589V43.6056C0.507812 46.0385 2.48006 48.0107 4.91296 48.0107H151.129C153.561 48.0107 155.534 46.0385 155.534 43.6056V4.41589C155.534 1.98299 153.561 0.0107422 151.129 0.0107422Z" fill="white"/>
<path d="M34.6887 24.2778C34.6524 20.5264 37.7604 18.7 37.9005 18.617C36.1415 16.0486 33.4123 15.701 32.4576 15.675C30.1694 15.4364 27.9487 17.0448 26.7812 17.0448C25.6138 17.0448 23.7926 15.6958 21.8572 15.7373C19.3667 15.7788 17.037 17.2212 15.7554 19.4575C13.1196 24.0235 15.0861 30.7324 17.6129 34.4267C18.8789 36.2324 20.3525 38.2508 22.2879 38.1781C24.1765 38.1003 24.8822 36.9744 27.1704 36.9744C29.4586 36.9744 30.0968 38.1781 32.0684 38.1314C34.0972 38.1003 35.3736 36.3154 36.5929 34.489C38.0561 32.4187 38.6424 30.3796 38.6632 30.2706C38.6165 30.2551 34.7198 28.7711 34.6835 24.2726" fill="#383838"/>
<path d="M30.962 13.2467C31.979 11.9755 32.6795 10.2425 32.4823 8.48877C31.0087 8.55622 29.1719 9.50574 28.1083 10.751C27.1691 11.8458 26.3286 13.6463 26.5465 15.3326C28.2017 15.4571 29.8984 14.4972 30.962 13.2467Z" fill="#383838"/>
<path d="M62.0221 37.8826H59.3863L57.9439 33.3425H52.9264L51.5515 37.8826H48.9883L53.9642 22.436H57.0307L62.0273 37.8826H62.0221ZM57.508 31.4435L56.2057 27.4119C56.0656 27.002 55.8061 26.0318 55.4274 24.5011H55.3807C55.225 25.1601 54.9811 26.1251 54.6439 27.4119L53.3623 31.4435H57.508Z" fill="#383838"/>
<path d="M74.8069 32.175C74.8069 34.0688 74.2984 35.5683 73.2711 36.6683C72.3527 37.6438 71.2164 38.1315 69.857 38.1315C68.3886 38.1315 67.3353 37.6023 66.6919 36.549H66.6504V42.4121H64.1754V30.4056C64.1754 29.2174 64.1443 27.9929 64.082 26.7425H66.2561L66.3962 28.5066H66.4429C67.2679 27.1783 68.5183 26.5142 70.1994 26.5142C71.5122 26.5142 72.6069 27.033 73.489 28.0707C74.3659 29.1137 74.8069 30.4783 74.8069 32.1698M72.2853 32.2632C72.2853 31.1787 72.0414 30.2863 71.5537 29.5806C71.0192 28.849 70.298 28.4806 69.4004 28.4806C68.7881 28.4806 68.2329 28.683 67.74 29.0877C67.2419 29.4976 66.9202 30.0269 66.7646 30.6806C66.6867 30.9868 66.6504 31.2358 66.6504 31.433V33.2905C66.6504 34.0999 66.8995 34.7848 67.3924 35.34C67.8905 35.9004 68.5339 36.1754 69.3277 36.1754C70.2617 36.1754 70.9881 35.8174 71.5018 35.1013C72.0206 34.3801 72.2801 33.4358 72.2801 32.258" fill="#383838"/>
<path d="M87.6194 32.175C87.6194 34.0688 87.1109 35.5683 86.0836 36.6683C85.1652 37.6438 84.0289 38.1315 82.6695 38.1315C81.2063 38.1315 80.153 37.6023 79.5096 36.549H79.4629V42.4121H76.9879V30.4056C76.9879 29.2174 76.9568 27.9929 76.8945 26.7425H79.0686L79.2087 28.5066H79.2554C80.0752 27.1783 81.3308 26.5142 83.0119 26.5142C84.3246 26.5142 85.4194 27.033 86.3015 28.0707C87.1784 29.1137 87.6142 30.4783 87.6142 32.1698M85.0978 32.2632C85.0978 31.1787 84.8539 30.2863 84.361 29.5806C83.8265 28.849 83.1105 28.4806 82.2077 28.4806C81.5954 28.4806 81.0402 28.683 80.5473 29.0877C80.0492 29.4976 79.7275 30.0269 79.5771 30.6806C79.4992 30.9868 79.4629 31.2358 79.4629 31.433V33.2905C79.4629 34.0999 79.7068 34.7848 80.2049 35.34C80.703 35.9004 81.3464 36.1754 82.1402 36.1754C83.069 36.1754 83.8006 35.8174 84.3143 35.1013C84.8331 34.3801 85.0926 33.4358 85.0926 32.258" fill="#383838"/>
<path d="M101.939 33.55C101.939 34.8628 101.482 35.9316 100.564 36.7566C99.5573 37.6594 98.1564 38.1057 96.3611 38.1057C94.7007 38.1057 93.3673 37.784 92.3555 37.1458L92.9314 35.0859C94.021 35.7448 95.2092 36.0717 96.5116 36.0717C97.4455 36.0717 98.1719 35.8642 98.6908 35.4439C99.2096 35.0236 99.4691 34.4581 99.4691 33.7576C99.4691 33.1298 99.2563 32.6005 98.8309 32.1751C98.4054 31.7444 97.6894 31.3501 96.6983 30.9817C93.9951 29.9699 92.646 28.4963 92.646 26.5506C92.646 25.2794 93.1182 24.2416 94.0677 23.4322C95.012 22.6228 96.2729 22.2129 97.8502 22.2129C99.2563 22.2129 100.424 22.4568 101.353 22.9445L100.735 24.9629C99.8634 24.4907 98.8776 24.252 97.7776 24.252C96.9059 24.252 96.2262 24.4648 95.7384 24.8954C95.3285 25.2794 95.121 25.7463 95.121 26.2912C95.121 26.9034 95.3545 27.4067 95.8318 27.801C96.2417 28.1694 96.9941 28.5638 98.0785 28.9944C99.4068 29.5289 100.382 30.1567 101.01 30.8727C101.638 31.5939 101.949 32.4864 101.949 33.5552" fill="#383838"/>
<path d="M110.12 28.6001H107.391V34.0066C107.391 35.3816 107.873 36.0665 108.833 36.0665C109.274 36.0665 109.643 36.0302 109.933 35.9523L110.001 37.8306C109.513 38.0122 108.87 38.1056 108.076 38.1056C107.095 38.1056 106.332 37.8099 105.782 37.2132C105.232 36.6165 104.957 35.6151 104.957 34.209V28.5949H103.328V26.7373H104.957V24.6982L107.386 23.9614V26.7322H110.115V28.5897L110.12 28.6001Z" fill="#383838"/>
<path d="M122.425 32.2218C122.425 33.9341 121.937 35.3402 120.962 36.4402C119.934 37.5713 118.575 38.1369 116.883 38.1369C115.192 38.1369 113.947 37.5973 112.976 36.5076C112.006 35.4232 111.523 34.0586 111.523 32.4086C111.523 30.6808 112.022 29.2695 113.023 28.1695C114.019 27.0695 115.368 26.5195 117.065 26.5195C118.762 26.5195 120.012 27.0643 121.008 28.1488C121.958 29.2072 122.43 30.5615 122.43 32.227M119.862 32.3049C119.862 31.2775 119.638 30.4006 119.197 29.6638C118.679 28.7766 117.937 28.3304 116.977 28.3304C116.017 28.3304 115.228 28.7766 114.709 29.6638C114.263 30.4006 114.045 31.2931 114.045 32.3516C114.045 33.41 114.263 34.2558 114.709 34.9926C115.244 35.8798 115.991 36.326 116.956 36.326C117.921 36.326 118.642 35.8746 119.177 34.9718C119.633 34.2195 119.862 33.3322 119.862 32.3049Z" fill="#383838"/>
<path d="M130.464 28.9219C130.22 28.8804 129.961 28.8544 129.686 28.8544C128.814 28.8544 128.14 29.1865 127.668 29.8403C127.258 30.4214 127.05 31.153 127.05 32.0402V37.8826H124.575L124.596 30.2553C124.596 28.9738 124.565 27.8011 124.508 26.7478H126.661L126.754 28.8804H126.822C127.081 28.1488 127.496 27.5573 128.062 27.1162C128.612 26.7167 129.209 26.5195 129.852 26.5195C130.08 26.5195 130.288 26.5351 130.47 26.561V28.9219H130.464Z" fill="#383838"/>
<path d="M141.534 31.7862C141.534 32.2325 141.503 32.6009 141.446 32.907H134.021C134.047 34.007 134.41 34.8475 135.095 35.4287C135.718 35.9475 136.532 36.2069 137.523 36.2069C138.618 36.2069 139.619 36.0305 140.522 35.6829L140.911 37.4003C139.858 37.8569 138.613 38.0904 137.176 38.0904C135.453 38.0904 134.093 37.5819 133.108 36.565C132.127 35.548 131.629 34.1834 131.629 32.4763C131.629 30.7693 132.086 29.3995 133.004 28.2839C133.964 27.0905 135.261 26.499 136.895 26.499C138.53 26.499 139.718 27.0957 140.543 28.2839C141.197 29.2334 141.524 30.4009 141.524 31.7914M139.163 31.148C139.178 30.4164 139.018 29.7834 138.685 29.249C138.255 28.5641 137.596 28.2165 136.714 28.2165C135.904 28.2165 135.251 28.5537 134.747 29.2231C134.332 29.7575 134.088 30.3957 134.016 31.148H139.168H139.163Z" fill="#383838"/>
<path d="M50.5625 9.51611H52.4097C54.537 9.51611 55.7926 10.6628 55.7926 12.9562C55.7926 15.2495 54.537 16.4533 52.4771 16.4533H50.5625V9.51611ZM52.3318 15.4571C53.7276 15.4571 54.5318 14.6632 54.5318 12.9562C54.5318 11.2491 53.7276 10.5123 52.3318 10.5123H51.7922V15.4571H52.3318Z" fill="#383838"/>
<path d="M56.9453 9.64077C56.9453 9.23087 57.267 8.95068 57.6977 8.95068C58.1283 8.95068 58.4552 9.23087 58.4552 9.64077C58.4552 10.0507 58.1335 10.3309 57.6977 10.3309C57.2618 10.3309 56.9453 10.0403 56.9453 9.64077ZM57.0854 11.2441H58.3099V16.4534H57.0854V11.2441Z" fill="#383838"/>
<path d="M59.3398 15.8567L59.9106 15.0784C60.3724 15.4416 60.8186 15.6595 61.3478 15.6595C61.9186 15.6595 62.1832 15.3897 62.1832 15.0369C62.1832 14.601 61.6177 14.4038 61.0625 14.1911C60.3776 13.9369 59.5993 13.5425 59.5993 12.6708C59.5993 11.7992 60.3309 11.1143 61.4983 11.1143C62.2247 11.1143 62.8058 11.41 63.2313 11.7369L62.6709 12.4892C62.3077 12.2194 61.9393 12.0378 61.5294 12.0378C61.0054 12.0378 60.7563 12.2869 60.7563 12.6138C60.7563 13.0237 61.2804 13.1845 61.846 13.3921C62.5516 13.6567 63.3403 13.9939 63.3403 14.9642C63.3403 15.8619 62.6294 16.5831 61.3167 16.5831C60.6059 16.5831 59.8535 16.2769 59.345 15.8567H59.3398Z" fill="#383838"/>
<path d="M64.4336 11.244H65.435L65.5284 11.7992H65.5647C66.0057 11.4204 66.5609 11.1143 67.1369 11.1143C68.4392 11.1143 69.1864 12.1572 69.1864 13.7656C69.1864 15.5505 68.1227 16.5779 66.9605 16.5779C66.4987 16.5779 66.0421 16.3703 65.6218 16.0071L65.6581 16.8736V18.5132H64.4336V11.2388V11.244ZM67.9255 13.7812C67.9255 12.7435 67.5883 12.126 66.7944 12.126C66.4157 12.126 66.0628 12.318 65.6581 12.7124V15.1406C66.0317 15.4571 66.4001 15.5713 66.701 15.5713C67.3963 15.5713 67.9255 14.959 67.9255 13.7812Z" fill="#383838"/>
<path d="M70.0703 13.854C70.0703 12.1158 71.2481 11.1196 72.5505 11.1196C73.8528 11.1196 75.0306 12.121 75.0306 13.854C75.0306 15.587 73.8528 16.5833 72.5505 16.5833C71.2481 16.5833 70.0703 15.5818 70.0703 13.854ZM73.7698 13.854C73.7698 12.8111 73.3132 12.1158 72.5453 12.1158C71.7774 12.1158 71.3208 12.8111 71.3208 13.854C71.3208 14.897 71.7774 15.587 72.5453 15.587C73.3132 15.587 73.7698 14.9021 73.7698 13.854Z" fill="#383838"/>
<path d="M76.2344 11.2442H77.2358L77.3292 11.9498H77.3655C77.8325 11.4984 78.3617 11.1196 79.0777 11.1196C80.1933 11.1196 80.681 11.8772 80.681 13.1899V16.4587H79.4565V13.3507C79.4565 12.4946 79.2127 12.1729 78.6471 12.1729C78.1905 12.1729 77.8895 12.396 77.4589 12.8215V16.4639H76.2344V11.2545V11.2442Z" fill="#383838"/>
<path d="M82.1484 9.77568L83.7154 7.92334L84.556 8.73277L82.7607 10.3776L82.1484 9.77568ZM82.164 11.2441H83.3885V16.4534H82.164V11.2441Z" fill="#383838"/>
<path d="M84.2942 11.2441H85.5343L86.3593 13.9474C86.5046 14.4611 86.6551 14.9955 86.8004 15.5196H86.8419C86.9871 14.9955 87.1376 14.4611 87.2829 13.9474L88.1079 11.2441H89.2857L87.5164 16.4535H86.1051L84.2891 11.2441H84.2942Z" fill="#383838"/>
<path d="M89.7891 13.854C89.7891 12.1625 90.9669 11.1196 92.1914 11.1196C93.5975 11.1196 94.3447 12.1366 94.3447 13.5946C94.3447 13.8281 94.3187 14.0616 94.2928 14.1913H90.9876C91.0914 15.1149 91.6829 15.6441 92.5235 15.6441C92.9697 15.6441 93.3485 15.504 93.7324 15.2653L94.1475 16.0229C93.6494 16.3601 93.0216 16.5884 92.3626 16.5884C90.9254 16.5884 89.7942 15.5767 89.7942 13.8592L89.7891 13.854ZM93.2862 13.3507C93.2862 12.5517 92.9282 12.0588 92.2173 12.0588C91.6103 12.0588 91.0758 12.5102 90.9721 13.3507H93.2914H93.2862Z" fill="#383838"/>
<path d="M95.5078 15.1098V8.95605H96.7323V15.172C96.7323 15.473 96.8672 15.5819 96.997 15.5819C97.054 15.5819 97.0955 15.5819 97.1889 15.5612L97.3394 16.4744C97.1889 16.5366 96.9866 16.5782 96.696 16.5782C95.8295 16.5782 95.513 16.0178 95.513 15.1098H95.5078Z" fill="#383838"/>
<path d="M100.496 11.2442H101.497L101.591 11.9498H101.627C102.094 11.4984 102.623 11.1196 103.339 11.1196C104.455 11.1196 104.943 11.8772 104.943 13.1899V16.4587H103.718V13.3507C103.718 12.4946 103.474 12.1729 102.909 12.1729C102.452 12.1729 102.151 12.396 101.721 12.8215V16.4639H100.496V11.2545V11.2442Z" fill="#383838"/>
<path d="M106.154 15.0524C106.154 13.9369 107.077 13.3557 109.215 13.1274C109.199 12.5671 108.971 12.1001 108.271 12.1001C107.752 12.1001 107.264 12.3336 106.807 12.6138L106.356 11.7992C106.927 11.436 107.669 11.1143 108.494 11.1143C109.796 11.1143 110.439 11.9185 110.439 13.3661V16.4482H109.438L109.345 15.8722H109.308C108.841 16.2718 108.307 16.5779 107.689 16.5779C106.776 16.5779 106.148 15.9604 106.148 15.0524H106.154ZM109.215 15.0524V13.8798C107.804 14.0562 107.331 14.4246 107.331 14.9538C107.331 15.4156 107.648 15.618 108.084 15.618C108.52 15.618 108.831 15.4104 109.215 15.0524Z" fill="#383838"/>
</g>
<rect x="1.00781" y="0.510742" width="154.026" height="47" rx="3.5" stroke="#383838"/>
<defs>
<clipPath id="clip0_722_8378">
<rect x="0.507812" y="0.0107422" width="155.026" height="48" rx="4" fill="white"/>
</clipPath>
</defs>
</svg>
