<svg width="89" height="119" viewBox="0 0 89 119" fill="none" xmlns="http://www.w3.org/2000/svg">
<path fill-rule="evenodd" clip-rule="evenodd" d="M70.7275 96.069L66.2169 99.6756L60.9173 104.973L58.2115 107.001L53.2505 104.296L44.3427 97.1962L34.8711 88.4042L37.5768 85.4745L41.6355 77.5844L40.2826 72.8507L38.7045 69.5826L35.4349 69.1309L30.6976 73.5276L24.0451 81.6428L19.8731 88.7426L17.3926 96.1809L20.4369 105.762L24.9475 110.495L33.2915 115.567L42.426 117.822L54.3781 116.356L62.0449 110.495L67.1193 103.394L70.1637 98.3233L70.9527 95.6173L70.7275 96.069Z" fill="white"/>
<path d="M72.3887 66.1507L83.7417 76.4819C84.1117 76.8197 84.4094 77.2288 84.617 77.6847C84.8246 78.1406 84.9377 78.6337 84.9495 79.1344C84.9614 79.6352 84.8717 80.1331 84.6859 80.5983C84.5 81.0634 84.2219 81.4861 83.8683 81.841L60.1878 105.602C59.5169 106.277 58.6123 106.669 57.6608 106.696C56.7094 106.724 55.7837 106.385 55.0751 105.749L30.5584 83.7083L2.09202 58.1253C1.7152 57.7866 1.4117 57.3744 1.20021 56.9141C0.988727 56.4538 0.873721 55.9551 0.862276 55.4487C0.85083 54.9422 0.943186 54.4388 1.13366 53.9694C1.32413 53.5 1.6087 53.0745 1.96983 52.7192L26.2981 28.8019C26.9758 28.1359 27.8832 27.755 28.8335 27.7374C29.7837 27.7199 30.7045 28.0672 31.4064 28.7078L72.3887 66.1507Z" fill="white"/>
<path d="M57.562 107.431C56.4653 107.431 55.4076 107.025 54.5928 106.291L1.59642 58.6773C1.14534 58.2715 0.782054 57.7779 0.528877 57.2266C0.275699 56.6754 0.137984 56.0782 0.124196 55.4718C0.110408 54.8654 0.220839 54.2626 0.4487 53.7004C0.676562 53.1382 1.01704 52.6286 1.4492 52.2028L25.7804 28.2782C26.5922 27.4797 27.6796 27.0228 28.8183 27.0017C29.9571 26.9807 31.0606 27.397 31.9015 28.1649L72.8839 65.6079L84.2324 75.9376C84.6751 76.343 85.0312 76.8337 85.2794 77.3802C85.5275 77.9267 85.6625 78.5177 85.6762 79.1177C85.69 79.7177 85.5822 80.3142 85.3594 80.8715C85.1366 81.4288 84.8033 81.9353 84.3796 82.3605L60.7153 106.122C60.302 106.537 59.8107 106.867 59.2695 107.091C58.7283 107.316 58.148 107.432 57.562 107.431ZM28.9013 28.4724C28.1199 28.4712 27.3697 28.7784 26.8138 29.3273L2.47969 53.2475C2.19024 53.5325 1.96216 53.8737 1.80948 54.25C1.65679 54.6264 1.58272 55.03 1.59182 55.436C1.60092 55.842 1.693 56.2419 1.86239 56.611C2.03179 56.9801 2.27492 57.3107 2.57685 57.5825L55.5732 105.196C56.1406 105.707 56.8826 105.98 57.6458 105.959C58.4089 105.938 59.1347 105.624 59.673 105.083L83.3418 81.3217C83.6253 81.0372 83.8483 80.6982 83.9973 80.3253C84.1463 79.9523 84.2182 79.5531 84.2087 79.1517C84.1992 78.7502 84.1085 78.3548 83.942 77.9893C83.7756 77.6238 83.5369 77.2958 83.2402 77.025L71.8916 66.6938L30.9093 29.2508C30.3608 28.7496 29.6444 28.4719 28.9013 28.4724Z" fill="#000001"/>
<path d="M32.0065 29.2028L2.41016 58.3555L3.44344 59.4036L33.0398 30.2509L32.0065 29.2028Z" fill="#000001"/>
<path d="M82.4303 74.2414L52.834 103.394L53.9355 104.511L83.5318 75.3586L82.4303 74.2414Z" fill="#000001"/>
<path d="M48.5292 67.3014C48.4958 67.418 48.4462 67.5295 48.382 67.6325C48.1229 68.0386 47.6636 68.2873 47.2043 68.4388C46.3696 68.7111 45.5497 68.4962 44.7488 68.2078C44.0275 67.9459 43.2973 67.5751 42.8792 66.9012C42.3831 66.1021 42.6982 65.231 42.997 64.4217C43.128 64.0671 42.9455 63.7596 42.6363 63.5918L36.8951 60.4546C36.5815 60.2825 36.1914 60.5312 36.0648 60.8152C35.2242 62.6972 34.4116 64.8352 35.317 66.8482C36.0972 68.5889 37.8063 69.6734 39.408 70.5739C41.4175 71.7102 43.514 72.6854 45.6777 73.4904C47.6401 74.2173 49.8586 75.1222 51.949 74.4071C52.8921 74.0753 53.7231 73.4858 54.3477 72.7054C54.9722 71.925 55.3653 70.9852 55.4821 69.9927C55.4945 69.8539 55.4622 69.7148 55.3899 69.5957C55.3176 69.4766 55.2091 69.3837 55.0802 69.3305L49.7467 67.1013L49.3595 66.9394C49.0813 66.8232 48.622 66.9997 48.5292 67.3014Z" fill="white"/>
<path d="M50.2958 75.4571C48.6882 75.4571 47.116 74.8685 45.6807 74.3373L45.3863 74.2269C43.1846 73.4068 41.0508 72.4149 39.0046 71.2604C37.3308 70.3172 35.4715 69.1474 34.5883 67.1712C33.5578 64.8684 34.4337 62.517 35.3361 60.4937C35.4228 60.3051 35.547 60.1361 35.7011 59.9969C35.8553 59.8578 36.0361 59.7515 36.2326 59.6844C36.4005 59.6249 36.579 59.6013 36.7565 59.6152C36.934 59.6292 37.1066 59.6803 37.2631 59.7653L43.0044 62.9025C43.6919 63.2792 43.9819 63.9987 43.7243 64.6918C43.4298 65.4864 43.2591 66.0397 43.5373 66.487C43.7861 66.8887 44.2395 67.1904 45.0094 67.4699C45.7793 67.7495 46.3741 67.8819 46.9541 67.6936C47.3309 67.57 47.5959 67.3993 47.7196 67.2095C47.7469 67.1665 47.7682 67.1199 47.7829 67.0712C47.8425 66.893 47.9388 66.7294 48.0655 66.5907C48.1923 66.4521 48.3468 66.3415 48.5189 66.2663C48.6975 66.1797 48.892 66.1307 49.0902 66.1223C49.2885 66.114 49.4864 66.1464 49.6716 66.2177L55.3702 68.6147C55.6558 68.7329 55.8959 68.9397 56.0549 69.2047C56.214 69.4696 56.2836 69.7787 56.2535 70.0862C56.1177 71.2242 55.6665 72.3016 54.9506 73.1968C54.2347 74.092 53.2828 74.7694 52.2022 75.1525C51.5881 75.3593 50.9438 75.4622 50.2958 75.4571ZM36.7111 61.2544C35.9338 63.0099 35.2654 64.8566 36.0162 66.5297C36.7081 68.0703 38.3201 69.0738 39.776 69.8934C41.7502 71.0082 43.8092 71.9657 45.9339 72.7569L46.2283 72.8673C48.0611 73.55 49.9572 74.2563 51.6752 73.6678C52.4576 73.3896 53.1492 72.9033 53.6755 72.2613C54.2019 71.6193 54.543 70.8459 54.6621 70.0244L49.202 67.7274C49.1545 67.841 49.0974 67.9503 49.0312 68.0541C48.7074 68.5632 48.1671 68.937 47.4296 69.1842C46.3638 69.53 45.3686 69.274 44.4647 68.9443C43.7684 68.6912 42.7747 68.2483 42.1947 67.314C41.5205 66.228 41.8929 65.1068 42.2036 64.2577L36.7111 61.2544Z" fill="#000001"/>
<path d="M51.365 61.3018C50.4853 60.396 49.3764 59.7455 48.1563 59.4193C46.9362 59.0931 45.6505 59.1034 44.4358 59.4492L43.9941 57.9439C45.4843 57.516 47.0628 57.5007 48.561 57.8999C50.0591 58.299 51.4206 59.0975 52.5001 60.21L51.365 61.3018Z" fill="#000001"/>
<path d="M49.242 62.8675C48.7259 62.3221 48.0718 61.9265 47.3489 61.7227C46.6227 61.5212 45.856 61.5166 45.1275 61.7095L44.7285 60.1924C45.7266 59.9291 46.7769 59.9362 47.7714 60.213C48.7685 60.4933 49.671 61.0384 50.3829 61.7904L49.242 62.8675Z" fill="#000001"/>
<path d="M53.4957 59.8648C52.2817 58.55 50.7397 57.5815 49.0278 57.0587C47.3165 56.5285 45.4965 56.4535 43.7473 56.8409L43.4043 55.3106C45.4206 54.8634 47.5187 54.9496 49.4915 55.5608C51.4693 56.1657 53.2506 57.2855 54.6528 58.8054L53.4957 59.8648Z" fill="#000001"/>
<path d="M47.4638 64.6551C47.2522 64.4269 46.9857 64.2566 46.6896 64.1605C46.3935 64.0644 46.0777 64.0457 45.7723 64.1063L45.5 62.5612C46.055 62.4575 46.6271 62.4938 47.1646 62.6667C47.7021 62.8396 48.1879 63.1437 48.5782 63.5515L47.4638 64.6551Z" fill="#000001"/>
<path d="M65.7139 103.766C62.3692 108.577 58.4151 113.107 53.0169 115.503C49.3508 117.115 45.3214 117.722 41.343 117.261C37.1224 116.777 33.1447 115.173 29.5822 112.887C27.7856 111.721 26.0777 110.425 24.4724 109.008C22.9076 107.641 21.4885 106.181 20.4212 104.386C13.1357 92.1154 24.549 80.5967 33.0991 71.3589C35.7312 68.516 37.7922 68.903 39.1348 70.6231C44.3314 77.1358 38.5724 83.6074 34.5167 88.9017C33.5127 90.1657 34.187 92.5627 33.5599 94.1298L58.9642 109.957L63.3188 104.218C64.0548 104.49 64.891 104.312 65.577 103.862L65.7139 103.771" fill="white"/>
<path d="M31.0952 79.3788C29.8115 79.3788 28.6191 78.7505 27.6313 77.5277L27.2441 77.048L27.6195 76.558C27.6732 76.4866 27.7224 76.4119 27.7667 76.3343C27.8138 76.2548 27.8566 76.1728 27.8948 76.0886L27.9331 76.0047L27.9905 75.9311C29.1137 74.4921 30.976 72.4158 33.5227 69.7583L33.9393 69.3169L34.4664 69.6112C34.8476 69.822 35.214 70.0584 35.5631 70.319C35.905 70.5728 36.2305 70.8481 36.5376 71.143L36.6377 71.2372C37.2501 71.8257 37.655 72.2083 37.839 72.741C38.0789 73.4296 37.839 74.0845 37.4135 74.8555C36.5656 76.3799 34.3103 78.4091 32.7705 79.033C32.2396 79.2553 31.6707 79.3727 31.0952 79.3788ZM29.2212 76.9597C30.1045 77.8308 31.0775 78.0353 32.186 77.5865C33.3917 77.098 35.3761 75.3072 36.0459 74.1021C36.3551 73.5459 36.3875 73.3384 36.361 73.2634C36.3006 73.0883 35.9562 72.7601 35.5587 72.3805L35.4571 72.2834C35.1961 72.0345 34.9203 71.8016 34.6312 71.5859C34.4973 71.4858 34.3618 71.3917 34.2279 71.3034C31.9785 73.6577 30.3179 75.5236 29.286 76.8346C29.2713 76.8699 29.2433 76.9126 29.2212 76.9597Z" fill="#000001"/>
<path d="M61.1531 62.7439C63.0669 65.4235 66.8134 65.4293 69.3558 63.6842C71.745 62.0435 73.5204 59.2212 73.0935 56.2503C72.9357 55.2014 72.4874 54.2176 71.7993 53.4102C71.1112 52.6027 70.2107 52.0039 69.1997 51.6814C63.4511 49.7965 57.6038 57.7615 61.1531 62.7439Z" fill="white"/>
<path d="M65.497 65.6765C65.3145 65.6765 65.1334 65.6691 64.9538 65.6544C63.1151 65.5073 61.5385 64.6376 60.5124 63.1985C58.6899 60.6397 58.9122 57.0846 61.0792 54.1431C63.2226 51.2311 66.5069 49.973 69.4438 50.9368C70.5968 51.3002 71.6241 51.9808 72.4081 52.9008C73.192 53.8207 73.7008 54.9428 73.8763 56.1384C74.3047 59.1226 72.7075 62.3377 69.8074 64.3301C68.5372 65.1988 67.036 65.6677 65.497 65.6765ZM67.4299 52.1802C65.2792 52.1802 63.4125 53.6193 62.3423 55.0731C61.0085 56.8845 60.0634 59.8613 61.7917 62.2833C63.4567 64.6215 66.7837 64.4905 68.9109 63.0323C71.3237 61.3754 72.6604 58.7547 72.3159 56.3562C72.1304 55.193 71.5371 54.1337 70.642 53.3675C69.7468 52.6014 68.6083 52.1785 67.4299 52.1743V52.1802Z" fill="#000001"/>
<path d="M58.6041 54.3668L49.6035 46.1428L49.9848 45.5821C50.7511 44.4514 51.7399 43.4886 52.8908 42.7525C53.9343 42.0718 55.1215 41.6422 56.3591 41.4973C58.4039 41.2943 60.1866 42.1624 61.2406 43.8782C61.8071 44.7993 62.1049 45.8604 62.1005 46.9416C62.0961 48.0229 61.7896 49.0815 61.2156 49.998C60.9801 50.3717 60.721 50.7175 60.4472 51.0825C60.3206 51.2532 60.191 51.4253 60.0615 51.6048C59.6535 52.1471 59.3078 52.7335 59.031 53.3529L58.6041 54.3668ZM51.6851 45.9191L58.0859 51.7667C58.3036 51.3946 58.54 51.0336 58.794 50.6852C58.9279 50.4998 59.0634 50.3188 59.1959 50.1422C59.4505 49.8008 59.6905 49.48 59.8951 49.1578C60.3061 48.4876 60.5248 47.7174 60.5274 46.9313C60.53 46.1453 60.3163 45.3736 59.9098 44.7007C59.1738 43.5147 57.9431 42.9158 56.524 43.0571C55.5287 43.1773 54.5749 43.5263 53.7372 44.0768C52.9563 44.5743 52.2626 45.1967 51.6836 45.9191H51.6851Z" fill="#000001"/>
<path d="M87.6141 71.3896C87.0517 69.771 85.7003 68.5276 83.7939 68.4717H83.5554H83.4759C82.3758 68.5527 81.3132 68.9068 80.3845 69.5017C79.3936 70.0974 78.5724 70.9375 77.9996 71.9414C75.9387 75.7304 77.4255 78.6439 79.7662 79.7225C84.6242 81.9533 89.0111 75.3935 87.6141 71.3896Z" fill="white"/>
<path d="M81.7607 80.9562C80.9596 80.9527 80.169 80.775 79.4436 80.4353C78.7607 80.1294 78.1488 79.6852 77.6466 79.1308C77.1443 78.5763 76.7627 77.9237 76.5258 77.2143C76.1313 76.0253 75.9458 74.0815 77.309 71.5682C77.9419 70.4741 78.8307 69.5497 79.8994 68.8741C80.968 68.1986 82.1845 67.7921 83.4448 67.6895H83.4654H83.539H83.8246C85.9017 67.7513 87.6403 69.0697 88.3602 71.1327C89.2435 73.6548 88.1482 77.1525 85.8178 79.2684C84.5813 80.3838 83.1783 80.9562 81.7607 80.9562ZM83.5022 69.258C82.5385 69.3321 81.6083 69.644 80.795 70.1659C79.921 70.691 79.1962 71.4311 78.6898 72.3158C77.8227 73.9138 77.5902 75.4367 78.0171 76.7184C78.1866 77.2234 78.459 77.6878 78.817 78.0824C79.175 78.4769 79.6109 78.7931 80.0972 79.0109C82.2126 79.9821 83.9247 78.8638 84.7535 78.106C86.6143 76.4167 87.5505 73.5797 86.8704 71.6477C86.3625 70.1924 85.2025 69.2934 83.7672 69.2566H83.6391L83.5022 69.258Z" fill="#000001"/>
<path d="M68.8944 69.1502C69.8969 72.0196 73.1046 73.1393 75.8811 72.3021C78.6104 71.4781 81.1292 69.1016 81.5517 66.2117C81.7166 65.1299 81.5563 64.0235 81.091 63.0329C80.6258 62.0424 79.8767 61.2123 78.9387 60.6481C74.0542 57.7169 67.0557 63.8765 68.8944 69.1502Z" fill="white"/>
<path d="M74.0714 73.3487C71.5983 73.3487 69.0854 72.0817 68.152 69.4081C67.0317 66.1973 68.8204 62.8998 71.0889 61.056C73.7211 58.915 76.8832 58.5015 79.3401 59.976C80.4104 60.6203 81.2654 61.5675 81.7969 62.6978C82.3283 63.828 82.5123 65.0905 82.3256 66.3253C81.884 69.3124 79.3313 72.0788 76.1059 73.0529C75.4459 73.2505 74.7604 73.3502 74.0714 73.3487ZM69.6345 68.8916C70.5177 71.4269 73.3884 72.2348 75.6525 71.552C78.3155 70.7471 80.4222 68.5046 80.774 66.0973C80.9147 65.1687 80.7768 64.2194 80.3777 63.3692C79.9786 62.519 79.3363 61.8062 78.532 61.3209C76.2914 59.976 73.7299 60.9309 72.0796 62.2714C70.2351 63.7709 68.7644 66.3989 69.6345 68.8931V68.8916Z" fill="#000001"/>
<path d="M68.7015 61.2852C69.1755 60.4583 69.6157 59.5813 69.8542 58.7322C70.2561 57.3064 70.0883 55.96 68.5572 55.0535C66.3594 54.075 64.8578 54.8078 63.8568 56.01C61.5485 58.7837 61.9018 59.983 63.1207 60.7834C66.0355 62.6934 67.2176 63.875 68.7015 61.2852Z" fill="white"/>
<path d="M66.8772 63.5695C65.8674 63.5695 64.8398 62.8823 63.4914 61.9803C63.2396 61.8111 62.9717 61.6316 62.6891 61.4462C61.9324 60.9518 61.5114 60.3588 61.4039 59.6333C61.239 58.5371 61.8279 57.229 63.2529 55.5132C64.2716 54.2904 66.072 53.0941 68.8764 54.3361L68.9559 54.3773C70.1056 55.0556 71.3245 56.3991 70.6091 58.9388C70.3882 59.726 69.9981 60.5927 69.3813 61.6684C68.7645 62.744 68.13 63.3223 67.3733 63.5004C67.2112 63.5423 67.0447 63.5655 66.8772 63.5695ZM66.6299 55.3852C65.7996 55.3852 65.0901 55.7604 64.46 56.5182C63.1042 58.1486 62.8922 58.9844 62.9555 59.4009C62.982 59.5789 63.0733 59.8246 63.5444 60.1366C63.8329 60.3249 64.1052 60.5054 64.3614 60.6781C65.5553 61.4756 66.4974 62.1069 67.0112 61.9862C67.3056 61.9171 67.6442 61.5521 68.0152 60.9017C68.5658 59.9423 68.9088 59.1875 69.0943 58.5268C69.4682 57.2025 69.1973 56.3696 68.1918 55.759C67.7026 55.5274 67.171 55.3987 66.6299 55.3808V55.3852Z" fill="#000001"/>
<path d="M76.311 70.6152C76.7188 70.1959 77.128 69.7559 77.5049 69.3071C77.8718 68.8769 78.2041 68.4184 78.4986 67.9357C78.899 67.2618 79.1492 66.5864 79.1404 65.9389C79.1316 65.2915 78.8592 64.672 78.2144 64.1099C77.2443 63.4624 76.3316 63.2638 75.4925 63.3565C74.6576 63.4725 73.871 63.8167 73.2195 64.3512C72.6307 64.8044 72.1787 65.2076 71.8092 65.546C69.6069 67.5649 74.0704 72.7827 76.311 70.6152Z" fill="white"/>
<path d="M75.055 71.9154C74.7557 71.9134 74.4582 71.8683 74.1718 71.7815C72.5392 71.2988 70.9419 69.5419 70.5356 67.782C70.2751 66.6505 70.5356 65.6499 71.2908 64.9671C71.6456 64.6434 72.1314 64.2108 72.7512 63.7311C73.6124 63.0645 74.5089 62.676 75.4187 62.576C76.5124 62.4553 77.6047 62.7525 78.6573 63.4588L78.7368 63.5192C79.5156 64.1975 79.9145 65.0068 79.9322 65.9265C79.9425 66.6769 79.6981 67.4657 79.1814 68.3353C78.8659 68.8537 78.509 69.3458 78.1141 69.8068C77.7741 70.2129 77.3781 70.6426 76.8805 71.1576L76.8643 71.1752C76.3831 71.6517 75.7324 71.9179 75.055 71.9154ZM75.8942 64.1166C75.7913 64.1166 75.6886 64.1225 75.5865 64.1342C74.9697 64.2019 74.3381 64.483 73.7081 64.97C73.1369 65.4115 72.6996 65.8014 72.3463 66.1237C72.0254 66.418 71.9297 66.8594 72.0622 67.4274C72.3375 68.6252 73.5343 69.9554 74.6149 70.2762C75.3053 70.4807 75.6454 70.1732 75.7661 70.0569C76.2342 69.5743 76.5993 69.174 76.9129 68.8017C77.2529 68.4041 77.5606 67.98 77.8329 67.5333C78.1921 66.9271 78.3703 66.3944 78.3644 65.9486C78.3585 65.5027 78.1597 65.1054 77.7446 64.7317C77.1057 64.3211 76.4977 64.1181 75.8868 64.1181L75.8942 64.1166Z" fill="#000001"/>
<path d="M83.7479 77.7461C84.9256 76.4071 86.6715 72.8108 83.7391 72.1766C81.4514 71.6822 79.4699 73.2066 78.9017 75.3432C78.7059 76.0657 78.993 76.6322 79.5097 77.1428C80.7492 78.3626 81.3189 79.0748 81.8224 79.2028C82.3258 79.3309 82.7675 78.8732 83.7479 77.7461Z" fill="white"/>
<path d="M81.9989 80.0089C81.8753 80.0079 81.7522 79.9921 81.6323 79.9619C81.0435 79.8147 80.5606 79.3247 79.7672 78.5139C79.5316 78.2741 79.2652 78.0033 78.959 77.7002C78.1699 76.9233 77.8946 76.061 78.1434 75.1398C78.8647 72.4588 81.3423 70.8564 83.9038 71.4097C85.2552 71.704 85.7822 72.5015 85.9883 73.121C86.5581 74.8411 85.2788 77.1867 84.3396 78.2608C83.446 79.2864 82.8115 80.0089 81.9989 80.0089ZM82.8571 72.865C81.2275 72.865 80.0395 74.1275 79.6567 75.5474C79.5758 75.8506 79.6126 76.1434 80.0586 76.5775C80.3751 76.8894 80.6475 77.1661 80.886 77.4103C81.3276 77.8606 81.7825 78.3256 81.9797 78.4212C82.2153 78.2991 82.7997 77.631 83.1574 77.2234C83.9097 76.3626 84.8209 74.5748 84.4986 73.608C84.4264 73.3903 84.2512 73.0842 83.5726 72.9371C83.3373 72.8877 83.0975 72.8635 82.8571 72.865Z" fill="#000001"/>
<path d="M44.409 118.738C43.5355 118.738 42.6562 118.696 41.7709 118.613C32.604 117.742 24.3719 112.572 19.748 104.781C12.4316 92.4603 23.0456 81.0328 31.5736 71.8509L32.5275 70.8209C34.0129 69.2155 35.4717 68.4282 36.8658 68.4886C37.9523 68.5342 38.9518 69.1007 39.7541 70.1278C42.2302 73.2311 42.6469 76.6287 41.0202 80.509C39.8572 83.2842 37.7933 85.9431 35.9723 88.2901C35.6896 88.6541 35.4124 89.0126 35.1405 89.3658C34.7695 89.8322 34.7107 90.6356 34.6827 91.4185C34.6827 91.5377 34.6738 91.6568 34.6709 91.776C34.6429 92.6707 34.615 93.5948 34.2896 94.4085L32.8322 93.8199C33.0545 93.2637 33.0781 92.5162 33.1016 91.7231L33.1149 91.3552C33.1531 90.3119 33.2459 89.223 33.9039 88.3961C34.1674 88.0503 34.4486 87.6883 34.7327 87.3219C36.5802 84.9425 38.4896 82.4808 39.5731 79.8969C40.9775 76.5478 40.6433 73.7505 38.522 71.0931C37.9994 70.425 37.4223 70.0763 36.7996 70.0498C35.8972 70.0071 34.8211 70.6457 33.6787 71.8788C33.3637 72.2202 33.0452 72.5636 32.7233 72.9089C28.5896 77.3601 23.9053 82.4028 21.1981 87.6957C18.1567 93.6419 18.1243 98.9656 21.098 103.973C25.4657 111.33 33.2503 116.214 41.9196 117.038C49.7837 117.786 57.1634 114.978 62.1701 109.328C66.3259 104.643 69.5042 98.8023 72.0583 94.1112C72.7252 92.8855 73.3553 91.7289 73.9353 90.7269L75.2955 91.5082C74.7258 92.5 74.1002 93.6492 73.4377 94.8661C70.8453 99.6278 67.6184 105.555 63.3449 110.374C58.5678 115.77 51.774 118.738 44.409 118.738Z" fill="#000001"/>
<path d="M41.5247 102.791L40.3352 101.768C40.8063 101.221 40.9815 100.444 40.8579 99.4419C40.4648 96.3047 37.3159 92.1022 34.7368 90.2923C34.2789 89.9715 33.8064 89.6537 33.3633 89.3594L34.2333 88.0542C34.6838 88.3485 35.1666 88.6781 35.6377 89.0092C38.5466 91.0501 41.9678 95.6499 42.4095 99.2462C42.5964 100.701 42.2976 101.893 41.5247 102.791Z" fill="#000001"/>
<path fill-rule="evenodd" clip-rule="evenodd" d="M53.9812 43.0742C51.6508 44.6443 54.6304 50.3609 59.0879 50.2094C60.0787 50.1755 61.1195 50.8804 59.7268 51.5558C58.5962 52.1061 58.8436 53.1332 56.8385 51.9501C55.2413 51.0084 52.9492 47.624 51.2062 46.0569C50.7543 45.6493 53.0846 43.0669 53.6617 43.1846C53.7191 43.1963 54.0518 43.0271 53.9812 43.0742Z" fill="#000001"/>
<path fill-rule="evenodd" clip-rule="evenodd" d="M60.7242 105.399C63.427 104.604 69.3758 95.7413 69.4848 99.6966C71.1041 99.7599 76.4037 88.0425 69.5378 96.4402C68.2806 97.975 60.6344 105.663 59.3448 106.122C58.4762 106.433 57.4973 106.368 56.7377 106.214C50.1911 104.879 41.7839 91.0649 37.6973 91.0649C37.6973 92.5129 40.5959 95.8649 41.3172 98.0941C41.4203 98.409 41.4335 98.3752 41.4203 98.0941C50.8978 98.0941 52.4155 109.555 60.7242 105.399Z" fill="#000001"/>
<path d="M40.8513 4.06157C42.5936 2.86787 44.5717 2.06145 46.6522 1.69669C48.7328 1.33192 50.8674 1.41728 52.9121 1.94702C54.9569 2.47676 56.8642 3.43856 58.5055 4.76757C60.1469 6.09658 61.4841 7.76191 62.4269 9.65127C63.3698 11.5406 63.8964 13.6101 63.9713 15.7201C64.0462 17.8302 63.6676 19.9317 62.8611 21.8831C62.0545 23.8345 60.8387 25.5904 59.2957 27.0323C57.7527 28.4742 55.9184 29.5687 53.9163 30.2419C53.1997 33.516 51.2606 36.3936 48.4945 38.2879C48.8922 36.4799 48.9013 34.6081 48.521 32.7964C48.391 32.171 48.2158 31.5558 47.9969 30.9556C44.9576 30.7043 42.0705 29.519 39.7318 27.5625C37.393 25.6059 35.7173 22.974 34.9345 20.0277C34.1517 17.0814 34.3001 13.9652 35.3595 11.1066C36.4188 8.24804 38.3372 5.78713 40.8513 4.06157Z" fill="#E1E55E"/>
<path d="M47.3795 39.9449L47.7799 38.1306C48.1563 36.4239 48.1648 34.6568 47.805 32.9466C47.7124 32.5057 47.5964 32.07 47.4575 31.6414C44.3175 31.2831 41.3619 29.9747 38.9863 27.8912C36.6107 25.8077 34.9285 23.0486 34.1648 19.9832C33.4011 16.9178 33.5924 13.6924 34.713 10.7386C35.8337 7.78487 37.8303 5.24376 40.4355 3.45542C42.2502 2.21187 44.3089 1.36843 46.4747 0.981113C48.6405 0.593795 50.864 0.671459 52.9975 1.20895C55.1311 1.74644 57.1258 2.73145 58.8492 4.09859C60.5727 5.46573 61.9854 7.1837 62.9937 9.13844C64.0019 11.0932 64.5826 13.24 64.6972 15.4362C64.8118 17.6325 64.4576 19.828 63.6582 21.877C62.8588 23.9259 61.6325 25.7815 60.0606 27.3204C58.4888 28.8592 56.6074 30.0463 54.5414 30.8027C53.7235 34.1005 51.7189 36.9816 48.9105 38.8957L47.3795 39.9449ZM41.2687 4.66938C38.8794 6.3086 37.0561 8.6468 36.0491 11.3631C35.0422 14.0793 34.901 17.0405 35.6449 19.8402C36.3887 22.6399 37.9812 25.1409 40.2037 26.9998C42.4263 28.8588 45.17 29.9847 48.0582 30.2229L48.5278 30.2612L48.6897 30.7026C49.3703 32.5736 49.6453 34.5679 49.4964 36.5532C51.368 34.8275 52.661 32.5664 53.1988 30.0787L53.2871 29.6711L53.6831 29.5372C55.5902 28.9012 57.3384 27.8633 58.8095 26.4936C60.2806 25.1239 61.4403 23.4545 62.2101 21.5981C62.98 19.7418 63.342 17.7418 63.2718 15.7335C63.2016 13.7252 62.7007 11.7554 61.8031 9.9573C60.9054 8.1592 59.632 6.57475 58.0688 5.31109C56.5056 4.04743 54.6892 3.13405 52.7423 2.6327C50.7955 2.13136 48.7636 2.05375 46.7842 2.40512C44.8047 2.7565 42.9238 3.52866 41.2687 4.66938Z" fill="#000001"/>
<path d="M57.0163 10.1831H42.8574V11.7517H57.0163V10.1831Z" fill="#231F20"/>
<path d="M57.0163 14.9849H42.8574V16.5534H57.0163V14.9849Z" fill="#231F20"/>
<path d="M57.0163 19.7861H42.8574V21.3547H57.0163V19.7861Z" fill="#231F20"/>
</svg>
