<svg width="25" height="24" viewBox="0 0 25 24" fill="none" xmlns="http://www.w3.org/2000/svg">
<path d="M15.4717 11.9983L24.0646 3.42536C24.4409 3.04906 24.6523 2.53869 24.6523 2.00653C24.6523 1.47437 24.4409 0.963996 24.0646 0.587699C23.6883 0.211402 23.178 0 22.6458 0C22.1136 0 21.6033 0.211402 21.227 0.587699L12.654 9.18062L4.08111 0.587699C3.70482 0.211402 3.19445 -3.96493e-09 2.66228 0C2.13012 3.96494e-09 1.61975 0.211402 1.24345 0.587699C0.867156 0.963996 0.655754 1.47437 0.655754 2.00653C0.655754 2.53869 0.867156 3.04906 1.24345 3.42536L9.83637 11.9983L1.24345 20.5712C1.05615 20.757 0.907485 20.978 0.806031 21.2215C0.704578 21.4651 0.652344 21.7263 0.652344 21.9901C0.652344 22.2539 0.704578 22.5151 0.806031 22.7586C0.907485 23.0021 1.05615 23.2231 1.24345 23.4089C1.42923 23.5962 1.65025 23.7449 1.89376 23.8463C2.13728 23.9478 2.39848 24 2.66228 24C2.92609 24 3.18729 23.9478 3.4308 23.8463C3.67432 23.7449 3.89534 23.5962 4.08111 23.4089L12.654 14.816L21.227 23.4089C21.4128 23.5962 21.6338 23.7449 21.8773 23.8463C22.1208 23.9478 22.382 24 22.6458 24C22.9096 24 23.1708 23.9478 23.4143 23.8463C23.6579 23.7449 23.8789 23.5962 24.0646 23.4089C24.2519 23.2231 24.4006 23.0021 24.5021 22.7586C24.6035 22.5151 24.6558 22.2539 24.6558 21.9901C24.6558 21.7263 24.6035 21.4651 24.5021 21.2215C24.4006 20.978 24.2519 20.757 24.0646 20.5712L15.4717 11.9983Z" fill="white"/>
</svg>
