<svg width="213" height="72" viewBox="0 0 213 72" fill="none" xmlns="http://www.w3.org/2000/svg">
<path d="M190.49 22.0581L190.653 44.0873C189.552 38.7967 187.206 33.8448 183.809 29.6419C178.591 23.8457 168.461 22.1664 168.461 22.1664L190.49 22.022V22.0581Z" fill="#E23C51"/>
<path d="M190.492 22.058L190.348 0.0107422C197.697 3.13455 194.862 10.935 198.852 14.3116C203.24 17.923 209.686 15.3048 212.539 21.8955L190.492 22.058Z" fill="#E23C51"/>
<path d="M61.399 36.7923C61.4045 35.6785 61.2401 34.5703 60.9115 33.506C60.6228 32.5201 60.1444 31.6 59.5031 30.7975C58.8799 30.0352 58.0971 29.4189 57.2099 28.9918C56.2055 28.521 55.1047 28.2922 53.9958 28.3237C52.8241 28.3034 51.6631 28.5504 50.6011 29.046C49.659 29.5073 48.8228 30.159 48.1454 30.96C47.4671 31.7571 46.9352 32.668 46.5745 33.6505C46.2159 34.6632 45.9618 35.7099 45.8161 36.7743L61.399 36.7923ZM37.0947 40.512C37.0354 37.6541 37.5194 34.8109 38.5212 32.1337C39.3604 29.9006 40.6443 27.8612 42.295 26.1389C43.8273 24.5684 45.673 23.3379 47.7121 22.5276C49.6912 21.7264 51.8065 21.3156 53.9416 21.3177C56.1121 21.2096 58.2798 21.5788 60.2921 22.3993C62.3044 23.2198 64.1122 24.4717 65.5882 26.0667C68.393 29.1604 69.7894 33.7769 69.7774 39.9162C69.7774 40.3857 69.7774 40.8912 69.7774 41.469C69.7774 42.0468 69.7774 42.5705 69.669 43.0219H45.7439C45.7806 44.2969 46.0729 45.5515 46.6032 46.7115C47.1336 47.8715 47.8913 48.9133 48.8316 49.7751C51.0903 51.5199 53.9112 52.3745 56.7585 52.1766C58.6333 52.1967 60.5045 52.0089 62.338 51.6169C63.7013 51.3484 65.037 50.9556 66.3285 50.4432L67.43 57.3047C66.8167 57.592 66.183 57.8334 65.534 58.0271C64.621 58.3086 63.6925 58.5376 62.7533 58.7132C61.7241 58.9299 60.6046 59.0924 59.3948 59.2368C58.1963 59.3804 56.9904 59.4528 55.7834 59.4535C52.9434 59.5095 50.1186 59.0254 47.4593 58.0271C45.2422 57.1749 43.2523 55.8215 41.645 54.0726C40.1025 52.3505 38.9452 50.319 38.2503 48.1139C37.4624 45.6577 37.0722 43.0914 37.0947 40.512Z" fill="#E23C51"/>
<path d="M84.5522 52.4469C86.2043 52.5453 87.8576 52.274 89.3914 51.6524C89.888 51.3956 90.2983 50.9986 90.5711 50.5106C90.844 50.0227 90.9675 49.4653 90.9263 48.9078C90.9183 48.3144 90.7641 47.7321 90.4775 47.2125C90.1909 46.6928 89.7807 46.2518 89.2831 45.9284C87.5954 44.844 85.7746 43.9822 83.8661 43.3643C82.3493 42.8046 80.9409 42.2087 79.6769 41.5587C78.488 40.9818 77.3826 40.2469 76.3906 39.3738C75.4607 38.5314 74.7166 37.5044 74.2057 36.3584C73.6408 34.9853 73.3701 33.5089 73.4112 32.0247C73.3444 30.5225 73.6372 29.0261 74.2653 27.6599C74.8935 26.2937 75.8388 25.0973 77.0226 24.1701C79.9328 22.1161 83.4512 21.1044 87.0079 21.299C89.0502 21.2948 91.0881 21.4883 93.0931 21.8769C94.5778 22.1466 96.0389 22.533 97.4628 23.0325L95.928 29.8218C94.7955 29.3209 93.616 28.9338 92.4069 28.6662C90.7715 28.2995 89.0991 28.1238 87.4233 28.1425C85.9837 28.0946 84.5535 28.3918 83.2522 29.0093C82.7601 29.2569 82.349 29.64 82.0675 30.1135C81.786 30.587 81.6457 31.1311 81.6632 31.6816C81.6548 32.2268 81.7593 32.7678 81.9701 33.2706C82.2189 33.7815 82.5913 34.2222 83.0535 34.5527C83.6768 35.0209 84.3488 35.4204 85.0578 35.7444C85.8884 36.1236 86.8635 36.5389 88.1094 36.9542C89.8333 37.5828 91.5212 38.3062 93.1653 39.1211C94.4268 39.7534 95.5839 40.5754 96.5961 41.5587C97.4743 42.4211 98.147 43.4703 98.5642 44.6283C99.0122 45.9722 99.226 47.3831 99.1962 48.7994C99.3039 50.3353 99.017 51.8732 98.3628 53.2669C97.7086 54.6607 96.7088 55.864 95.4585 56.7624C92.1496 58.7335 88.3246 59.6646 84.48 59.4349C81.8926 59.4993 79.3075 59.2323 76.7879 58.6404C74.8558 58.0987 73.4835 57.6653 72.707 57.3583L74.1516 50.3523C75.614 50.928 77.1093 51.4164 78.6296 51.8149C80.5666 52.2944 82.5569 52.525 84.5522 52.5011V52.4469Z" fill="#E23C51"/>
<path d="M103.001 12.6873L111.379 11.3149V22.2574H124.271V29.2453H111.379V43.9976C111.199 46.1671 111.684 48.3399 112.769 50.2272C113.349 50.8881 114.081 51.3978 114.903 51.7124C115.724 52.027 116.609 52.137 117.482 52.0329C118.846 52.0521 120.206 51.8881 121.527 51.5453C122.48 51.2915 123.42 50.9902 124.344 50.6425L125.716 57.2874C124.481 57.7975 123.215 58.2257 121.924 58.5694C120.116 59.0466 118.25 59.2715 116.381 59.2375C114.173 59.3059 111.972 58.9504 109.898 58.1902C108.275 57.5819 106.851 56.5386 105.781 55.1747C104.717 53.7666 103.983 52.1376 103.633 50.4078C103.2 48.3415 102.988 46.2351 103.001 44.124V12.6873Z" fill="#E23C51"/>
<path d="M161.958 22.2568C158.564 35.029 154.218 47.5291 148.957 59.6523C148.154 61.5028 147.199 63.2843 146.104 64.979C145.213 66.3428 144.117 67.5609 142.854 68.5903C141.657 69.5423 140.291 70.2592 138.828 70.703C135.879 71.4906 132.785 71.5711 129.799 70.9377C128.803 70.7549 127.833 70.4518 126.91 70.0349L128.445 63.3178C130.013 63.9479 131.685 64.2786 133.374 64.2928C135.217 64.403 137.038 63.8452 138.503 62.7219C139.933 61.3886 141.038 59.7456 141.735 57.9188C139.086 52.8509 136.546 47.3075 134.115 41.2885C131.594 35.0466 129.424 28.6687 127.614 22.1846H136.552C137.004 24.1166 137.582 26.2112 138.25 28.4863C138.918 30.7615 139.658 33.0366 140.435 35.3659C141.211 37.6953 142.06 40.0246 142.945 42.3359C143.829 44.6471 144.75 46.7958 145.581 48.7821C147.061 44.6651 148.44 40.2894 149.716 35.6549C150.992 31.0203 152.196 26.5302 153.327 22.1846L161.958 22.2568Z" fill="#E23C51"/>
<path d="M18.4978 52.1035C17.1968 52.1709 15.8991 51.918 14.7185 51.3671C13.5379 50.8162 12.5106 49.984 11.7265 48.9436C9.83868 46.4563 8.90352 43.3753 9.09024 40.2583C8.93456 37.2936 9.67039 34.3503 11.2029 31.8077C11.9526 30.7552 12.9618 29.9144 14.1325 29.367C15.3031 28.8197 16.5954 28.5844 17.8839 28.684C19.2186 28.6808 20.5439 28.9068 21.8022 29.352C22.8377 29.698 23.8264 30.1711 24.7454 30.7605V49.2505C23.9708 50.1478 23.0115 50.8672 21.9333 51.3596C20.855 51.8519 19.6832 52.1057 18.4978 52.1035ZM24.7454 6.20332V23.5919C23.6328 23.0277 22.4727 22.5624 21.2785 22.2015C19.772 21.7597 18.2077 21.5467 16.6379 21.5696C14.2801 21.524 11.9401 21.9858 9.7764 22.9239C7.82118 23.8058 6.09225 25.121 4.72051 26.7699C3.2772 28.5343 2.20821 30.5739 1.57865 32.7647C0.8289 35.2898 0.463669 37.9134 0.495243 40.5472C0.392289 43.2307 0.828218 45.9077 1.77727 48.4199C3.58294 52.591 7.6457 59.4706 16.7282 59.4706C18.2659 59.56 19.8018 59.2689 21.2001 58.6233C22.5985 57.9777 23.8162 56.9973 24.7454 55.769V58.4053H33.1237V4.72266L24.7454 6.11306V6.20332Z" fill="#E23C51"/>
</svg>
