<svg width="19" height="19" viewBox="0 0 19 19" fill="none" xmlns="http://www.w3.org/2000/svg">
<path d="M17.6 0.99707H1.4C1.16139 0.997348 0.932633 1.09226 0.763911 1.26098C0.595188 1.4297 0.500278 1.65846 0.5 1.89707V14.4971C0.500278 14.7357 0.595188 14.9644 0.763911 15.1332C0.932633 15.3019 1.16139 15.3968 1.4 15.3971H8.9V17.7971H5.9V18.9971H13.1V17.7971H10.1V15.3971H17.6C17.8386 15.3968 18.0674 15.3019 18.2361 15.1332C18.4048 14.9644 18.4997 14.7357 18.5 14.4971V1.89707C18.4997 1.65846 18.4048 1.4297 18.2361 1.26098C18.0674 1.09226 17.8386 0.997348 17.6 0.99707ZM17.3 14.1971H1.7V10.5971H17.3V14.1971ZM17.3 9.39707H1.7V2.19707H17.3V9.39707Z" fill="#46505A"/>
<path d="M14.9 11.7971H16.1V12.9971H14.9V11.7971Z" fill="#46505A"/>
</svg>
