<svg width="91" height="118" viewBox="0 0 91 118" fill="none" xmlns="http://www.w3.org/2000/svg">
<path d="M84.1636 16.1531L78.1728 52.8258L82.1614 56.3602L85.6011 63.1318L88.2367 69.3636L89.6742 75.8348L88.9547 83.7439L84.4029 93.8105L79.6102 100.283L73.1408 106.514L67.3893 110.829L60.6805 114.424L55.6485 116.341H49.1791L43.9062 115.142L40.5526 112.506L36.2386 106.274L35.7599 97.6454L43.5511 85.2975L47.74 80.1484L35.2813 83.0257L24.9764 84.703L22.1015 84.9424L17.9767 82.3201L0.775391 20.947L4.129 16.1515L12.5584 15.7682L12.0375 12.7986L13.6705 9.83678L16.0934 6.78111L27.196 6.58084L65.9518 6.08643L74.5783 7.04553L79.8496 7.28491L83.444 8.72278L85.3414 13.002L84.1636 16.1531Z" fill="white"/>
<path d="M25.6402 79.5095C24.1164 79.5089 22.6448 78.9545 21.4993 77.9494C20.3537 76.9443 19.6124 75.5571 19.4132 74.0459L11.2357 12.8825C11.1387 12.1611 11.1884 11.4275 11.3819 10.7258C11.5753 10.024 11.9084 9.3686 12.3612 8.79877C12.814 8.22894 13.3772 7.75645 14.017 7.40966C14.6569 7.06286 15.3601 6.84889 16.0846 6.78058L27.109 5.74951L27.2654 7.40955L16.2411 8.44063C15.7392 8.48734 15.252 8.63508 14.8086 8.87497C14.3653 9.11486 13.9751 9.44195 13.6614 9.83656C13.3477 10.2312 13.117 10.6852 12.9832 11.1712C12.8494 11.6573 12.8152 12.1654 12.8827 12.6651L21.0603 73.8285C21.2074 74.9394 21.7529 75.9591 22.5954 76.6979C23.4378 77.4367 24.5199 77.8443 25.6402 77.8448C25.7779 77.8448 25.9155 77.8385 26.0532 77.826L54.8467 75.4197L54.9859 77.0813L26.1971 79.4845C26.0125 79.5017 25.8264 79.5095 25.6402 79.5095Z" fill="#000001"/>
<path d="M22.8151 85.9814C21.7202 85.9805 20.6554 85.6225 19.7821 84.9619C18.9088 84.3012 18.2745 83.3738 17.9756 82.3202L0.586527 22.313C0.40138 21.6758 0.346701 21.0078 0.425764 20.3489C0.504827 19.6901 0.716006 19.054 1.04665 18.4787C1.3773 17.9034 1.82062 17.4008 2.35005 17.0009C2.87949 16.6011 3.48415 16.3122 4.12784 16.1516L12.1537 14.1489L12.5572 15.7683L4.5314 17.7757C4.10624 17.8818 3.7068 18.0724 3.35691 18.3363C3.00702 18.6001 2.71385 18.9318 2.49488 19.3114C2.27591 19.6911 2.13563 20.1109 2.08241 20.546C2.02919 20.9811 2.06412 21.4224 2.18512 21.8436L19.5757 81.8571C19.8088 82.6735 20.3403 83.3725 21.0648 83.8151C21.7892 84.2577 22.6535 84.4116 23.4862 84.2462L54.3913 78.7232L54.6901 80.3597L23.7974 85.8812C23.474 85.946 23.145 85.9796 22.8151 85.9814Z" fill="#000001"/>
<path d="M45.1588 96.4628L43.4961 96.3486C43.9341 89.8993 49.7341 83.0729 55.2353 79.6621L56.1144 81.0812C51.0996 84.1885 45.5561 90.6347 45.1588 96.4628Z" fill="#231F20"/>
<path d="M51.0275 117.393C48.7872 117.416 46.5657 116.982 44.4986 116.118C40.3723 114.358 37.3268 110.855 35.442 105.705L35.417 105.626C33.0957 96.4994 39.4838 88.1851 44.4892 82.7246C44.7145 82.479 44.9976 82.1504 45.2963 81.8046C45.8375 81.1788 46.3913 80.531 46.8402 80.0976L48.0024 81.2977C47.6082 81.681 47.0498 82.3288 46.5571 82.8998C46.2442 83.2566 45.958 83.5945 45.7171 83.8574C40.9792 89.0206 34.9242 96.853 37.0234 105.18C41.4391 117.185 51.4686 116.392 57.059 114.849C64.9894 112.652 73.5424 106.644 79.9352 98.7586C86.6987 90.4209 89.7895 81.4542 88.3974 74.1553L88.3865 74.0927V74.0301C88.2301 69.6133 82.8696 58.9302 79.9915 53.1912C79.3658 51.9395 78.8231 50.8631 78.4633 50.1042C78.2678 49.6927 78.1317 49.3861 78.0457 49.1655C77.9596 48.9449 77.6593 48.2048 78.285 47.8152C78.9763 47.3756 79.5129 48.0609 79.7709 48.3894L79.5785 48.5459C79.7788 49.0747 80.6031 50.7207 81.4728 52.4574C84.6011 58.6939 89.8239 69.111 90.0429 73.919C91.4914 81.6888 88.2785 91.1297 81.2256 99.8226C74.6217 107.959 65.7512 114.184 57.497 116.462C55.3921 117.062 53.216 117.375 51.0275 117.393ZM78.5743 49.3251C78.691 49.3504 78.8118 49.3497 78.9282 49.323C79.0445 49.2963 79.1535 49.2443 79.2475 49.1707C79.3415 49.097 79.418 49.0035 79.4717 48.8969C79.5254 48.7902 79.555 48.6731 79.5582 48.5537L78.5743 49.3251Z" fill="#231F20"/>
<path fill-rule="evenodd" clip-rule="evenodd" d="M43.5469 85.2973C43.6454 83.124 51.0252 81.2293 52.7756 82.2416C52.7849 82.2416 53.8282 81.4906 54.7558 80.7333C54.7069 80.318 54.6881 79.8997 54.6995 79.4816C54.6995 79.4003 54.6995 79.3252 54.6995 79.272C51.995 79.6756 48.7978 80.8992 46.2795 81.6517L43.5469 85.2973Z" fill="#000001"/>
<path d="M28.3879 66.9044C26.9263 66.9061 25.5224 66.3336 24.4787 65.3101C23.435 64.2865 22.8349 62.8939 22.8076 61.4322C22.7804 59.9704 23.3281 58.5564 24.333 57.4947C25.3378 56.4329 26.7193 55.8084 28.18 55.7556C29.6407 55.7028 31.0637 56.2259 32.1426 57.2123C33.2214 58.1987 33.8698 59.5695 33.9481 61.0294C34.0265 62.4893 33.5284 63.9216 32.5613 65.0178C31.5942 66.1141 30.2353 66.7865 28.7774 66.8904C28.6429 66.8997 28.513 66.9044 28.3879 66.9044ZM28.402 57.4464C28.3128 57.4464 28.2221 57.4464 28.1314 57.4558C27.1167 57.5265 26.1705 57.993 25.4963 58.7548C24.8222 59.5166 24.4741 60.5128 24.5271 61.5288C24.5801 62.5448 25.0299 63.4993 25.7796 64.1868C26.5293 64.8743 27.519 65.2398 28.5355 65.2045C29.552 65.1692 30.514 64.7361 31.2143 63.9983C31.9146 63.2605 32.2972 62.2771 32.2796 61.2598C32.2621 60.2426 31.8459 59.273 31.1207 58.5597C30.3954 57.8465 29.4191 57.4467 28.402 57.4464Z" fill="#000001"/>
<path d="M28.8757 74.1135C27.4198 74.1096 26.0237 73.5339 24.988 72.5103C23.9524 71.4868 23.36 70.0974 23.3385 68.6413C23.317 67.1851 23.8681 65.7788 24.8731 64.7251C25.8781 63.6714 27.2566 63.0547 28.7117 63.0078C30.1669 62.9608 31.5822 63.4874 32.653 64.4741C33.7238 65.4608 34.3644 66.8287 34.4367 68.2832C34.5091 69.7376 34.0075 71.1624 33.0399 72.2505C32.0724 73.3387 30.7162 74.0032 29.2636 74.101C29.1338 74.1088 29.004 74.1135 28.8757 74.1135ZM28.8898 64.6571C28.7991 64.6571 28.7083 64.6602 28.6176 64.6665C27.603 64.7372 26.6568 65.2036 25.9827 65.9654C25.3086 66.7271 24.9605 67.7231 25.0134 68.7391C25.0663 69.755 25.5159 70.7095 26.2655 71.3971C27.015 72.0846 28.0046 72.4503 29.021 72.4152C30.0374 72.3801 30.9994 71.9472 31.6999 71.2096C32.4003 70.4721 32.7831 69.4888 32.7659 68.4717C32.7487 67.4545 32.3329 66.4848 31.6079 65.7713C30.8829 65.0579 29.9068 64.6577 28.8898 64.6571Z" fill="#000001"/>
<path d="M52.5425 71.9833H32.6868C31.9652 71.9833 31.2508 71.8411 30.5842 71.5649C29.9176 71.2887 29.3119 70.8838 28.8018 70.3734C28.2917 69.8629 27.8871 69.257 27.6111 68.5902C27.3351 67.9233 27.1932 67.2086 27.1934 66.4869V6.57984C27.1934 5.12251 27.7721 3.72486 28.8023 2.69437C29.8326 1.66388 31.2298 1.08496 32.6868 1.08496H66.3167C67.7737 1.08496 69.1709 1.66388 70.2011 2.69437C71.2314 3.72486 71.8101 5.12251 71.8101 6.57984V66.4869C71.8101 68.7822 70.9952 70.7488 69.126 71.5718C66.6389 68.6241 59.6799 59.393 55.4175 54.0561C53.5405 51.7092 49.3281 46.6868 46.4015 49.3623C43.866 51.6842 42.1689 57.3011 45.4802 62.372C45.499 62.4001 45.524 62.4361 45.5522 62.4737L45.6273 62.6646C45.707 62.8351 45.718 63.0792 45.9401 63.5001L46.206 64.043C46.4047 64.6845 46.5611 64.7064 46.7722 65.1382C47.0053 65.6154 47.2962 65.8767 47.6857 66.2131L48.13 66.6574L49.0685 67.8669C49.291 68.3259 49.6152 68.7283 50.0164 69.0434C50.4403 69.3798 50.7124 69.8602 51.1629 70.17C51.3084 70.2685 51.543 70.8818 52.0498 71.3982C52.208 71.5371 52.3487 71.6947 52.469 71.8675L52.5456 71.9802" fill="#E1E55E"/>
<path d="M32.692 72.8182C31.0127 72.8186 29.4019 72.152 28.2137 70.965C27.0255 69.7779 26.3571 68.1676 26.3555 66.4878V6.58077C26.3571 4.90169 27.0251 3.29194 28.2127 2.10524C29.4002 0.918536 31.0102 0.251952 32.6888 0.251953H66.3188C67.9963 0.25361 69.6047 0.920926 70.7909 2.10745C71.9771 3.29397 72.6443 4.90277 72.6459 6.58077V66.4878C72.6459 69.75 71.1709 71.9874 68.5978 72.6304L68.1943 71.0111C70.6172 70.4071 70.9785 67.9178 70.9785 66.4878V6.58077C70.9773 5.34499 70.4859 4.16018 69.6123 3.28635C68.7387 2.41252 67.5542 1.92106 66.3188 1.91982H32.6888C31.4534 1.92106 30.2689 2.41252 29.3953 3.28635C28.5217 4.16018 28.0304 5.34499 28.0291 6.58077V66.4878C28.0304 67.7237 28.5217 68.9087 29.3952 69.7828C30.2688 70.6568 31.4533 71.1487 32.6888 71.1503L52.1019 71.0705V72.7384L32.692 72.8182Z" fill="#000001"/>
<path d="M71.0582 72.1185C70.5748 72.1217 70.0958 72.0264 69.6504 71.8385L70.3011 70.3036C70.8845 70.5508 71.6119 70.4835 72.3502 70.1143C73.5593 69.5088 74.5275 68.2696 74.8826 66.8756L83.6889 12.7403C83.7681 12.2536 83.7488 11.7559 83.6322 11.2767C83.5155 10.7975 83.3039 10.3466 83.0098 9.9508C82.7158 9.55495 82.3452 9.22218 81.9202 8.97221C81.4952 8.72225 81.0243 8.56016 80.5355 8.49558L72.3408 7.40818L72.5598 5.75439L80.7639 6.83553C81.4735 6.93003 82.1569 7.16597 82.7736 7.52938C83.3904 7.89278 83.928 8.37627 84.3546 8.95122C84.7812 9.52616 85.0881 10.1809 85.2572 10.8766C85.4264 11.5723 85.4542 12.2949 85.3392 13.0016L76.5219 67.2166L76.514 67.2495C76.0448 69.1192 74.7434 70.7902 73.0994 71.6116C72.4677 71.9371 71.7687 72.1107 71.0582 72.1185Z" fill="#000001"/>
<path d="M55.4281 85.8747L53.817 85.4475C53.9929 84.7928 54.1354 84.1296 54.2441 83.4605C54.3396 82.8749 54.3976 82.2839 54.4177 81.6909C54.5929 75.8722 52.1449 72.9996 49.3122 69.6732C47.5916 67.6517 45.8069 65.5614 44.4507 62.6325C43.7356 61.1209 43.2873 59.4968 43.1258 57.8323C42.7786 53.9818 44.1926 49.0283 47.0817 47.7406C48.3737 47.1649 50.4666 47.0741 53.1069 49.917C58.7192 55.9563 64.1141 63.759 68.8739 70.6433C70.0548 72.3534 71.1717 73.9665 72.2603 75.5123L70.8979 76.473C69.803 74.9225 68.6862 73.3047 67.5021 71.593C62.7751 64.7541 57.4162 57.0046 51.8853 51.0513C50.7903 49.881 49.2011 48.6215 47.7605 49.263C45.6457 50.2017 44.4961 54.4575 44.7886 57.6821C44.9336 59.1554 45.332 60.5925 45.9664 61.93C47.2271 64.6461 48.9383 66.6488 50.5839 68.5858C53.5136 72.0279 56.2822 75.2745 56.0867 81.7285C56.0642 82.3926 55.9999 83.0547 55.8943 83.7108C55.776 84.4396 55.6204 85.1618 55.4281 85.8747Z" fill="#231F20"/>
<path d="M53.7709 58.6779C53.652 58.6779 53.5378 58.6779 53.4299 58.6639C50.9178 58.4683 48.8077 56.245 47.7628 54.4019C46.6491 52.4336 47.2451 51.7202 48.5856 50.4168L48.6966 50.3089C49.3796 49.6394 50.1461 49.0609 50.9772 48.5878L51.5356 48.2749L51.9814 48.7333C53.8929 50.6985 55.0222 52.1223 56.7303 54.2767L57.2652 54.9511L57.3059 55.0402C57.3901 55.2267 57.495 55.403 57.6188 55.5659L58.0239 56.0838L57.6156 56.5986C56.2939 58.2774 54.847 58.6779 53.7709 58.6779ZM49.2144 53.5805C50.1232 55.1842 51.8188 56.8661 53.5597 57.0007C54.4137 57.068 55.2068 56.7347 55.9263 56.0103C55.895 55.9555 55.8669 55.8992 55.8387 55.8429L55.4242 55.3266C53.8913 53.3912 52.8339 52.0581 51.2478 50.3871C50.751 50.7177 50.286 51.0937 49.8588 51.5105L49.7478 51.6185C49.2989 52.055 48.9094 52.4321 48.8499 52.6339C48.8093 52.7669 48.9328 53.0876 49.2144 53.5867V53.5805Z" fill="#231F20"/>
<path fill-rule="evenodd" clip-rule="evenodd" d="M83.8686 59.0936C82.3529 54.0509 76.1086 56.7858 76.3527 61.597C76.3527 59.0936 79.2073 49.4792 79.4278 50.0909C79.6953 50.8325 81.8414 55.858 82.1605 56.3571L83.8686 59.0936Z" fill="#000001"/>
<path fill-rule="evenodd" clip-rule="evenodd" d="M33.3827 67.7926C32.8618 68.0352 32.3722 67.9898 32.0124 67.6909L31.9827 67.741L31.4087 68.6516C31.7729 68.8926 32.1936 69.0347 32.6293 69.064C33.065 69.0934 33.5009 69.0089 33.8942 68.819C34.3474 68.6155 34.729 68.2802 34.9891 67.8568L34.0615 67.2716L34.0115 67.2403C33.8639 67.4849 33.6442 67.6778 33.3827 67.7926ZM40.384 67.6847C40.2319 67.6879 40.0804 67.6668 39.935 67.6221L39.5862 68.7611C39.9383 68.8686 40.3092 68.9002 40.6744 68.8537C41.0396 68.8073 41.3908 68.6838 41.7048 68.4916C42.0187 68.2994 42.2884 68.0427 42.4959 67.7386C42.7034 67.4344 42.8441 67.0897 42.9086 66.7272L41.737 66.5206C41.681 66.8414 41.5156 67.1329 41.2689 67.3455C41.0222 67.558 40.7095 67.6784 40.384 67.6863V67.6847ZM37.7467 66.3391C37.7559 66.7076 37.8433 67.07 38.0032 67.402C38.1632 67.7341 38.3919 68.0283 38.6743 68.2652L39.4439 67.3577C39.2886 67.2294 39.1627 67.0692 39.0746 66.888C38.9865 66.7068 38.9383 66.5088 38.9333 66.3074C38.9283 66.106 38.9665 65.9059 39.0454 65.7205C39.1243 65.5352 39.2421 65.3689 39.3907 65.233L38.5742 64.3693C38.304 64.6198 38.0904 64.9251 37.9477 65.2648C37.805 65.6045 37.7365 65.9708 37.7467 66.3391ZM39.4595 63.8264L39.8662 64.9451C40.0085 64.8923 40.1587 64.8637 40.3104 64.8606C40.6354 64.8525 40.9532 64.9571 41.2098 65.1568C41.4664 65.3564 41.6461 65.6387 41.7182 65.9558L42.8773 65.6883C42.7429 65.1035 42.4104 64.5833 41.9363 64.2157C41.4622 63.8481 40.8757 63.6559 40.276 63.6715C39.9972 63.6781 39.7214 63.7305 39.4595 63.8264ZM32.1313 65.1125C32.757 64.8199 33.2966 64.9638 33.7143 65.4254L31.3821 66.505C31.3357 66.2227 31.3841 65.933 31.5197 65.6811C31.6552 65.4292 31.8703 65.2293 32.1313 65.1125ZM31.6621 64.1096C31.0539 64.4123 30.5872 64.9397 30.3607 65.5803C30.1342 66.2209 30.1656 66.9244 30.4483 67.5423C30.504 67.6594 30.5673 67.7728 30.6375 67.8818L35.2706 65.7117C35.2409 65.6444 35.2112 65.5631 35.1752 65.4864C34.959 64.9519 34.5688 64.5059 34.0678 64.2207C33.6455 63.9802 33.1661 63.8586 32.6804 63.8686C32.3281 63.8788 31.9816 63.9608 31.6621 64.1096ZM36.8239 62.6514L35.718 62.6811L35.851 67.6737C35.8502 67.891 35.9133 68.1038 36.0324 68.2855C36.1395 68.4391 36.2889 68.5581 36.4625 68.6281L37.3275 68.9614L37.7389 67.9241L36.9568 67.6299L36.8239 62.6514Z" fill="#231F20"/>
<path d="M44.7273 13.1338V10.1908C44.7273 9.44387 45.024 8.72754 45.552 8.19938C46.08 7.67123 46.7962 7.37451 47.5429 7.37451H51.4674C52.2141 7.37451 52.9303 7.67123 53.4583 8.19938C53.9863 8.72754 54.2829 9.44387 54.2829 10.1908V13.1338C54.2829 13.8807 53.9863 14.5971 53.4583 15.1252C52.9303 15.6534 52.2141 15.9501 51.4674 15.9501H47.5382C46.7915 15.9501 46.0753 15.6534 45.5473 15.1252C45.0193 14.5971 44.7227 13.8807 44.7227 13.1338H44.7273Z" fill="white"/>
<path d="M51.4617 16.778H47.5371C46.5705 16.778 45.6435 16.3939 44.96 15.7103C44.2766 15.0266 43.8926 14.0993 43.8926 13.1325V10.1895C43.8934 9.22287 44.2777 8.2961 44.961 7.61261C45.6443 6.92912 46.5708 6.54477 47.5371 6.54395H51.4617C52.428 6.54436 53.3546 6.92862 54.0377 7.61225C54.7209 8.29587 55.1046 9.22289 55.1046 10.1895V13.1325C55.1051 13.6112 55.0111 14.0853 54.8282 14.5277C54.6453 14.9701 54.377 15.372 54.0387 15.7106C53.7003 16.0492 53.2986 16.3177 52.8564 16.5009C52.4142 16.684 51.9403 16.7782 51.4617 16.778ZM47.5371 8.21181C47.0129 8.21223 46.5102 8.42072 46.1395 8.79151C45.7688 9.1623 45.5604 9.66509 45.56 10.1895V13.1325C45.5596 13.3925 45.6104 13.6501 45.7096 13.8905C45.8087 14.1309 45.9543 14.3494 46.1379 14.5335C46.3215 14.7176 46.5396 14.8637 46.7797 14.9634C47.0198 15.0632 47.2771 15.1146 47.5371 15.1148H51.4617C51.9859 15.1144 52.4885 14.9059 52.8592 14.5351C53.2299 14.1643 53.4384 13.6616 53.4388 13.1372V10.1895C53.4384 9.66509 53.2299 9.1623 52.8592 8.79151C52.4885 8.42072 51.9859 8.21223 51.4617 8.21181H47.5371Z" fill="#231F20"/>
</svg>
