<svg width="15" height="19" viewBox="0 0 15 19" fill="none" xmlns="http://www.w3.org/2000/svg">
<path d="M14.1717 0.675293C14.3581 0.675301 14.5382 0.742812 14.6787 0.865342C14.8192 0.987871 14.9106 1.15713 14.936 1.34182L14.9432 1.44673V17.9041C14.9431 18.0995 14.8688 18.2877 14.7354 18.4305C14.602 18.5733 14.4193 18.6602 14.2243 18.6735C14.0293 18.6868 13.8365 18.6256 13.6849 18.5023C13.5333 18.3789 13.4341 18.2026 13.4075 18.009L13.4003 17.9041V12.7612H11.086C10.8995 12.7612 10.7194 12.6936 10.5789 12.5711C10.4384 12.4486 10.3471 12.2793 10.3217 12.0946L10.3145 11.9897V4.53249C10.3145 3.50949 10.7209 2.5284 11.4443 1.80504C12.1676 1.08167 13.1487 0.675293 14.1717 0.675293ZM8.00021 0.675293C8.18663 0.675301 8.36674 0.742812 8.50723 0.865342C8.64772 0.987871 8.73909 1.15713 8.76445 1.34182L8.77165 1.44673V5.56107C8.77165 7.5699 7.33163 9.24135 5.42875 9.60341V17.9041C5.42869 18.0995 5.35444 18.2877 5.221 18.4305C5.08756 18.5733 4.90489 18.6602 4.70989 18.6735C4.51489 18.6868 4.3221 18.6256 4.17048 18.5023C4.01886 18.3789 3.91971 18.2026 3.89307 18.009L3.88587 17.9041V9.60341C2.98151 9.4305 2.16122 8.95938 1.55615 8.26536C0.951075 7.57135 0.59615 6.69451 0.548112 5.77502L0.542969 5.56107V1.44673C0.543029 1.25128 0.617278 1.06313 0.750715 0.92031C0.884151 0.777491 1.06683 0.690646 1.26183 0.677324C1.45683 0.664001 1.64962 0.725195 1.80124 0.84854C1.95286 0.971885 2.052 1.14818 2.07865 1.34182L2.08585 1.44673V5.56107C2.08585 6.71309 2.84288 7.68716 3.88587 8.01527V1.44673C3.88593 1.25128 3.96018 1.06313 4.09362 0.92031C4.22705 0.777491 4.40973 0.690646 4.60473 0.677324C4.79973 0.664001 4.99252 0.725195 5.14414 0.84854C5.29576 0.971885 5.3949 1.14818 5.42155 1.34182L5.42875 1.44673V8.01425C5.91958 7.85956 6.35277 7.56126 6.67236 7.15788C6.99194 6.7545 7.18325 6.26457 7.22157 5.75136L7.22877 5.56107V1.44673C7.22877 1.24213 7.31005 1.04591 7.45472 0.901242C7.59939 0.756569 7.79561 0.675293 8.00021 0.675293ZM13.4003 11.2183V2.34983C12.9774 2.49948 12.6071 2.76867 12.3344 3.12472C12.0616 3.48077 11.898 3.90836 11.8636 4.35557L11.8574 4.53249V11.2183H13.4003V2.34983V11.2183Z" fill="#46505A"/>
</svg>
