<svg width="26" height="25" viewBox="0 0 26 25" fill="none" xmlns="http://www.w3.org/2000/svg">
<path d="M17.7555 17.3759L25.4646 9.79358L25.5623 9.68215C25.707 9.48791 25.7768 9.24802 25.7588 9.00649C25.7409 8.76496 25.6364 8.53801 25.4646 8.36729L17.7555 0.788424L17.6492 0.697567C17.032 0.234709 16.1235 0.680424 16.1235 1.50157V5.153L15.7378 5.17872C9.62975 5.66215 6.05203 9.52786 5.19831 16.5393C5.0886 17.4393 6.1206 18.0033 6.78917 17.4067C9.24232 15.2159 11.7777 13.8547 14.4092 13.3096C14.8309 13.2222 15.2543 13.1553 15.6812 13.109L16.1235 13.0696V16.6627L16.132 16.8033C16.2349 17.5799 17.176 17.945 17.7555 17.3759ZM15.8629 6.88786L17.8378 6.75586V3.27071L23.7452 9.07872L17.8378 14.8902V11.1924L15.5132 11.4016H15.4995C12.58 11.7153 9.82517 12.8844 7.2246 14.8336C7.73546 12.5382 8.60803 10.8119 9.75489 9.57586C11.1777 8.04158 13.1663 7.10386 15.8629 6.88786ZM4.3326 2.225C3.19595 2.225 2.10586 2.67653 1.30213 3.48026C0.498405 4.28398 0.046875 5.37407 0.046875 6.51072V20.225C0.046875 21.3617 0.498405 22.4518 1.30213 23.2555C2.10586 24.0592 3.19595 24.5107 4.3326 24.5107H18.0469C19.1835 24.5107 20.2736 24.0592 21.0774 23.2555C21.8811 22.4518 22.3326 21.3617 22.3326 20.225V18.5107C22.3326 18.2834 22.2423 18.0654 22.0816 17.9046C21.9208 17.7439 21.7028 17.6536 21.4755 17.6536C21.2481 17.6536 21.0301 17.7439 20.8694 17.9046C20.7086 18.0654 20.6183 18.2834 20.6183 18.5107V20.225C20.6183 20.907 20.3474 21.5611 19.8652 22.0433C19.3829 22.5255 18.7289 22.7965 18.0469 22.7965H4.3326C3.65061 22.7965 2.99655 22.5255 2.51432 22.0433C2.03208 21.5611 1.76116 20.907 1.76116 20.225V6.51072C1.76116 5.82873 2.03208 5.17468 2.51432 4.69244C2.99655 4.2102 3.65061 3.93929 4.3326 3.93929H9.47546C9.70279 3.93929 9.92081 3.84898 10.0816 3.68823C10.2423 3.52749 10.3326 3.30947 10.3326 3.08214C10.3326 2.85481 10.2423 2.6368 10.0816 2.47605C9.92081 2.3153 9.70279 2.225 9.47546 2.225H4.3326Z" fill="#46505A"/>
</svg>
