<svg width="156" height="49" viewBox="0 0 156 49" fill="none" xmlns="http://www.w3.org/2000/svg">
<g clip-path="url(#clip0_722_8357)">
<path d="M151.101 0.0107422H4.88561C2.45272 0.0107422 0.480469 1.98299 0.480469 4.41589V43.6056C0.480469 46.0385 2.45272 48.0107 4.88561 48.0107H151.101C153.534 48.0107 155.506 46.0385 155.506 43.6056V4.41589C155.506 1.98299 153.534 0.0107422 151.101 0.0107422Z" fill="white"/>
<path d="M79.7167 26.0421C76.9927 26.0421 74.7719 28.1124 74.7719 30.9713C74.7719 33.8302 76.9927 35.9005 79.7167 35.9005C82.4407 35.9005 84.6615 33.8095 84.6615 30.9713C84.6615 28.1331 82.4407 26.0421 79.7167 26.0421ZM79.7167 33.9548C78.2224 33.9548 76.9356 32.7251 76.9356 30.9661C76.9356 29.2072 78.2224 27.9775 79.7167 27.9775C81.211 27.9775 82.4978 29.1916 82.4978 30.9661C82.4978 32.7406 81.211 33.9548 79.7167 33.9548ZM68.9244 26.0421C66.2003 26.0421 63.9796 28.1124 63.9796 30.9713C63.9796 33.8302 66.2003 35.9005 68.9244 35.9005C71.6484 35.9005 73.8691 33.8095 73.8691 30.9713C73.8691 28.1331 71.6484 26.0421 68.9244 26.0421ZM68.9244 33.9548C67.43 33.9548 66.1433 32.7251 66.1433 30.9661C66.1433 29.2072 67.43 27.9775 68.9244 27.9775C70.4187 27.9775 71.7055 29.1916 71.7055 30.9661C71.7055 32.7406 70.4187 33.9548 68.9244 33.9548ZM56.0877 27.552V29.643H61.0895C60.9391 30.8208 60.5499 31.677 59.9532 32.2737C59.2268 33.0001 58.0853 33.8043 56.0877 33.8043C53.0056 33.8043 50.5981 31.3189 50.5981 28.2421C50.5981 25.1652 53.0056 22.6799 56.0877 22.6799C57.748 22.6799 58.9622 23.3337 59.8598 24.1742L61.3334 22.7006C60.0829 21.5073 58.4226 20.5889 56.0877 20.5889C51.8693 20.5889 48.3203 24.0237 48.3203 28.2421C48.3203 32.4604 51.8693 35.8953 56.0877 35.8953C58.3655 35.8953 60.0829 35.1482 61.4268 33.7472C62.807 32.3671 63.2376 30.4265 63.2376 28.8544C63.2376 28.3666 63.2013 27.9204 63.1235 27.5468H56.0877V27.552ZM108.586 29.176C108.176 28.0761 106.926 26.0421 104.368 26.0421C101.81 26.0421 99.7189 28.0397 99.7189 30.9713C99.7189 33.7317 101.81 35.9005 104.612 35.9005C106.869 35.9005 108.176 34.5203 108.716 33.7161L107.035 32.5954C106.474 33.4152 105.712 33.96 104.607 33.96C103.501 33.96 102.723 33.4567 102.215 32.4656L108.804 29.7416L108.581 29.1812L108.586 29.176ZM101.867 30.8208C101.81 28.9166 103.341 27.9463 104.441 27.9463C105.302 27.9463 106.028 28.377 106.272 28.9893L101.867 30.8208ZM96.5071 35.5996H98.6708V21.1129H96.5071V35.5996ZM92.9581 27.1421H92.8854C92.3977 26.561 91.4689 26.0421 90.2911 26.0421C87.8265 26.0421 85.5695 28.2058 85.5695 30.9869C85.5695 33.768 87.8265 35.8953 90.2911 35.8953C91.4689 35.8953 92.4029 35.3713 92.8854 34.7746H92.9581V35.4854C92.9581 37.3689 91.9515 38.3807 90.3274 38.3807C89.0043 38.3807 88.1794 37.4312 87.8473 36.6269L85.9638 37.4104C86.5034 38.7179 87.9407 40.3212 90.3326 40.3212C92.8699 40.3212 95.018 38.8269 95.018 35.1897V26.3431H92.9633V27.1473L92.9581 27.1421ZM90.4779 33.9548C88.9836 33.9548 87.7331 32.7043 87.7331 30.9869C87.7331 29.2694 88.9836 27.9827 90.4779 27.9827C91.9722 27.9827 93.1086 29.2539 93.1086 30.9869C93.1086 32.7199 91.9515 33.9548 90.4779 33.9548ZM118.73 21.1129H113.552V35.5996H115.715V30.11H118.735C121.132 30.11 123.488 28.377 123.488 25.6115C123.488 22.8459 121.132 21.1129 118.735 21.1129H118.73ZM118.787 28.0968H115.71V23.1313H118.787C120.406 23.1313 121.319 24.47 121.319 25.6115C121.319 26.753 120.401 28.0916 118.787 28.0916V28.0968ZM132.148 26.0162C130.581 26.0162 128.962 26.7063 128.293 28.2317L130.212 29.0308C130.622 28.2317 131.385 27.9671 132.189 27.9671C133.31 27.9671 134.446 28.6364 134.462 29.8298V29.9803C134.073 29.7572 133.232 29.4199 132.205 29.4199C130.135 29.4199 128.028 30.5562 128.028 32.6836C128.028 34.6241 129.725 35.8694 131.624 35.8694C133.077 35.8694 133.881 35.2156 134.384 34.4529H134.457V35.5736H136.543V30.0218C136.543 27.4482 134.623 26.0162 132.143 26.0162H132.148ZM131.888 33.9548C131.183 33.9548 130.192 33.6019 130.192 32.7251C130.192 31.6095 131.421 31.1789 132.485 31.1789C133.435 31.1789 133.881 31.3864 134.462 31.6614C134.296 33.0053 133.139 33.9548 131.888 33.9548ZM144.149 26.3327L141.669 32.6109H141.596L139.023 26.3327H136.693L140.548 35.1118L138.348 39.9943H140.605L146.551 26.3327H144.149ZM124.676 35.5996H126.84V21.1129H124.676V35.5996Z" fill="#383838"/>
<path d="M50.5352 9.63037H52.3823C54.5096 9.63037 55.7653 10.7771 55.7653 13.0704C55.7653 15.3638 54.5096 16.5676 52.4498 16.5676H50.5352V9.63037ZM52.3045 15.5714C53.7002 15.5714 54.5045 14.7775 54.5045 13.0704C54.5045 11.3634 53.7002 10.6266 52.3045 10.6266H51.7649V15.5714H52.3045Z" fill="#383838"/>
<path d="M56.918 9.74966C56.918 9.33976 57.2397 9.05957 57.6703 9.05957C58.101 9.05957 58.4279 9.33976 58.4279 9.74966C58.4279 10.1596 58.1062 10.4397 57.6703 10.4397C57.2345 10.4397 56.918 10.1492 56.918 9.74966ZM57.0581 11.3529H58.2826V16.5623H57.0581V11.3529Z" fill="#383838"/>
<path d="M59.3125 15.966L59.8832 15.1877C60.345 15.5458 60.7913 15.7689 61.3205 15.7689C61.8912 15.7689 62.1559 15.4991 62.1559 15.1462C62.1559 14.7104 61.5903 14.5132 61.0351 14.3005C60.3502 14.0462 59.5719 13.6519 59.5719 12.7802C59.5719 11.9085 60.3035 11.2236 61.471 11.2236C62.1974 11.2236 62.7785 11.5194 63.204 11.8463L62.6436 12.5986C62.2804 12.3288 61.912 12.142 61.5021 12.142C60.9781 12.142 60.729 12.3911 60.729 12.718C60.729 13.1279 61.253 13.2887 61.8186 13.4963C62.5243 13.7609 63.3129 14.0981 63.3129 15.0684C63.3129 15.9609 62.6021 16.6873 61.2894 16.6873C60.5785 16.6873 59.8262 16.3811 59.3177 15.9609L59.3125 15.966Z" fill="#383838"/>
<path d="M64.4062 11.3533H65.4077L65.5011 11.9085H65.5374C65.9784 11.5298 66.5336 11.2236 67.1095 11.2236C68.4119 11.2236 69.159 12.2665 69.159 13.875C69.159 15.6547 68.0954 16.6873 66.9331 16.6873C66.4713 16.6873 66.0147 16.4797 65.5944 16.1113L65.6308 16.9778V18.6174H64.4062V11.343V11.3533ZM67.8982 13.8906C67.8982 12.8529 67.5609 12.2354 66.7671 12.2354C66.3883 12.2354 66.0355 12.4274 65.6308 12.8217V15.25C66.0043 15.5665 66.3727 15.6807 66.6737 15.6807C67.369 15.6807 67.8982 15.0684 67.8982 13.8906Z" fill="#383838"/>
<path d="M70.043 13.9632C70.043 12.225 71.2208 11.2236 72.5231 11.2236C73.8255 11.2236 75.0033 12.225 75.0033 13.9632C75.0033 15.7014 73.8255 16.6924 72.5231 16.6924C71.2208 16.6924 70.043 15.691 70.043 13.9632ZM73.7425 13.9632C73.7425 12.9203 73.2859 12.225 72.5179 12.225C71.75 12.225 71.2934 12.9203 71.2934 13.9632C71.2934 15.0061 71.75 15.6962 72.5179 15.6962C73.2859 15.6962 73.7425 15.0113 73.7425 13.9632Z" fill="#383838"/>
<path d="M76.207 11.353H77.2084L77.3018 12.0587H77.3382C77.8051 11.6021 78.3344 11.2285 79.0504 11.2285C80.166 11.2285 80.6537 11.9861 80.6537 13.2988V16.5676H79.4292V13.4596C79.4292 12.6035 79.1853 12.2818 78.6197 12.2818C78.1631 12.2818 77.8622 12.5049 77.4315 12.9304V16.5728H76.207V11.3634V11.353Z" fill="#383838"/>
<path d="M82.125 9.88994L83.692 8.0376L84.5325 8.84702L82.7373 10.4866L82.125 9.88475V9.88994ZM82.1406 11.3583H83.3651V16.5677H82.1406V11.3583Z" fill="#383838"/>
<path d="M84.2669 11.353H85.507L86.332 14.0563C86.4773 14.57 86.6277 15.1044 86.773 15.6285H86.8145C86.9598 15.1044 87.1103 14.57 87.2556 14.0563L88.0805 11.353H89.2584L87.489 16.5624H86.0777L84.2617 11.353H84.2669Z" fill="#383838"/>
<path d="M89.7617 13.9632C89.7617 12.2717 90.9395 11.2236 92.164 11.2236C93.5702 11.2236 94.3173 12.2406 94.3173 13.6986C94.3173 13.9321 94.2914 14.1656 94.2654 14.2901H90.9603C91.0641 15.2137 91.6556 15.7429 92.4961 15.7429C92.9423 15.7429 93.3211 15.6028 93.7051 15.3642L94.1202 16.1217C93.6221 16.459 92.9942 16.6873 92.3353 16.6873C90.898 16.6873 89.7669 15.6755 89.7669 13.958L89.7617 13.9632ZM93.2588 13.4599C93.2588 12.6557 92.9008 12.168 92.19 12.168C91.5829 12.168 91.0485 12.6246 90.9447 13.4599H93.264H93.2588Z" fill="#383838"/>
<path d="M95.4805 15.224V9.07031H96.705V15.2863C96.705 15.5872 96.8399 15.6962 96.9696 15.6962C97.0267 15.6962 97.0682 15.6962 97.1616 15.6754L97.3121 16.5886C97.1616 16.6457 96.9592 16.6924 96.6687 16.6924C95.8022 16.6924 95.4857 16.132 95.4857 15.224H95.4805Z" fill="#383838"/>
<path d="M100.469 11.353H101.47L101.564 12.0587H101.6C102.067 11.6021 102.596 11.2285 103.312 11.2285C104.428 11.2285 104.915 11.9861 104.915 13.2988V16.5676H103.691V13.4596C103.691 12.6035 103.447 12.2818 102.881 12.2818C102.425 12.2818 102.124 12.5049 101.693 12.9304V16.5728H100.469V11.3634V11.353Z" fill="#383838"/>
<path d="M106.126 15.1667C106.126 14.0511 107.05 13.47 109.188 13.2417C109.172 12.6813 108.944 12.2144 108.243 12.2144C107.724 12.2144 107.237 12.4478 106.78 12.728L106.329 11.9134C106.899 11.5554 107.641 11.2285 108.466 11.2285C109.769 11.2285 110.412 12.0328 110.412 13.4804V16.5676H109.411L109.317 15.9917H109.281C108.814 16.3912 108.28 16.6973 107.662 16.6973C106.749 16.6973 106.121 16.0799 106.121 15.1667H106.126ZM109.188 15.1667V13.9941C107.776 14.1705 107.304 14.5389 107.304 15.0681C107.304 15.5299 107.621 15.7322 108.056 15.7322C108.492 15.7322 108.804 15.5247 109.188 15.1667Z" fill="#383838"/>
<path d="M12.8288 9.62012C12.5123 9.97813 12.3203 10.5126 12.3203 11.2078V36.8137C12.3203 37.4 12.4604 37.867 12.6887 38.2198L26.89 23.8525L12.8288 9.62012Z" fill="#383838"/>
<path d="M27.3988 23.3386L31.7832 18.9023L15.2626 9.51092C14.5725 9.12177 13.9447 9.03875 13.4414 9.21517L27.404 23.3386H27.3988Z" fill="#383838"/>
<path d="M27.3993 24.3608L13.2188 38.7074C13.748 38.998 14.464 38.9616 15.2631 38.5102L31.9912 29.0047L27.3993 24.3608Z" fill="#383838"/>
<path d="M37.8386 22.3373L32.432 19.2656L27.9023 23.8472L32.6344 28.6363L37.8334 25.684C39.4522 24.7656 39.4522 23.2609 37.8334 22.3425L37.8386 22.3373Z" fill="#383838"/>
</g>
<rect x="0.980469" y="0.510742" width="154.026" height="47" rx="3.5" stroke="#383838"/>
<defs>
<clipPath id="clip0_722_8357">
<rect x="0.480469" y="0.0107422" width="155.026" height="48" rx="4" fill="white"/>
</clipPath>
</defs>
</svg>
