<svg width="62" height="61" viewBox="0 0 62 61" fill="none" xmlns="http://www.w3.org/2000/svg">
<circle cx="30.9688" cy="30.125" r="30.125" fill="#E1E664"/>
<path d="M35.9295 21.9092H28.9714C27.6118 21.9108 26.3084 22.4516 25.3471 23.4131C24.3858 24.3746 23.8451 25.6781 23.8438 27.0377V33.9958C23.8453 35.3554 24.3862 36.6589 25.3477 37.6202C26.3091 38.5815 27.6127 39.1221 28.9723 39.1235H35.9304C37.29 39.1219 38.5934 38.581 39.5547 37.6195C40.516 36.6581 41.0567 35.3546 41.058 33.995V27.0368C41.0564 25.6772 40.5156 24.3738 39.5541 23.4125C38.5927 22.4512 37.2891 21.9105 35.9295 21.9092V21.9092ZM39.3267 33.995C39.3267 34.4411 39.2388 34.8828 39.0681 35.295C38.8974 35.7072 38.6471 36.0817 38.3317 36.3971C38.0162 36.7126 37.6417 36.9628 37.2296 37.1335C36.8174 37.3043 36.3757 37.3921 35.9295 37.3921H28.9714C28.0706 37.3919 27.2067 37.0339 26.5698 36.3968C25.9329 35.7597 25.5751 34.8958 25.5751 33.995V27.0368C25.5753 26.136 25.9333 25.2721 26.5704 24.6352C27.2075 23.9983 28.0714 23.6405 28.9723 23.6405H35.9304C36.8312 23.6408 37.6951 23.9988 38.332 24.6358C38.9689 25.2729 39.3267 26.1368 39.3267 27.0377V33.9958V33.995Z" fill="#141923"/>
<path d="M32.4508 26.064C31.2708 26.0658 30.1396 26.5354 29.3053 27.3699C28.471 28.2044 28.0016 29.3356 28 30.5156C28.0014 31.6959 28.4708 32.8275 29.3053 33.6622C30.1398 34.4969 31.2713 34.9665 32.4517 34.9681C33.6321 34.9668 34.7638 34.4972 35.5986 33.6625C36.4333 32.8278 36.9028 31.6961 36.9042 30.5156C36.9024 29.3353 36.4325 28.2039 35.5976 27.3695C34.7628 26.5352 33.6311 26.066 32.4508 26.0648V26.064ZM32.4508 33.2368C31.7293 33.2368 31.0374 32.9502 30.5272 32.44C30.0171 31.9299 29.7305 31.238 29.7305 30.5165C29.7305 29.795 30.0171 29.1031 30.5272 28.5929C31.0374 28.0828 31.7293 27.7962 32.4508 27.7962C33.1723 27.7962 33.8642 28.0828 34.3743 28.5929C34.8845 29.1031 35.1711 29.795 35.1711 30.5165C35.1711 31.238 34.8845 31.9299 34.3743 32.44C33.8642 32.9502 33.1723 33.2368 32.4508 33.2368Z" fill="#141923"/>
<path d="M36.9103 27.1644C37.4994 27.1644 37.9769 26.6869 37.9769 26.0978C37.9769 25.5088 37.4994 25.0312 36.9103 25.0312C36.3213 25.0312 35.8438 25.5088 35.8438 26.0978C35.8438 26.6869 36.3213 27.1644 36.9103 27.1644Z" fill="#141923"/>
</svg>
