<svg width="61" height="61" viewBox="0 0 61 61" fill="none" xmlns="http://www.w3.org/2000/svg">
<circle cx="30.4688" cy="30.125" r="30.125" fill="#E1E664"/>
<path d="M25.7701 38.3505V27.2513H22.0809V38.3505H25.7701ZM23.926 25.735C25.2125 25.735 26.0132 24.8827 26.0132 23.8176C25.9893 22.7285 25.2125 21.8999 23.9504 21.8999C22.6885 21.8999 21.8633 22.7286 21.8633 23.8176C21.8633 24.8828 22.6638 25.735 23.9019 25.735H23.926ZM27.812 38.3505H31.5012V32.1522C31.5012 31.8205 31.5251 31.4891 31.6226 31.2519C31.8893 30.5892 32.4963 29.9027 33.5154 29.9027C34.8503 29.9027 35.3844 30.9205 35.3844 32.4126V38.3504H39.0733V31.9863C39.0733 28.577 37.2533 26.9907 34.826 26.9907C32.8359 26.9907 31.9621 28.1032 31.4766 28.8608H31.5012V27.2511H27.8121C27.8605 28.2926 27.8121 38.3503 27.8121 38.3503L27.812 38.3505Z" fill="#141923"/>
</svg>
