<svg width="192" height="44" viewBox="0 0 192 44" fill="none" xmlns="http://www.w3.org/2000/svg">
<g clip-path="url(#clip0_602_480)">
<path d="M133.28 32.957H134.6C135.276 32.957 135.695 32.5381 135.695 31.8617V16.6606C135.695 15.9854 135.276 15.5666 134.6 15.5666H133.28V12.1842H142.878C148.031 12.1842 152.12 14.7937 152.12 19.7854C152.12 24.7771 148.031 27.4182 142.878 27.4182H139.592V31.8604C139.592 32.5369 140.011 32.9557 140.72 32.9557H143.393V36.3381H133.28V32.957ZM142.587 23.8747C146.001 23.8747 147.966 22.4583 147.966 19.8133C147.966 17.1404 146.001 15.7519 142.587 15.7519H139.592V23.8747H142.587Z" fill="#141923"/>
<path d="M172.006 32.9568V36.3392H166.594V32.571C166.328 33.2343 165.947 33.8449 165.467 34.3745C164.179 35.7592 162.054 36.8545 159.509 36.8545C156.288 36.8545 154.067 34.7933 154.034 31.9262C154.034 28.191 157.19 26.9663 161.087 26.1933C163.148 25.7758 165.048 25.5181 165.886 24.6805C166.032 24.5456 166.148 24.3809 166.226 24.1974C166.304 24.014 166.341 23.816 166.336 23.6169C166.336 22.4264 165.435 21.4923 163.148 21.4923C160.475 21.4923 158.317 22.8122 158.028 24.3263V24.3898H154.872V18.7216H158.286V20.7523C159.606 19.0453 161.86 18.2406 163.986 18.2406C167.496 18.2406 169.88 20.3982 169.88 23.9405V31.8628C169.88 32.5393 170.261 32.9581 170.974 32.9581L172.006 32.9568ZM166.401 27.6757C165.628 28.3192 164.147 28.6099 162.729 28.8992C160.318 29.4145 157.995 29.8981 157.995 31.7333C157.995 32.8921 159.059 33.698 160.475 33.698C161.958 33.698 163.439 32.9898 164.537 31.8615C165.467 30.9287 166.24 29.6404 166.401 27.6757Z" fill="#141923"/>
<path d="M174.387 42.5545V39.2051C174.936 39.5858 175.837 39.8168 176.836 39.8168C178.285 39.8168 179.444 39.1086 180.378 37.4663L180.505 37.2404L174.895 22.9735C174.67 22.4264 174.252 22.1041 173.64 22.1041H173.156V18.7217H180.987V22.1041H179.474C178.798 22.1041 178.475 22.5229 178.733 23.1664L182.437 33.1181L186.236 23.2019C186.49 22.5572 186.172 22.1066 185.464 22.1066H183.982V18.7217H192.001V22.1041H191.394C190.783 22.1041 190.397 22.3579 190.139 22.9417L183.666 38.3674C182.185 41.9427 179.577 43.2627 177.32 43.2627C176.124 43.2627 174.965 42.9733 174.387 42.5545Z" fill="#141923"/>
<path d="M68.1818 36.3453V12.0835H74.1089V31.1213H85.6585V36.3389L68.1818 36.3453Z" fill="#141923"/>
<path d="M102.153 12.6903H108.536L98.5561 36.3454H93.1875L83.3107 12.6903H89.6426L95.9226 28.8991L102.153 12.6903Z" fill="#141923"/>
<path d="M111.193 4.33291C111.193 2.26033 112.966 0.737305 115.043 0.737305C117.171 0.737305 118.843 2.26033 118.843 4.33291C118.843 6.36361 117.171 7.92978 115.043 7.92978C112.966 7.92978 111.193 6.3598 111.193 4.33291ZM112.106 36.3456V12.6905H117.981V36.3456H112.106Z" fill="#141923"/>
<path d="M27.3725 11.6449C23.8962 11.6449 20.6357 12.7097 18.7611 16.4069C16.8865 12.7097 13.7478 11.6449 10.1535 11.6449C4.22766 11.6449 0 15.7482 0 22.6373V36.3445H5.8243V22.9407C5.8243 19.142 7.80042 17.1671 10.5355 17.1671C13.8278 17.1671 15.8483 19.3171 15.8483 23.7948V36.3458H21.6739V23.7809C21.6739 19.3565 23.697 17.1684 26.9867 17.1684C29.7218 17.1684 31.6967 19.1432 31.6967 22.9419V36.3458H37.5222V22.6386C37.5222 15.7482 33.2984 11.6449 27.3725 11.6449Z" fill="#141923"/>
<path d="M42.0107 26.1134V12.1841H47.9378V25.7085C47.9378 29.6087 49.6576 31.2295 52.5958 31.2295C55.5339 31.2295 57.2042 29.6087 57.2042 25.7085V12.1841H63.13V26.1134C63.13 32.7487 58.7247 36.852 52.5958 36.852C46.4212 36.852 42.0107 32.7487 42.0107 26.1134Z" fill="#141923"/>
</g>
<defs>
<clipPath id="clip0_602_480">
<rect width="192" height="42.5254" fill="white" transform="translate(0 0.737305)"/>
</clipPath>
</defs>
</svg>
