<svg width="157" height="306" viewBox="0 -5 157 306" fill="none" xmlns="http://www.w3.org/2000/svg">
<g style="mix-blend-mode:overlay" clip-path="url(#clip0_383_3821)">
<path d="M27.2834 148.639C26.8895 145.292 25.2826 142.205 22.7678 139.966C20.2529 137.726 17.0048 136.489 13.6397 136.489C10.2746 136.489 7.0266 137.726 4.51171 139.966C1.99682 142.205 0.390006 145.292 -0.00390678 148.639C0.0856953 152.183 1.55446 155.552 4.089 158.027C6.62353 160.501 10.0231 161.885 13.5624 161.884C15.3343 161.928 17.0973 161.618 18.749 160.974C20.4007 160.33 21.9083 159.364 23.1845 158.132C24.4608 156.9 25.4803 155.427 26.1839 153.797C26.8875 152.168 27.2612 150.415 27.2834 148.639ZM36.6081 137.579L36.6081 159.94L130.044 159.94L130.044 137.579L36.6081 137.579Z" fill="#4B5661"/>
<path d="M65.1676 240.392C62.5267 238.306 59.2135 237.262 55.8558 237.46C52.4981 237.657 49.3293 239.081 46.95 241.462C44.5706 243.843 43.146 247.016 42.9462 250.379C42.7463 253.742 43.7851 257.062 45.8656 259.709C48.4257 262.138 51.8296 263.474 55.3558 263.432C58.882 263.39 62.2534 261.975 64.7555 259.485C66.0465 258.266 67.0825 256.802 67.8032 255.178C68.5238 253.554 68.9147 251.802 68.9531 250.025C68.9915 248.248 68.6765 246.482 68.0266 244.828C67.3767 243.174 66.4049 241.666 65.1676 240.392ZM64.0342 226.046L79.7471 241.803L145.81 175.629L130.097 159.873L64.0342 226.046Z" fill="#4B5661"/>
<path d="M156.767 278.391C153.425 278.785 150.344 280.395 148.108 282.914C145.872 285.433 144.637 288.686 144.637 292.057C144.637 295.428 145.872 298.681 148.108 301.2C150.344 303.719 153.425 305.329 156.767 305.723C160.305 305.633 163.668 304.162 166.138 301.624C168.609 299.085 169.991 295.68 169.99 292.134C170.033 290.359 169.724 288.594 169.081 286.939C168.438 285.285 167.474 283.774 166.244 282.496C165.014 281.218 163.543 280.197 161.916 279.492C160.289 278.787 158.539 278.413 156.767 278.391ZM145.725 269.05L168.049 269.05L168.049 175.458L145.725 175.458L145.725 269.05Z" fill="#4B5661"/>
<path d="M64.6845 37.798C62.1824 35.3089 58.811 33.8933 55.2848 33.8515C51.7586 33.8098 48.3547 35.1452 45.7946 37.5744C43.8108 39.4386 42.4289 41.8544 41.8267 44.5114C41.2244 47.1684 41.4294 49.9452 42.4151 52.4846C43.4008 55.0241 45.1223 57.2102 47.3582 58.7619C49.5941 60.3136 52.2423 61.1599 54.9622 61.1921C57.6821 61.2243 60.3495 60.4408 62.6214 58.9424C64.8933 57.4441 66.6659 55.2995 67.7113 52.7841C68.7566 50.2686 69.027 47.4976 68.4876 44.827C67.9483 42.1564 66.6238 39.7086 64.6845 37.798ZM129.94 137.565L145.67 121.809L79.4873 55.5669L63.7571 71.3233L129.94 137.565Z" fill="#4B5661"/>
<path d="M169.831 5.14779C169.833 1.59968 168.448 -1.8081 165.974 -4.34734C163.5 -6.88658 160.133 -8.3557 156.591 -8.44104C153.872 -8.52327 151.189 -7.78953 148.889 -6.33392C146.588 -4.87832 144.774 -2.76742 143.68 -0.271909C142.586 2.2236 142.261 4.98974 142.747 7.6715C143.233 10.3533 144.509 12.8284 146.409 14.779C148.31 16.7296 150.749 18.0668 153.414 18.619C156.078 19.1713 158.847 18.9133 161.364 17.8782C163.881 16.8432 166.032 15.0781 167.541 12.8098C169.05 10.5415 169.847 7.87338 169.831 5.14779ZM145.567 121.824L167.805 121.824L167.805 28.232L145.567 28.232L145.567 121.824Z" fill="#4B5661"/>
</g>
<defs>
<clipPath id="clip0_383_3821">
<rect width="314" height="157" fill="white" transform="matrix(-4.37114e-08 1 1 4.37114e-08 0 -8.44629)"/>
</clipPath>
</defs>
</svg>
