<svg width="22" height="22" viewBox="0 0 22 22" fill="none" xmlns="http://www.w3.org/2000/svg">
<path d="M14.0968 5.04744H17.0443C17.2226 5.04762 17.3944 5.11396 17.5266 5.23361C17.6587 5.35326 17.7417 5.5177 17.7596 5.69508L18.1985 10.0846H16.7507L16.5708 8.28563L16.3909 6.48664H14.0968V8.64543C14.0968 8.83628 14.021 9.01931 13.886 9.15426C13.7511 9.28921 13.5681 9.36503 13.3772 9.36503C13.1864 9.36503 13.0033 9.28921 12.8684 9.15426C12.7334 9.01931 12.6576 8.83628 12.6576 8.64543V6.48664H6.90083V8.64543C6.90083 8.83628 6.82502 9.01931 6.69007 9.15426C6.55512 9.28921 6.37209 9.36503 6.18124 9.36503C5.99039 9.36503 5.80735 9.28921 5.6724 9.15426C5.53745 9.01931 5.46164 8.83628 5.46164 8.64543V6.48664H3.16612L2.01476 18.0002H9.77923V19.4394H1.21889C1.11838 19.4393 1.01901 19.4181 0.927173 19.3773C0.835338 19.3365 0.753078 19.2768 0.685692 19.2023C0.618306 19.1277 0.567289 19.0398 0.535927 18.9443C0.504566 18.8488 0.493556 18.7478 0.503607 18.6478L1.79888 5.69508C1.81671 5.5177 1.89974 5.35326 2.03189 5.23361C2.16404 5.11396 2.3359 5.04762 2.51416 5.04744H5.46164V4.54516C5.46164 2.04959 7.3844 0.0102539 9.77923 0.0102539C12.174 0.0102539 14.0968 2.04959 14.0968 4.54516V5.04888V5.04744ZM12.6576 5.04744V4.54516C12.6576 2.82676 11.3595 1.44945 9.77923 1.44945C8.19899 1.44945 6.90083 2.82676 6.90083 4.54516V5.04888H12.6576V5.04744Z" fill="#46505A"/>
<path d="M17.6944 17.3148L16.0618 16.2264V13.5054M20.9596 16.2264C20.9596 18.9313 18.7668 21.1242 16.0618 21.1242C13.3569 21.1242 11.1641 18.9313 11.1641 16.2264C11.1641 13.5214 13.3569 11.3286 16.0618 11.3286C18.7668 11.3286 20.9596 13.5214 20.9596 16.2264Z" stroke="#46505A" stroke-width="1.10055" stroke-linecap="round" stroke-linejoin="round"/>
</svg>
