<svg width="293" height="65" viewBox="0 0 293 65" fill="none" xmlns="http://www.w3.org/2000/svg">
<path d="M202.898 48.5917H204.88C205.895 48.5917 206.524 47.9723 206.524 46.9719V24.4912C206.524 23.4927 205.895 22.8733 204.88 22.8733H202.898V17.8711H217.305C225.039 17.8711 231.178 21.7302 231.178 29.1124C231.178 36.4946 225.039 40.4006 217.305 40.4006H212.372V46.97C212.372 47.9705 213.001 48.5899 214.066 48.5899H218.078V53.592H202.898V48.5917ZM216.868 35.16C221.993 35.16 224.942 33.0653 224.942 29.1537C224.942 25.2007 221.993 23.1473 216.868 23.1473H212.372V35.16H216.868Z" fill="#141923"/>
<path d="M262.435 49.1588V54.2975H253.92V48.5726C253.502 49.5803 252.901 50.5081 252.146 51.3126C250.119 53.4163 246.776 55.0803 242.772 55.0803C237.703 55.0803 234.208 51.9489 234.156 47.5931C234.156 41.9184 239.123 40.0577 245.254 38.8834C248.497 38.249 251.487 37.8576 252.805 36.585C253.036 36.3801 253.219 36.1299 253.341 35.8512C253.463 35.5725 253.522 35.2717 253.514 34.9691C253.514 33.1605 252.096 31.7413 248.497 31.7413C244.292 31.7413 240.896 33.7467 240.441 36.047V36.1434H235.474V27.5321H240.847V30.6172C242.924 28.0238 246.47 26.8013 249.816 26.8013C255.34 26.8013 259.09 30.0792 259.09 35.4608V47.4967C259.09 48.5244 259.689 49.1607 260.812 49.1607L262.435 49.1588ZM253.616 41.1356C252.4 42.1132 250.069 42.5547 247.838 42.9943C244.044 43.7772 240.389 44.5118 240.389 47.3C240.389 49.0605 242.063 50.2849 244.292 50.2849C246.624 50.2849 248.955 49.209 250.682 47.4948C252.146 46.0775 253.362 44.1204 253.616 41.1356Z" fill="#141923"/>
<path d="M265.769 62.9368V57.8584C266.592 58.4357 267.944 58.786 269.443 58.786C271.618 58.786 273.357 57.7122 274.759 55.222L274.949 54.8795L266.531 33.2479C266.194 32.4185 265.566 31.9297 264.648 31.9297H263.922V26.8013H275.673V31.9297H273.403C272.388 31.9297 271.904 32.5647 272.291 33.5404L277.848 48.6292L283.55 33.5942C283.931 32.6167 283.453 31.9335 282.39 31.9335H280.168V26.8013H292.201V31.9297H291.291C290.373 31.9297 289.794 32.3145 289.407 33.1997L279.694 56.5883C277.471 62.0092 273.557 64.0106 270.171 64.0106C268.375 64.0106 266.636 63.5718 265.769 62.9368Z" fill="#141923"/>
<path d="M104.668 53.592V17.8711H113.249V45.9007H129.97V53.5827L104.668 53.592Z" fill="#141923"/>
<path d="M155.898 17.8711H165.69L150.38 53.592H142.144L126.992 17.8711H136.706L146.34 42.3475L155.898 17.8711Z" fill="#141923"/>
<path d="M170.156 5.42121C170.156 2.3025 172.571 0.0107422 175.399 0.0107422C178.298 0.0107422 180.575 2.3025 180.575 5.42121C180.575 8.47689 178.298 10.8336 175.399 10.8336C172.571 10.8336 170.156 8.47116 170.156 5.42121ZM171.399 53.5921V17.9973H179.401V53.5921H171.399Z" fill="#141923"/>
<path d="M41.7397 16.3828C36.4998 16.3828 31.5851 17.9869 28.7595 23.5562C25.9339 17.9869 21.2029 16.3828 15.7851 16.3828C6.85292 16.3828 0.480469 22.564 0.480469 32.9417V53.5902H9.25957V33.3987C9.25957 27.6764 12.2382 24.7015 16.3609 24.7015C21.3234 24.7015 24.369 27.9402 24.369 34.6854V53.5921H33.15V34.6644C33.15 27.9995 36.1995 24.7034 41.1582 24.7034C45.2808 24.7034 48.2576 27.6783 48.2576 33.4006V53.5921H57.0386V32.9436C57.0386 22.564 50.6719 16.3828 41.7397 16.3828Z" fill="#141923"/>
<path d="M64.4805 38.8822V17.8711H73.2524V38.2715C73.2524 44.1546 75.7976 46.5994 80.1459 46.5994C84.4943 46.5994 86.9662 44.1546 86.9662 38.2715V17.8711H95.7363V38.8822C95.7363 48.891 89.2165 55.0804 80.1459 55.0804C71.0077 55.0804 64.4805 48.891 64.4805 38.8822Z" fill="#141923"/>
</svg>
