<svg width="443" height="846" viewBox="0 0 443 846" fill="none" xmlns="http://www.w3.org/2000/svg">
<g clip-path="url(#clip0_682_8818)">
<path d="M471.235 -0.0615234L553.769 199.442H504.723L451.601 67.9476L396.813 199.442H346.136L432.301 -0.0615234H471.235Z" fill="#B6BC50"/>
<path d="M428.634 900.337L346.136 700.797H395.146L448.267 832.291L503.019 700.797H553.769L467.604 900.3L428.634 900.337Z" fill="#B6BC50"/>
<path d="M116.943 753.417L199.514 553.95L234.188 588.659L178.881 719.338L310.462 665.123L346.358 700.797L144.504 780.895L116.943 753.417Z" fill="#B6BC50"/>
<path d="M146.613 116.451L345.874 199.108L311.201 233.817L180.731 178.453L234.927 310.17L199.031 346.103L118.978 144.04L146.613 116.451Z" fill="#B6BC50"/>
<path d="M0.436768 428.685L199.735 346.103V395.163L68.376 448.339L199.735 503.147V553.95L0.436768 467.696V428.685Z" fill="#B6BC50"/>
</g>
<defs>
<clipPath id="clip0_682_8818">
<rect width="442" height="846" fill="white" transform="translate(0.436768)"/>
</clipPath>
</defs>
</svg>
