<svg width="20" height="19" viewBox="0 0 20 19" fill="none" xmlns="http://www.w3.org/2000/svg">
<path d="M11.3857 8.53129C10.6504 7.79627 9.65325 7.38336 8.61356 7.38336C7.57387 7.38336 6.57674 7.79627 5.84141 8.53129L3.06837 11.3034C2.33303 12.0388 1.91992 13.0361 1.91992 14.076C1.91992 15.116 2.33303 16.1133 3.06837 16.8486C3.80371 17.584 4.80104 17.9971 5.84096 17.9971C6.88089 17.9971 7.87822 17.584 8.61356 16.8486L9.99963 15.4626M8.61334 11.4629C9.34866 12.1979 10.3458 12.6108 11.3855 12.6108C12.4252 12.6108 13.4223 12.1979 14.1576 11.4629L16.9307 8.69071C17.666 7.95537 18.0791 6.95804 18.0791 5.91811C18.0791 4.87819 17.666 3.88085 16.9307 3.14552C16.1953 2.41018 15.198 1.99707 14.1581 1.99707C13.1182 1.99707 12.1208 2.41018 11.3855 3.14552L9.99941 4.53159" stroke="#46505A" stroke-width="2" stroke-linecap="round" stroke-linejoin="round"/>
</svg>
