<svg width="21" height="30" viewBox="0 0 21 30" fill="none" xmlns="http://www.w3.org/2000/svg">
<path d="M13.2992 12.5127C12.8992 12.4127 12.4992 12.2127 12.1992 11.9127C11.8992 11.8127 11.7992 11.5127 11.7992 11.3127C11.7992 11.1127 11.8992 10.8127 12.0992 10.7127C12.3992 10.5127 12.6992 10.3127 12.9992 10.4127C13.5992 10.4127 14.0992 10.7127 14.3992 11.1127L15.2992 9.9127C14.9992 9.6127 14.6992 9.4127 14.3992 9.2127C14.0992 9.0127 13.6992 8.9127 13.2992 8.9127V7.5127H12.0992V8.9127C11.5992 9.0127 11.0992 9.3127 10.6992 9.7127C10.2992 10.2127 9.99922 10.8127 10.0992 11.4127C10.0992 12.0127 10.2992 12.6127 10.6992 13.0127C11.1992 13.5127 11.8992 13.8127 12.4992 14.1127C12.7992 14.2127 13.1992 14.4127 13.4992 14.6127C13.6992 14.8127 13.7992 15.1127 13.7992 15.4127C13.7992 15.7127 13.6992 16.0127 13.4992 16.3127C13.1992 16.6127 12.7992 16.7127 12.4992 16.7127C12.0992 16.7127 11.5992 16.6127 11.2992 16.3127C10.9992 16.1127 10.6992 15.8127 10.4992 15.5127L9.49922 16.6127C9.79922 17.0127 10.0992 17.3127 10.4992 17.6127C10.9992 17.9127 11.5992 18.2127 12.1992 18.2127V19.5127H13.2992V18.0127C13.8992 17.9127 14.3992 17.6127 14.7992 17.2127C15.2992 16.7127 15.5992 15.9127 15.5992 15.2127C15.5992 14.6127 15.3992 13.9127 14.8992 13.5127C14.3992 13.0127 13.8992 12.7127 13.2992 12.5127ZM12.6992 5.5127C8.29922 5.5127 4.69922 9.1127 4.69922 13.5127C4.69922 17.9127 8.29922 21.5127 12.6992 21.5127C17.0992 21.5127 20.6992 17.9127 20.6992 13.5127C20.6992 9.1127 17.0992 5.5127 12.6992 5.5127ZM12.6992 20.4127C8.89922 20.4127 5.79922 17.3127 5.79922 13.5127C5.79922 9.7127 8.89922 6.6127 12.6992 6.6127C16.4992 6.6127 19.5992 9.7127 19.5992 13.5127C19.5992 17.3127 16.4992 20.4127 12.6992 20.4127Z" fill="#46505A"/>
<path d="M13.0535 26.066C13.2488 25.8707 13.2488 25.5541 13.0535 25.3588L9.87152 22.1769C9.67626 21.9816 9.35968 21.9816 9.16442 22.1769C8.96916 22.3721 8.96916 22.6887 9.16442 22.884L11.9928 25.7124L9.16442 28.5408C8.96916 28.7361 8.96916 29.0527 9.16442 29.2479C9.35968 29.4432 9.67626 29.4432 9.87152 29.2479L13.0535 26.066ZM12.7 1.8125C12.9761 1.8125 13.2 1.58864 13.2 1.3125C13.2 1.03636 12.9761 0.8125 12.7 0.8125V1.8125ZM12.7 25.2124C6.23825 25.2124 1 19.9742 1 13.5125H0C0 20.5264 5.68596 26.2124 12.7 26.2124V25.2124ZM1 13.5125C1 7.05075 6.23825 1.8125 12.7 1.8125V0.8125C5.68596 0.8125 0 6.49846 0 13.5125H1Z" fill="#46505A"/>
</svg>
