<svg width="20" height="19" viewBox="0 0 20 19" fill="none" xmlns="http://www.w3.org/2000/svg">
<path d="M11.5707 10.178C11.5018 10.1091 11.4291 10.0462 11.3533 9.98927C11.4259 9.93414 11.4955 9.87349 11.5617 9.80731L14.2624 7.1066L14.2694 7.09962L14.2762 7.09246C14.4597 6.89899 14.7453 6.77712 15.0374 6.77712H15.8601L17.6657 8.59082L17.6679 8.59299C18.0402 8.96385 18.2505 9.46699 18.253 9.99245C18.2554 10.5174 18.0502 11.0219 17.6822 11.3961C17.6818 11.3965 17.6814 11.3969 17.681 11.3973L15.8781 13.2082H15.0554C14.7611 13.2082 14.4832 13.0905 14.2804 12.8877L11.5707 10.178ZM8.60784 17.6762L6.34226 15.4167C6.47785 15.3743 6.60319 15.3263 6.7196 15.2734C7.19324 15.0582 7.4673 14.7837 7.63065 14.6201C7.63564 14.6151 7.64052 14.6103 7.6453 14.6055L10.1128 12.138L12.5712 14.5965C12.9316 14.9569 13.3072 15.1972 13.6945 15.3536L11.3656 17.6762L11.3652 17.6766C10.9995 18.0419 10.5037 18.2471 9.98673 18.2471C9.46979 18.2471 8.97399 18.0419 8.60823 17.6766L8.60784 17.6762ZM11.3926 2.31795L13.7135 4.63258C13.3095 4.79062 12.9162 5.03878 12.548 5.42086L10.1128 7.85613L7.6453 5.38866C7.63856 5.38192 7.63154 5.37487 7.62423 5.36753C7.47512 5.21777 7.20765 4.94914 6.74683 4.7341C6.62873 4.67899 6.50108 4.62867 6.36251 4.58416L8.63485 2.31795L8.63523 2.31756C9.00099 1.95226 9.4968 1.74707 10.0137 1.74707C10.5307 1.74707 11.0265 1.95226 11.3922 2.31756L11.3926 2.31795ZM8.88424 9.99432C8.81088 10.0499 8.74044 10.1111 8.67355 10.178L5.95869 12.8929C5.74164 13.1029 5.46029 13.2172 5.17982 13.2172H4.15909L2.31741 11.3675L2.31659 11.3667C1.95128 11.0009 1.74609 10.5051 1.74609 9.98817C1.74609 9.47123 1.95128 8.97542 2.31659 8.60967L2.31741 8.60884L4.15909 6.75912H5.17082C5.46498 6.75912 5.74272 6.87668 5.94545 7.07921C5.94558 7.07933 5.94571 7.07946 5.94583 7.07959L8.66368 9.80643L8.66895 9.81172L8.67432 9.81691C8.7407 9.8809 8.81085 9.94011 8.88424 9.99432Z" stroke="#46505A" stroke-width="1.5"/>
</svg>
