<svg width="19" height="20" viewBox="0 0 19 20" fill="none" xmlns="http://www.w3.org/2000/svg">
<path d="M11.712 2.27272C11.7412 2.23585 11.7773 2.20511 11.8184 2.18228C11.8595 2.15944 11.9047 2.14495 11.9514 2.13966C11.9981 2.13436 12.0454 2.13835 12.0905 2.1514C12.1357 2.16445 12.1778 2.18631 12.2144 2.21571L12.9841 2.83287L10.1698 6.41466H11.9828L14.098 3.72368L15.8825 5.15327C15.9199 5.1832 15.9508 5.22037 15.9735 5.26255C15.9962 5.30473 16.0102 5.35106 16.0146 5.39876C16.019 5.44645 16.0137 5.49455 15.9991 5.54016C15.9845 5.58578 15.9608 5.62798 15.9295 5.66424L15.2824 6.41466H17.1453C17.3907 6.04391 17.4885 5.59482 17.4197 5.15559C17.3509 4.71636 17.1203 4.31874 16.7733 4.04081L13.1053 1.10326C12.922 0.956548 12.7116 0.847495 12.4861 0.782362C12.2606 0.71723 12.0244 0.697303 11.7912 0.723726C11.5579 0.75015 11.3322 0.822402 11.127 0.936332C10.9218 1.05026 10.7411 1.20362 10.5953 1.38761L6.6137 6.41466H8.43168L11.712 2.27272ZM13.1637 12.8285C12.9747 12.8285 12.7934 12.9036 12.6598 13.0373C12.5261 13.1709 12.451 13.3522 12.451 13.5412C12.451 13.7302 12.5261 13.9115 12.6598 14.0451C12.7934 14.1788 12.9747 14.2538 13.1637 14.2538H15.3017C15.4907 14.2538 15.6719 14.1788 15.8056 14.0451C15.9392 13.9115 16.0143 13.7302 16.0143 13.5412C16.0143 13.3522 15.9392 13.1709 15.8056 13.0373C15.6719 12.9036 15.4907 12.8285 15.3017 12.8285H13.1637ZM2.4739 4.2767C1.90688 4.2767 1.36308 4.50195 0.962132 4.9029C0.561186 5.30384 0.335938 5.84764 0.335938 6.41466V16.7481C0.335938 17.5987 0.673811 18.4144 1.27523 19.0158C1.87665 19.6172 2.69234 19.9551 3.54288 19.9551H15.658C16.5085 19.9551 17.3242 19.6172 17.9256 19.0158C18.5271 18.4144 18.8649 17.5987 18.8649 16.7481V10.3343C18.8649 9.48372 18.5271 8.66803 17.9256 8.06661C17.3242 7.46519 16.5085 7.12732 15.658 7.12732H2.4739C2.28489 7.12732 2.10362 7.05223 1.96998 6.91858C1.83633 6.78494 1.76124 6.60367 1.76124 6.41466C1.76124 6.22566 1.83633 6.04439 1.96998 5.91074C2.10362 5.77709 2.28489 5.70201 2.4739 5.70201H5.73785L6.87525 4.2767H2.4739ZM1.76124 16.7481V8.43147C1.98431 8.50986 2.22447 8.55262 2.4739 8.55262H15.658C16.1305 8.55262 16.5837 8.74033 16.9178 9.07445C17.2519 9.40857 17.4396 9.86174 17.4396 10.3343V16.7481C17.4396 17.2207 17.2519 17.6738 16.9178 18.0079C16.5837 18.3421 16.1305 18.5298 15.658 18.5298H3.54288C3.07036 18.5298 2.61719 18.3421 2.28307 18.0079C1.94895 17.6738 1.76124 17.2207 1.76124 16.7481Z" fill="#46505A"/>
</svg>
