<svg width="13" height="19" viewBox="0 0 13 19" fill="none" xmlns="http://www.w3.org/2000/svg">
<path d="M12.1992 1.63213L12.1992 17.2321C12.1989 17.5503 12.0723 17.8553 11.8474 18.0803C11.6224 18.3052 11.3174 18.4318 10.9992 18.4321L1.69922 18.4321C1.38107 18.4318 1.07605 18.3052 0.851085 18.0803C0.626119 17.8553 0.499575 17.5503 0.499218 17.2321L0.49922 1.63213C0.499576 1.31398 0.626121 1.00896 0.851087 0.783994C1.07605 0.559028 1.38107 0.432485 1.69922 0.432128L10.9992 0.432129C11.3174 0.432486 11.6224 0.559029 11.8474 0.783995C12.0723 1.00896 12.1989 1.31398 12.1992 1.63213ZM1.69843 17.2321L10.9992 17.2321L10.9992 1.63213L1.69922 1.63213L1.69843 17.2321Z" fill="#46505A"/>
<path d="M7.99922 2.83213L4.39922 2.83213L4.39922 4.03213L7.99922 4.03213L7.99922 2.83213ZM6.79922 14.5321L5.59922 14.5321L5.59922 15.7321L6.79922 15.7321L6.79922 14.5321Z" fill="#46505A"/>
</svg>
