<svg width="181" height="90" viewBox="0 0 181 90" fill="none" xmlns="http://www.w3.org/2000/svg">
<path d="M72.526 25.2606L78.3035 24.3931L83.5021 20.0595L83.191 16.7405L57.2167 2.43848L50.9395 3.02685L10.7101 9.94779L9.41095 12.405L8.28147 14.1569L3.34496 14.5718L1.46689 20.2047L3.63345 26.2714L5.94332 31.182L6.8107 32.338L3.0112 35.0234L1.0332 39.8492L3.63345 44.6166L11.866 48.6598L10.5668 51.5488L12.3525 56.452L16.6328 59.6371L19.086 60.1123L20.2419 62.2376L23.998 67.2935L32.8076 65.9942L37.3292 61.4626L72.526 25.2606Z" fill="white"/>
<path d="M60.2159 21.1436C66.0141 27.2762 85.483 26.9594 83.1901 16.7402C81.2498 14.5281 60.9173 5.70819 57.5685 3.30944C56.1317 2.28167 54.0651 2.9549 52.319 3.57534C52.1042 3.65089 51.9273 3.80721 51.8259 4.01108C51.7245 4.21496 51.7066 4.45033 51.7759 4.66722C53.3127 6.58698 60.1556 21.1304 60.2159 21.1436Z" fill="white"/>
<path d="M71.6275 26.1937C66.9021 26.0523 62.0241 24.5153 59.486 21.8299L59.5388 21.779C59.1975 21.3679 58.8355 20.6173 58.3547 19.6197C56.4182 15.6124 52.1077 6.68496 51.0008 5.28757L50.8669 5.11973L50.8123 4.93115C50.6855 4.46931 50.7318 3.97709 50.9424 3.54696C51.158 3.11383 51.5363 2.78365 51.9945 2.62857C52.946 2.25935 53.9339 1.99196 54.9417 1.83087C56.0863 1.68378 57.2045 1.80824 58.1567 2.49279C59.5577 3.49416 64.2566 5.76468 69.2365 8.16909C75.7456 11.3127 82.7243 14.6827 83.9442 16.0895L84.1121 16.2781L84.1686 16.5308C84.6212 18.5467 84.3289 20.2477 83.4992 21.6451C82.4961 23.3423 80.7331 24.5304 78.5759 25.2696C76.5225 25.9749 74.0901 26.2729 71.6293 26.1994M60.9455 20.4552C63.1121 22.7483 67.4358 24.0646 71.6821 24.191C73.9053 24.2588 76.0907 24.0024 77.9216 23.365C79.6488 22.7728 81.0329 21.8563 81.7701 20.6192C82.3094 19.7103 82.5244 18.5882 82.2698 17.238C80.865 16.0141 74.4031 12.9006 68.3578 9.97381C62.701 7.609 57.987 5.29888 56.9876 4.12779C56.5068 3.78457 55.8695 3.73177 55.185 3.81852C54.387 3.9522 53.6044 4.16509 52.8487 4.45404C54.3892 6.80188 58.3245 14.9505 60.163 18.7579C60.6099 19.6801 59.9424 20.078 60.4194 20.1704L60.7324 20.2345L60.9455 20.4552Z" fill="#231F20"/>
<path d="M8.74609 14.3074C8.93814 13.3782 9.40027 12.5263 10.0745 11.8587C10.7488 11.1911 11.6051 10.7374 12.5362 10.5546L50.9403 3.02648C51.8108 2.85534 52.7117 2.92802 53.5435 3.23649C54.3754 3.54497 55.1058 4.07726 55.6543 4.77463L103.074 65.0641C103.553 65.6737 103.877 66.3899 104.021 67.1519C104.164 67.9139 104.121 68.6992 103.896 69.4411L103.39 71.1043C103.175 71.8079 102.801 72.4528 102.298 72.9895C101.794 73.5263 101.175 73.9406 100.487 74.2008L64.5525 87.8409C63.6568 88.1812 62.68 88.2463 61.7471 88.0279C60.8143 87.8095 59.9678 87.3176 59.3162 86.6152L36.5267 62.0713L23.0748 39.5019C24.3005 39.0512 25.4149 38.2176 26.3558 36.9221C29.8177 32.1585 24.4306 27.1951 21.2533 24.1891C20.1333 23.1311 18.9246 22.0411 17.7065 20.9832C14.0428 17.815 10.3093 14.9863 8.74609 14.3074Z" fill="#E1E55E"/>
<path d="M7.75977 14.1049C7.99443 12.9825 8.55394 11.954 9.36865 11.1472C10.1834 10.3405 11.2173 9.79115 12.3418 9.56761L50.7459 2.04132C51.7973 1.83407 52.8855 1.92167 53.8901 2.29442C54.8948 2.66718 55.7768 3.31056 56.4386 4.15343L103.856 64.4429C104.434 65.1783 104.826 66.0423 104.998 66.9616C105.171 67.8808 105.119 68.8281 104.848 69.7232L104.342 71.3865C104.086 72.2396 103.637 73.0223 103.029 73.6737C102.422 74.3252 101.672 74.8279 100.839 75.143L64.9031 88.7774C63.8213 89.1884 62.6415 89.2671 61.5148 89.0034C60.3881 88.7396 59.3657 88.1455 58.5787 87.2971L35.7195 62.6778L22.0734 39.7746C22.7456 39.6434 23.3929 39.4066 23.9911 39.073L37.328 61.4614L60.0476 85.9317C60.5642 86.4878 61.2348 86.8771 61.9737 87.0501C62.7126 87.2231 63.4863 87.1719 64.196 86.9029L100.138 73.2685C100.681 73.0613 101.171 72.7328 101.568 72.3079C101.966 71.8831 102.261 71.3732 102.432 70.8169L102.938 69.1536C103.116 68.5659 103.15 67.9438 103.036 67.3403C102.922 66.7368 102.664 66.1697 102.283 65.6875L54.8603 5.3943C54.4254 4.84373 53.8473 4.42351 53.1894 4.17969C52.5315 3.93587 51.8193 3.87786 51.1306 4.012L12.7265 11.5383C11.9381 11.6909 11.2184 12.0894 10.6707 12.6766C10.1229 13.2637 9.77516 14.0093 9.67743 14.8064C9.04952 14.4292 8.5668 14.1973 8.28019 14.1558C8.10295 14.1332 7.92947 14.1162 7.75977 14.1049Z" fill="#231F20"/>
<path d="M26.8896 36.2808L62.9745 80.6012L103.702 66.2991L104.362 68.1906L62.3107 82.9584L25.334 37.5443L26.8896 36.2808Z" fill="#231F20"/>
<path d="M61.6503 81.6236L60.6816 87.853L62.6604 88.1608L63.6291 81.9314L61.6503 81.6236Z" fill="#231F20"/>
<path d="M38.2345 36.1407L24.2734 20.381L55.0447 13.6958L67.2596 29.0444L38.6286 36.5839L38.2345 36.1407Z" fill="white"/>
<path d="M38.29 37.7114L22.3887 19.7622L55.449 12.5811L69.0122 29.625L38.29 37.7114ZM26.1674 20.9993L38.9745 35.4541L65.5182 28.4653L54.6457 14.8101L26.1674 20.9993Z" fill="#000001"/>
<path d="M70.5949 33.5845L41.1587 42.1178L43.659 45.4783L72.5446 36.0361L70.5949 33.5845ZM39.2165 40.562L71.3435 31.3008L75.9104 37.0506L42.9123 47.8356L37.791 40.9524L39.2165 40.562Z" fill="#231F20"/>
<path d="M46.8839 54.2709L45.5451 52.7623C45.3135 52.5028 45.1495 52.1903 45.0675 51.8523C44.9855 51.5144 44.988 51.1614 45.0749 50.8247C45.1618 50.4879 45.3303 50.1778 45.5656 49.9217C45.8009 49.6657 46.0956 49.4715 46.4238 49.3565L50.2233 48.0157C50.6144 47.8783 51.0373 47.8587 51.4395 47.9593C51.8416 48.0598 52.2055 48.2762 52.486 48.5814L53.7286 49.943C53.9007 50.1303 54.0368 50.3476 54.1303 50.5842C54.2341 50.8423 54.2859 51.1183 54.2827 51.3965C54.2795 51.6747 54.2214 51.9495 54.1117 52.2052C54.002 52.4608 53.8429 52.6923 53.6436 52.8863C53.4442 53.0803 53.2084 53.233 52.9499 53.3356L49.2465 54.8178C48.8413 54.9791 48.3962 55.0113 47.9719 54.9101C47.5477 54.8088 47.1651 54.579 46.8763 54.2521M47.0385 51.4139L48.3773 52.9226C48.3914 52.9391 48.4106 52.9504 48.432 52.9546C48.4539 52.9623 48.4779 52.9623 48.4998 52.9546L52.2051 51.4724C52.2191 51.4667 52.2319 51.4584 52.2428 51.4479C52.2582 51.4332 52.2687 51.4141 52.2729 51.3932C52.2806 51.3718 52.2806 51.3485 52.2729 51.3272C52.2672 51.3137 52.2589 51.3015 52.2484 51.2913L51.0058 49.9298C50.9909 49.9141 50.9718 49.9029 50.9508 49.8976C50.9297 49.8922 50.9076 49.8929 50.887 49.8996L47.0875 51.2404C47.0735 51.2452 47.0606 51.253 47.0498 51.2631C47.0331 51.2769 47.0207 51.2952 47.014 51.3159C47.0075 51.338 47.0075 51.3616 47.014 51.3838C47.0192 51.4031 47.0304 51.4203 47.046 51.4328L47.0385 51.4139Z" fill="#231F20"/>
<path d="M56.0021 50.9623L54.6633 49.4536C54.4793 49.2482 54.3377 49.0086 54.2466 48.7483C54.1092 48.3514 54.0917 47.9228 54.1963 47.516C54.3009 47.1092 54.523 46.7422 54.8349 46.4608C55.0413 46.2787 55.2807 46.1379 55.5401 46.046L59.3396 44.707C59.7307 44.5689 60.1537 44.5489 60.5561 44.6495C60.9584 44.7501 61.3223 44.9669 61.6023 45.2728L62.8468 46.6343C63.0175 46.8227 63.1535 47.0397 63.2485 47.2755C63.3523 47.5336 63.4041 47.8097 63.4009 48.0879C63.3977 48.3661 63.3396 48.6409 63.2299 48.8965C63.1203 49.1522 62.9611 49.3837 62.7618 49.5776C62.5624 49.7716 62.3266 49.9243 62.0681 50.0269L58.3629 51.5092C57.958 51.6709 57.513 51.7033 57.089 51.602C56.6649 51.5007 56.2826 51.2707 55.9945 50.9434M56.1548 48.1147L57.4936 49.6234C57.5081 49.6398 57.5271 49.6516 57.5483 49.6573C57.5709 49.6649 57.5954 49.6649 57.618 49.6573L61.3289 48.1769C61.3431 48.1724 61.356 48.1647 61.3666 48.1543C61.3827 48.1391 61.3939 48.1194 61.3987 48.0977C61.4045 48.0768 61.4045 48.0546 61.3987 48.0336C61.3924 48.0199 61.3841 48.0072 61.3742 47.9959L60.1297 46.6343C60.1159 46.6187 60.0973 46.6081 60.0769 46.6042C60.0554 46.5975 60.0324 46.5975 60.0109 46.6042L56.2038 47.945C56.19 47.9503 56.1773 47.9579 56.1661 47.9676C56.1495 47.9803 56.1375 47.9983 56.1322 48.0185C56.1256 48.0407 56.1256 48.0643 56.1322 48.0864C56.1406 48.1002 56.1507 48.1129 56.1624 48.1241L56.1548 48.1147Z" fill="#231F20"/>
<path d="M64.9436 47.8233L63.6048 46.3146C63.4224 46.1091 63.2816 45.8702 63.1899 45.6112C63.0525 45.2143 63.035 44.7857 63.1397 44.3789C63.2443 43.9721 63.4664 43.6051 63.7782 43.3237C63.9843 43.1412 64.2238 43.0003 64.4835 42.9088L68.283 41.5756C68.6741 41.438 69.097 41.4182 69.4992 41.5188C69.9015 41.6194 70.2653 41.8358 70.5457 42.1413L71.7902 43.5029C72.0227 43.755 72.1903 44.0601 72.2784 44.3916C72.3665 44.7231 72.3724 45.0711 72.2957 45.4055C72.219 45.7398 72.062 46.0504 71.8382 46.3103C71.6144 46.5703 71.3306 46.7718 71.0114 46.8973L67.3081 48.3796C66.9028 48.5403 66.4578 48.5723 66.0337 48.471C65.6096 48.3698 65.2269 48.1403 64.9379 47.8138M65.1001 44.9851L66.4369 46.4938C66.4521 46.5094 66.4709 46.5211 66.4916 46.5277C66.5144 46.5345 66.5386 46.5345 66.5614 46.5277L70.2666 45.0455C70.2798 45.0402 70.292 45.0325 70.3024 45.0228C70.3188 45.0078 70.33 44.988 70.3345 44.9663C70.3412 44.9448 70.3412 44.9218 70.3345 44.9003C70.3288 44.8868 70.3205 44.8746 70.31 44.8644L69.0655 43.5029C69.0514 43.4872 69.033 43.4761 69.0127 43.4708C68.9917 43.4652 68.9696 43.4652 68.9486 43.4708L65.1491 44.8116C65.1349 44.815 65.1218 44.8222 65.1114 44.8324C65.095 44.8466 65.0827 44.8648 65.0755 44.8852C65.069 44.9073 65.069 44.9309 65.0755 44.9531C65.0834 44.9656 65.0937 44.9765 65.1057 44.9851H65.1001Z" fill="#231F20"/>
<path d="M73.8036 44.6796L72.4648 43.1709C72.2328 42.9116 72.0683 42.5991 71.9859 42.261C71.9036 41.9229 71.9058 41.5697 71.9925 41.2327C72.0792 40.8957 72.2477 40.5853 72.483 40.329C72.7184 40.0727 73.0133 39.8784 73.3416 39.7633L77.1411 38.4243C77.5322 38.2862 77.9552 38.2662 78.3575 38.3668C78.7599 38.4674 79.1238 38.6842 79.4038 38.9901L80.6464 40.3516C80.8185 40.5389 80.9546 40.7563 81.0481 40.9928C81.2076 41.393 81.2417 41.8323 81.1457 42.2523C81.0497 42.6724 80.8282 43.0533 80.5107 43.3444C80.3225 43.5148 80.1054 43.6502 79.8696 43.7442L76.1644 45.2265C75.7605 45.3895 75.316 45.4236 74.892 45.324C74.4679 45.2244 74.0851 44.996 73.796 44.6701M73.9563 41.832L75.2951 43.3406C75.3096 43.3571 75.3286 43.3689 75.3498 43.3746C75.3718 43.3822 75.3957 43.3822 75.4177 43.3746L79.1229 41.8923C79.1365 41.8866 79.1492 41.879 79.1606 41.8697C79.1767 41.8548 79.1873 41.8348 79.1908 41.8131C79.1974 41.7916 79.1974 41.7686 79.1908 41.7471C79.1844 41.7341 79.1761 41.722 79.1662 41.7113L77.9217 40.3497C77.908 40.3341 77.8894 40.3235 77.8689 40.3196C77.8475 40.3129 77.8244 40.3129 77.8029 40.3196L74.0035 41.6604C73.9899 41.6653 73.9772 41.6723 73.9657 41.6811C73.9493 41.6949 73.9375 41.7133 73.9318 41.7339C73.9252 41.7561 73.9252 41.7797 73.9318 41.8018C73.9397 41.8171 73.9506 41.8305 73.9639 41.8414L73.9563 41.832Z" fill="#231F20"/>
<path d="M51.4899 60.7534L50.1512 59.2447C49.9672 59.0393 49.8256 58.7997 49.7344 58.5394C49.6416 58.2772 49.6015 57.9992 49.6163 57.7214C49.6311 57.4436 49.7006 57.1715 49.8207 56.9206C49.9409 56.6698 50.1094 56.4451 50.3166 56.2595C50.5237 56.0738 50.7655 55.9309 51.028 55.8389L54.8275 54.4981C55.2186 54.3608 55.6415 54.3411 56.0436 54.4417C56.4458 54.5423 56.8097 54.7586 57.0902 55.0639L58.3328 56.4254C58.5051 56.6118 58.6413 56.8286 58.7344 57.0647C58.8943 57.4649 58.9285 57.9042 58.8325 58.3243C58.7365 58.7444 58.5148 59.1253 58.197 59.4163C58.0089 59.5873 57.7918 59.7233 57.5559 59.818L53.8507 61.3002C53.4458 61.4617 53.0009 61.494 52.5769 61.3927C52.153 61.2914 51.7707 61.0615 51.4824 60.7345M51.6427 57.8964L52.9815 59.405C52.9955 59.4216 53.0148 59.4329 53.0361 59.4371C53.0583 59.4438 53.0819 59.4438 53.104 59.4371L56.8092 57.9548C56.8233 57.9491 56.8361 57.9408 56.847 57.9303C56.8627 57.9158 56.8733 57.8966 56.8771 57.8756C56.8838 57.8541 56.8838 57.8311 56.8771 57.8096C56.8706 57.7961 56.8616 57.784 56.8507 57.7738L55.6081 56.4122C55.594 56.3966 55.5757 56.3854 55.5553 56.3802C55.5337 56.3745 55.5109 56.3745 55.4893 56.3802L51.6898 57.721C51.6758 57.7258 51.6629 57.7335 51.6521 57.7436C51.6353 57.757 51.6234 57.7756 51.6182 57.7964C51.6116 57.8186 51.6116 57.8421 51.6182 57.8643C51.6242 57.8829 51.6338 57.9002 51.6464 57.9152L51.6427 57.8964Z" fill="#231F20"/>
<path d="M60.6023 57.4428L59.2635 55.9341C59.0806 55.728 58.9391 55.4885 58.8468 55.2288C58.7103 54.8316 58.6935 54.4031 58.7985 53.9965C58.9034 53.5898 59.1254 53.2229 59.437 52.9413C59.6431 52.7588 59.8826 52.6179 60.1422 52.5265L63.9341 51.1932C64.3252 51.0548 64.7483 51.0347 65.1507 51.1353C65.5531 51.2359 65.9169 51.4528 66.1969 51.7589L67.4414 53.1205C67.6121 53.3088 67.7481 53.5259 67.843 53.7617C68.0015 54.1622 68.0349 54.6014 67.9386 55.0212C67.8423 55.4411 67.6209 55.8219 67.3037 56.1133C67.1161 56.2845 66.8989 56.42 66.6626 56.5131L62.9574 57.9953C62.5535 58.1581 62.1091 58.1921 61.6851 58.0925C61.2611 57.9929 60.8783 57.7646 60.5891 57.439M60.7494 54.6009L62.0881 56.1095C62.103 56.1256 62.1219 56.1373 62.1428 56.1434C62.1655 56.1511 62.19 56.1511 62.2126 56.1434L65.9178 54.6612C65.931 54.6559 65.9432 54.6482 65.9536 54.6386C65.9697 54.6233 65.9809 54.6036 65.9857 54.582C65.9923 54.5611 65.9923 54.5387 65.9857 54.5179C65.9801 54.5038 65.9717 54.491 65.9612 54.4802L64.7167 53.1186C64.7029 53.103 64.6843 53.0924 64.6639 53.0884C64.643 53.0818 64.6206 53.0818 64.5998 53.0884L60.8003 54.4292C60.7863 54.4346 60.773 54.4415 60.7607 54.45C60.7448 54.4642 60.7331 54.4825 60.7267 54.5028C60.7193 54.5248 60.7193 54.5487 60.7267 54.5707C60.7361 54.5844 60.7483 54.596 60.7626 54.6046L60.7494 54.6009Z" fill="#231F20"/>
<path d="M69.5429 54.3027L68.206 52.794C67.9744 52.5356 67.8104 52.2238 67.7288 51.8865C67.6472 51.5491 67.6505 51.1968 67.7384 50.8611C67.8226 50.5232 67.9896 50.2117 68.2244 49.9546C68.4591 49.6975 68.7541 49.5028 69.0828 49.3882L72.8823 48.0474C73.2735 47.9101 73.6963 47.8905 74.0985 47.991C74.5007 48.0916 74.8646 48.3079 75.1451 48.6132L76.3877 49.9747C76.6181 50.2274 76.7839 50.5321 76.8709 50.8628C76.9579 51.1935 76.9636 51.5404 76.8874 51.8737C76.8126 52.208 76.6571 52.5188 76.4346 52.7792C76.2121 53.0395 75.9293 53.2414 75.6108 53.3673L71.9056 54.8496C71.5004 55.0109 71.0552 55.0431 70.631 54.9418C70.2067 54.8406 69.8241 54.6108 69.5354 54.2838M69.6975 51.4551L71.0363 52.9637C71.0508 52.9802 71.0698 52.992 71.091 52.9977C71.1131 53.0044 71.1368 53.0044 71.1589 52.9977L74.8698 51.5173C74.8834 51.5116 74.8961 51.504 74.9075 51.4947C74.9233 51.4795 74.9338 51.4597 74.9376 51.4381C74.9443 51.4166 74.9443 51.3936 74.9376 51.3721C74.9305 51.3591 74.9216 51.347 74.9112 51.3363L73.6686 49.9747C73.654 49.9585 73.6349 49.9471 73.6136 49.9421C73.5924 49.937 73.5702 49.9386 73.5498 49.9464L69.7503 51.2854C69.7363 51.2902 69.7235 51.2979 69.7126 51.308C69.6963 51.3222 69.684 51.3404 69.6768 51.3608C69.6712 51.3831 69.6712 51.4064 69.6768 51.4287C69.6835 51.4431 69.6932 51.4559 69.7051 51.4664L69.6975 51.4551Z" fill="#231F20"/>
<path d="M78.4042 51.1604L77.0654 49.6518C76.8337 49.3934 76.6698 49.0815 76.5882 48.7442C76.5065 48.4069 76.5098 48.0546 76.5978 47.7188C76.6819 47.3806 76.8491 47.0688 77.0842 46.8116C77.3193 46.5544 77.6148 46.36 77.9441 46.246L81.7436 44.9071C82.1346 44.7687 82.5577 44.7486 82.9601 44.8492C83.3625 44.9498 83.7264 45.1667 84.0063 45.4728L85.2508 46.8344C85.4215 47.0227 85.5575 47.2398 85.6525 47.4755C85.811 47.8761 85.8443 48.3153 85.748 48.7351C85.6517 49.155 85.4304 49.5357 85.1132 49.8271C84.9256 49.9983 84.7083 50.1338 84.4721 50.2269L80.7669 51.7092C80.3627 51.8709 79.9187 51.9042 79.4949 51.8047C79.0712 51.7052 78.6884 51.4776 78.3985 51.1529M78.5588 48.3242L79.8976 49.8328C79.9124 49.8489 79.9313 49.8606 79.9523 49.8667C79.9751 49.8734 79.9993 49.8734 80.022 49.8667L83.7348 48.3732C83.7486 48.3679 83.7614 48.3602 83.7725 48.3506C83.7882 48.335 83.7993 48.3154 83.8046 48.294C83.8102 48.2723 83.8102 48.2496 83.8046 48.228C83.7982 48.2149 83.7899 48.2028 83.7801 48.1921L82.5356 46.8306C82.5218 46.815 82.5032 46.8044 82.4828 46.8004C82.4613 46.7937 82.4383 46.7937 82.4168 46.8004L78.6173 48.1412C78.6035 48.1458 78.5908 48.1529 78.5796 48.162C78.5637 48.1762 78.552 48.1945 78.5456 48.2148C78.5381 48.2368 78.5381 48.2607 78.5456 48.2827C78.5493 48.2969 78.5557 48.3104 78.5645 48.3223L78.5588 48.3242Z" fill="#231F20"/>
<path d="M56.0016 66.845L54.6628 65.3364C54.4789 65.131 54.3373 64.8913 54.2461 64.6311C54.1543 64.3696 54.1149 64.0925 54.1302 63.8158C54.1455 63.539 54.2152 63.268 54.3353 63.0182C54.4555 62.7685 54.6237 62.5448 54.8303 62.3601C55.037 62.1755 55.278 62.0333 55.5397 61.9419L59.3392 60.6011C59.7302 60.463 60.1533 60.443 60.5556 60.5436C60.9579 60.6442 61.3218 60.8609 61.6019 61.1668L62.8464 62.5284C63.0171 62.7167 63.1531 62.9338 63.248 63.1696C63.3518 63.4277 63.4036 63.7037 63.4004 63.9819C63.3973 64.2601 63.3392 64.5349 63.2295 64.7906C63.1198 65.0462 62.9607 65.2777 62.7613 65.4717C62.5619 65.6657 62.3262 65.8184 62.0676 65.921L58.3699 67.4108C57.9651 67.5725 57.5201 67.6049 57.0961 67.5036C56.672 67.4023 56.2897 67.1723 56.0016 66.845ZM56.1619 64.0163L57.5007 65.5249C57.515 65.5416 57.5341 65.5534 57.5554 65.5589C57.578 65.5665 57.6025 65.5665 57.6251 65.5589L61.3285 64.0785C61.3424 64.0726 61.3551 64.0643 61.3662 64.054C61.3823 64.0388 61.3934 64.0191 61.3982 63.9974C61.404 63.9765 61.404 63.9543 61.3982 63.9333C61.3919 63.9196 61.3837 63.9069 61.3737 63.8956L60.1292 62.534C60.115 62.519 60.0966 62.5085 60.0764 62.5039C60.0549 62.4972 60.0319 62.4972 60.0104 62.5039L56.2034 63.8277C56.1896 63.833 56.1768 63.8406 56.1657 63.8503C56.149 63.8631 56.1371 63.881 56.1317 63.9013C56.1243 63.9233 56.1243 63.9471 56.1317 63.9691C56.1378 63.9871 56.1482 64.0033 56.1619 64.0163Z" fill="#231F20"/>
<path d="M65.1193 63.5371L63.7805 62.0284C63.5982 61.8229 63.4574 61.584 63.3657 61.325C63.2283 60.9281 63.2108 60.4995 63.3155 60.0927C63.4201 59.6859 63.6422 59.3189 63.954 59.0375C64.1601 58.855 64.3996 58.7141 64.6592 58.6226L68.4606 57.2875C68.8517 57.1499 69.2747 57.1301 69.6769 57.2307C70.0791 57.3313 70.443 57.5477 70.7234 57.8532L71.9679 59.2148C72.1995 59.4673 72.3663 59.7724 72.4539 60.1037C72.5415 60.435 72.5472 60.7827 72.4706 61.1167C72.3939 61.4507 72.2372 61.7611 72.014 62.0211C71.7908 62.2812 71.5077 62.483 71.1891 62.6093L67.4858 64.0915C67.0805 64.2528 66.6354 64.285 66.2111 64.1838C65.7869 64.0825 65.4043 63.8527 65.1156 63.5258M65.2777 60.697L66.6146 62.2057C66.6298 62.2213 66.6485 62.233 66.6693 62.2396C66.6921 62.2464 66.7163 62.2464 66.7391 62.2396L70.4443 60.7574C70.4575 60.7521 70.4696 60.7444 70.4801 60.7348C70.4965 60.7197 70.5077 60.6999 70.5122 60.6782C70.5188 60.6567 70.5188 60.6337 70.5122 60.6122C70.5065 60.5987 70.4981 60.5865 70.4877 60.5763L69.2431 59.2148C69.2291 59.1992 69.2107 59.188 69.1904 59.1827C69.1695 59.1762 69.1471 59.1762 69.1262 59.1827L65.3267 60.5217C65.3124 60.5269 65.299 60.5346 65.2872 60.5443C65.2716 60.5587 65.2599 60.5769 65.2532 60.5971C65.2467 60.6192 65.2467 60.6428 65.2532 60.665C65.2598 60.6784 65.2695 60.69 65.2815 60.6989L65.2777 60.697Z" fill="#231F20"/>
<path d="M74.0627 60.3996L72.7239 58.8909C72.54 58.6855 72.3983 58.4459 72.3072 58.1856C72.1713 57.79 72.1546 57.3632 72.2592 56.9582C72.3638 56.5532 72.5851 56.1879 72.8955 55.9076C73.1007 55.7238 73.3404 55.5828 73.6007 55.4927L77.4002 54.1519C77.7913 54.0138 78.2143 53.9938 78.6167 54.0944C79.019 54.195 79.3829 54.4117 79.663 54.7176L80.9056 56.0792C81.0776 56.2665 81.2138 56.4838 81.3072 56.7203C81.467 57.1205 81.5012 57.5599 81.4052 57.98C81.3092 58.4001 81.0876 58.7809 80.7698 59.072C80.5817 59.2429 80.3646 59.3789 80.1287 59.4736L76.4235 60.954C76.0196 61.1171 75.5751 61.1512 75.1511 61.0516C74.727 60.952 74.3442 60.7235 74.0552 60.3977M74.2154 57.5595L75.5542 59.0682C75.5677 59.0858 75.5871 59.0979 75.6089 59.1021C75.631 59.1088 75.6547 59.1088 75.6768 59.1021L79.3971 57.6142C79.4111 57.6085 79.4239 57.6002 79.4348 57.5897C79.4505 57.5753 79.4611 57.556 79.465 57.535C79.4716 57.5135 79.4716 57.4905 79.465 57.469C79.459 57.4557 79.4507 57.4435 79.4405 57.4332L78.196 56.0697C78.1817 56.0547 78.1633 56.0442 78.1432 56.0396C78.1217 56.0329 78.0987 56.0329 78.0772 56.0396L74.2777 57.3804C74.2636 57.3852 74.2508 57.3929 74.2399 57.403C74.2228 57.4161 74.2108 57.4348 74.206 57.4558C74.1994 57.4773 74.1994 57.5003 74.206 57.5218C74.2094 57.5359 74.2151 57.5493 74.223 57.5614L74.2154 57.5595Z" fill="#231F20"/>
<path d="M82.9207 57.2562L81.5819 55.7476C81.3503 55.4888 81.1865 55.1766 81.1052 54.8389C81.0239 54.5012 81.0277 54.1486 81.1162 53.8127C81.2008 53.4753 81.368 53.1643 81.6027 52.9075C81.8374 52.6508 82.1322 52.4564 82.4606 52.3418L86.2601 51.0048C86.6512 50.8672 87.0741 50.8474 87.4764 50.948C87.8786 51.0486 88.2425 51.265 88.5228 51.5705L89.7673 52.9321C89.9982 53.1844 90.1642 53.4892 90.251 53.82C90.3377 54.1509 90.3426 54.4979 90.2651 54.8311C90.1894 55.1649 90.0337 55.4753 89.8113 55.7355C89.5889 55.9957 89.3065 56.1979 88.9886 56.3246L85.2834 57.8069C84.8784 57.9681 84.4336 58.0002 84.0097 57.8989C83.5857 57.7977 83.2035 57.5679 82.915 57.2412M83.0753 54.4124L84.4141 55.9211C84.4288 55.9368 84.4478 55.948 84.4688 55.9531C84.4916 55.9598 84.5158 55.9598 84.5385 55.9531L88.2438 54.4709C88.2574 54.4656 88.2697 54.4572 88.2796 54.4464C88.2956 54.4319 88.3068 54.4128 88.3116 54.3917C88.3167 54.3738 88.3167 54.3548 88.3117 54.3368C88.3068 54.3189 88.2969 54.3026 88.2834 54.2899L87.0389 52.9283C87.0248 52.9127 87.0064 52.9015 86.9861 52.8962C86.9651 52.8906 86.9429 52.8906 86.9219 52.8962L83.1225 54.2371C83.1081 54.2423 83.0947 54.25 83.0829 54.2597C83.0666 54.2736 83.0548 54.2919 83.0489 54.3125C83.0424 54.3347 83.0424 54.3582 83.0489 54.3804C83.0566 54.3952 83.0676 54.4081 83.081 54.4181L83.0753 54.4124Z" fill="#231F20"/>
<path d="M64.1342 76.9428L59.2882 71.8511L59.2637 71.8285C59.0322 71.5688 58.8682 71.2561 58.7862 70.9181C58.7042 70.58 58.7068 70.2269 58.7937 69.8901C58.8805 69.5532 59.049 69.2429 59.2842 68.9867C59.5195 68.7304 59.8142 68.5361 60.1424 68.4208L63.9419 67.0819C64.333 66.9435 64.7561 66.9234 65.1585 67.024C65.5608 67.1246 65.9247 67.3415 66.2046 67.6476L70.9601 72.6016L70.979 72.6205C71.2115 72.8726 71.3791 73.1777 71.4672 73.5092C71.5553 73.8407 71.5612 74.1887 71.4845 74.5231C71.4078 74.8574 71.2508 75.168 71.027 75.428C70.8032 75.6879 70.5194 75.8894 70.2002 76.015L66.4969 77.4972C66.0946 77.6592 65.6522 77.6935 65.2298 77.5953C64.8051 77.4947 64.4214 77.2663 64.1305 76.9409L64.1342 76.9428ZM60.7628 70.4933L65.6088 75.585L65.6333 75.6076C65.6478 75.6241 65.6668 75.6359 65.688 75.6416C65.7108 75.6482 65.735 75.6482 65.7578 75.6416L69.463 74.1593C69.4766 74.1536 69.4893 74.146 69.5007 74.1367C69.5162 74.1213 69.5267 74.1016 69.5309 74.0801C69.5375 74.0593 69.5375 74.0369 69.5309 74.016C69.5252 74.0019 69.5169 73.9891 69.5063 73.9783L64.7527 69.0261L64.732 69.0054C64.7182 68.9898 64.6996 68.9792 64.6792 68.9752C64.6583 68.9686 64.6359 68.9686 64.6151 68.9752L60.8156 70.316C60.8012 70.3213 60.7878 70.3289 60.776 70.3387C60.7587 70.3525 60.7465 70.3716 60.741 70.393C60.7356 70.4144 60.7373 70.4371 60.7458 70.4575C60.7509 70.4714 60.7586 70.4842 60.7684 70.4952L60.7628 70.4933Z" fill="#231F20"/>
<path d="M69.7187 70.0192L68.3818 68.5105C68.1501 68.2521 67.9862 67.9403 67.9046 67.603C67.823 67.2656 67.8263 66.9133 67.9142 66.5776C68.0189 66.1715 68.2413 65.8054 68.5534 65.5253C68.759 65.3421 68.9986 65.2011 69.2586 65.1104L73.0581 63.7696C73.4493 63.6322 73.8721 63.6126 74.2743 63.7132C74.6765 63.8137 75.0403 64.0301 75.3208 64.3353L76.5635 65.6969C76.7958 65.9493 76.9633 66.2543 77.0517 66.5857C77.14 66.9172 77.1466 67.2652 77.0707 67.5997C76.995 67.9335 76.8392 68.2439 76.6168 68.5041C76.3944 68.7643 76.1121 68.9665 75.7941 69.0933L72.0889 70.5755C71.6837 70.7368 71.2385 70.769 70.8143 70.6678C70.3901 70.5665 70.0074 70.3367 69.7187 70.0098M69.8809 67.1716L71.2197 68.6803C71.2337 68.6968 71.253 68.7081 71.2743 68.7123C71.2963 68.7199 71.3202 68.7199 71.3422 68.7123L75.0474 67.2301C75.0615 67.2244 75.0743 67.2161 75.0851 67.2056C75.1006 67.1909 75.1111 67.1718 75.1153 67.1509C75.122 67.1294 75.122 67.1064 75.1153 67.0849C75.1081 67.0718 75.0993 67.0598 75.0889 67.049L73.8463 65.6875C73.8316 65.6726 73.8135 65.6616 73.7935 65.6554C73.772 65.6487 73.749 65.6487 73.7275 65.6554L69.928 66.9943C69.914 66.9992 69.9011 67.0069 69.8903 67.017C69.8736 67.0308 69.8612 67.0491 69.8545 67.0698C69.848 67.0919 69.848 67.1155 69.8545 67.1377C69.8591 67.1543 69.8683 67.1693 69.8809 67.181V67.1716Z" fill="#231F20"/>
<path d="M78.6646 66.8811L77.3258 65.3724C77.0938 65.1131 76.9293 64.8006 76.8471 64.4625C76.7648 64.1245 76.7672 63.7713 76.8541 63.4344C76.9411 63.0975 77.1098 62.7873 77.3453 62.5312C77.5809 62.2752 77.876 62.0813 78.2045 61.9666L82.004 60.6258C82.395 60.4875 82.8181 60.4673 83.2205 60.5679C83.6229 60.6686 83.9868 60.8854 84.2667 61.1916L85.5112 62.5531C85.6819 62.7414 85.8179 62.9585 85.9128 63.1943C86.0719 63.5947 86.1055 64.0341 86.0092 64.454C85.9129 64.874 85.6912 65.2548 85.3736 65.5459C85.186 65.7171 84.9687 65.8526 84.7325 65.9457L81.0272 67.4279C80.6233 67.5907 80.1789 67.6247 79.7549 67.5251C79.331 67.4255 78.9481 67.1973 78.6589 66.8716M78.8192 64.0335L80.158 65.5421C80.1718 65.5594 80.1911 65.5714 80.2127 65.5761C80.2354 65.5827 80.2596 65.5827 80.2824 65.5761L83.9857 64.0938C83.9996 64.0879 84.0124 64.0796 84.0235 64.0693C84.0395 64.0541 84.0507 64.0344 84.0555 64.0127C84.0604 63.9951 84.0604 63.9764 84.0554 63.9588C84.0504 63.9412 84.0407 63.9253 84.0272 63.9128L82.7827 62.5493C82.7685 62.5343 82.7501 62.5238 82.7299 62.5192C82.7084 62.5125 82.6854 62.5125 82.6639 62.5192L78.8644 63.86C78.8509 63.8657 78.8382 63.8733 78.8267 63.8826C78.8101 63.8962 78.7983 63.9147 78.7928 63.9354C78.7853 63.9568 78.7853 63.9801 78.7928 64.0014C78.8023 64.0183 78.8159 64.0326 78.8324 64.0429L78.8192 64.0335Z" fill="#231F20"/>
<path d="M90.3341 67.0728L86.1857 62.2357C85.9542 61.9763 85.7901 61.6638 85.7081 61.3258C85.6261 60.9878 85.6287 60.6349 85.7155 60.2981C85.8024 59.9614 85.9709 59.6513 86.2062 59.3952C86.4415 59.1391 86.7362 58.945 87.0644 58.83L90.8639 57.4891C91.255 57.3515 91.6779 57.3318 92.0802 57.4324C92.4824 57.5329 92.8463 57.7494 93.1266 58.0549L93.1436 58.0737L97.1958 62.7656C97.3665 62.954 97.5024 63.1711 97.5974 63.4068C97.7565 63.8073 97.7901 64.2466 97.6938 64.6666C97.5975 65.0866 97.3758 65.4673 97.0581 65.7584C96.8705 65.9296 96.6533 66.0651 96.417 66.1582L92.7118 67.6405C92.3069 67.8022 91.8619 67.8346 91.4379 67.7333C91.0139 67.632 90.6316 67.402 90.3435 67.0747L90.3341 67.0728ZM87.6942 60.9176L91.8425 65.7547C91.8563 65.7719 91.8756 65.7839 91.8972 65.7886C91.92 65.7953 91.9442 65.7953 91.967 65.7886L95.6722 64.3064C95.6859 64.3011 95.6982 64.2927 95.708 64.2818C95.7241 64.2666 95.7353 64.2469 95.7401 64.2253C95.7467 64.2044 95.7467 64.182 95.7401 64.1612C95.7348 64.1475 95.7264 64.1352 95.7156 64.1253L95.7005 64.1046L91.654 59.4089C91.639 59.3932 91.62 59.382 91.5989 59.3767C91.5779 59.3713 91.5558 59.372 91.5352 59.3787L87.7357 60.7195C87.7217 60.7244 87.7088 60.7321 87.698 60.7422C87.6813 60.756 87.6689 60.7743 87.6621 60.795C87.6556 60.8171 87.6556 60.8407 87.6621 60.8629C87.6678 60.8763 87.6762 60.8885 87.6867 60.8987L87.6942 60.9176Z" fill="#231F20"/>
<path d="M80.3018 14.8343C77.8505 16.639 74.5809 19.8996 73.4514 19.4394C69.8876 17.993 63.5105 11.9433 68.8958 9.67659C69.0561 9.6087 69.2729 9.52573 69.5312 9.42578C73.5344 11.3606 77.6243 13.3464 80.3018 14.8343Z" fill="white"/>
<path d="M77.4546 15.8271C77.7959 15.5443 78.1372 15.2614 78.4766 14.988C77.4395 14.4392 76.2478 13.8357 74.9656 13.1983C73.1328 12.2856 71.2887 11.403 69.4879 10.5205L69.2862 10.5997C68.82 10.7645 68.4052 11.0486 68.0832 11.4238C67.7852 11.816 67.7551 12.312 67.9059 12.8476C68.0945 13.5321 68.5621 14.2732 69.173 14.9955C70.493 16.5513 72.4012 17.9336 73.8192 18.5107C74.0756 18.6144 75.7576 17.2226 77.4471 15.8271M80.8921 15.6386C80.2472 16.1138 79.4854 16.7437 78.7255 17.3716C76.5759 19.1499 74.4301 20.9226 73.0687 20.3701C71.3962 19.6912 69.1598 18.0845 67.6438 16.2892C66.8613 15.3632 66.2522 14.3675 65.9769 13.3888C65.6583 12.2573 65.7639 11.1692 66.4898 10.2131C67.0229 9.5604 67.7189 9.06013 68.5074 8.76289C68.6507 8.70254 68.7488 8.66106 68.811 8.63843L69.1768 8.49699L69.5784 8.34424L69.9669 8.53282C72.0429 9.51721 74.1171 10.5299 75.8613 11.403C77.6997 12.3158 79.3968 13.187 80.7903 13.9602L82.1517 14.7145L80.8921 15.6386Z" fill="#231F20"/>
<path d="M20.917 60.102C20.809 60.0823 20.698 60.0858 20.5914 60.1123C20.4848 60.1387 20.3851 60.1876 20.2988 60.2555C20.2125 60.3234 20.1416 60.4089 20.0909 60.5063C20.0401 60.6037 20.0106 60.7108 20.0044 60.8205C19.8894 63.1023 21.3507 65.2503 23.3853 66.4138C25.7498 67.5698 28.6141 67.2228 31.005 66.3365C35.1402 64.8033 41.0327 59.3269 37.55 54.5973C36.6774 53.427 35.3812 52.6451 33.939 52.4192C32.5035 52.1914 31.0342 52.315 29.6568 52.7794C29.1383 52.9472 29.0553 53.4168 29.2288 53.8034L20.917 60.102Z" fill="white"/>
<path d="M20.9998 61.1228C21.0224 61.9424 21.2632 62.7412 21.6975 63.4367C22.2343 64.3073 22.9812 65.029 23.8697 65.5356C24.812 65.9653 25.84 66.1743 26.8753 66.1466C28.1705 66.112 29.4503 65.8569 30.6597 65.3923C31.7134 64.9829 32.7062 64.4315 33.6107 63.7535C34.9306 62.7842 36.1431 61.5433 36.8841 60.1893C37.5705 58.939 37.8401 57.5963 37.3631 56.3121C37.211 55.9082 37.0034 55.5274 36.7465 55.1806C36.405 54.715 35.9743 54.322 35.4794 54.0246C34.9501 53.7131 34.3687 53.5003 33.7635 53.3966C33.1621 53.2927 32.5497 53.268 31.942 53.3231C31.372 53.3712 30.808 53.4748 30.2581 53.6323L30.4731 54.1094L21.2034 61.1341L20.9998 61.1228ZM19.7459 59.4256C19.9897 59.2563 20.2713 59.1494 20.5661 59.1144L28.1444 53.3721C28.1516 53.1997 28.1847 53.0293 28.2424 52.8667C28.3186 52.6538 28.4381 52.459 28.5932 52.2945C28.7483 52.1299 28.9357 51.9992 29.1437 51.9106C29.2107 51.8803 29.2793 51.8539 29.3493 51.8314C30.1334 51.5771 30.9436 51.4119 31.7647 51.3392C32.5488 51.2696 33.3386 51.3025 34.1142 51.4373C34.9616 51.584 35.7751 51.8844 36.5146 52.3236C37.2342 52.762 37.8598 53.3389 38.3549 54.0208C38.7238 54.5162 39.0214 55.0609 39.2393 55.6388C39.9426 57.5379 39.5881 59.4425 38.6415 61.1699C37.7515 62.7936 36.326 64.2589 34.793 65.3866C33.7375 66.176 32.5791 66.8174 31.3499 67.2932C29.9256 67.8351 28.4195 68.131 26.8961 68.1682C25.5288 68.2027 24.1726 67.9159 22.9363 67.3309L22.876 67.3007C21.6851 66.623 20.6848 65.6551 19.9684 64.4871C19.2809 63.3789 18.9413 62.0902 18.9935 60.7871V60.6872C19.0176 60.4335 19.0975 60.1883 19.2276 59.9692C19.3577 59.75 19.5347 59.5625 19.7459 59.4199V59.4256Z" fill="#231F20"/>
<path d="M32.9241 59.6543C32.645 58.4775 31.4156 55.8826 30.9404 54.6814C28.5061 54.2778 24.2428 54.9416 23.5866 58.0174C22.4024 63.6333 29.1604 63.7785 32.9165 59.6543" fill="white"/>
<path d="M32.4352 55.6323C33.0009 56.926 33.6873 58.5138 33.9023 59.4247L34.0248 59.9376L33.6647 60.3317C32.0525 62.1025 29.9274 63.1605 28.0078 63.4452C27.0418 63.605 26.0514 63.526 25.1229 63.2151C24.2021 62.9058 23.4322 62.2598 22.9676 61.4066C22.4736 60.4901 22.3095 59.2926 22.6226 57.8123C22.977 56.1264 24.1461 55.0269 25.598 54.3669C27.3573 53.5692 29.5672 53.4353 31.1097 53.6918L31.6754 53.7842L31.8865 54.3122C32.0223 54.6517 32.2259 55.1175 32.4522 55.6323M31.8149 59.3775C31.5434 58.5723 31.0399 57.4125 30.6138 56.4319C30.4855 56.1358 30.3649 55.8661 30.2574 55.604C29.0864 55.5059 27.6175 55.6549 26.4371 56.1943C25.5245 56.6091 24.7967 57.2635 24.593 58.2253C24.3894 59.187 24.4667 59.9414 24.7457 60.46C24.9784 60.8742 25.3589 61.1854 25.8111 61.3312C26.4297 61.5292 27.0868 61.5751 27.7269 61.4651C29.2644 61.199 30.6845 60.4708 31.7979 59.3775H31.8149Z" fill="#231F20"/>
<path d="M13.0945 48.9003C13.003 48.8393 12.8997 48.7981 12.7913 48.7795C12.6829 48.7609 12.5718 48.7653 12.4651 48.7923C12.3585 48.8193 12.2587 48.8684 12.1723 48.9364C12.0858 49.0043 12.0146 49.0897 11.9631 49.187C10.696 51.4499 10.8902 54.322 12.3572 56.4511C13.8827 58.667 16.4565 59.8814 19.0907 60.1096C22.0229 60.3661 24.9946 59.327 27.4723 57.8202C29.8161 56.3946 31.8751 54.2711 32.2183 51.4367C32.3897 50.0025 31.9946 48.5579 31.1171 47.4105C30.6877 46.8399 30.1302 46.3782 29.4895 46.0628C28.8488 45.7473 28.143 45.5869 27.4289 45.5945C27.3179 45.5936 27.2078 45.6154 27.1055 45.6585C27.0032 45.7017 26.9108 45.7653 26.834 45.8455C26.7572 45.9257 26.6976 46.0207 26.6588 46.1248C26.6201 46.2289 26.603 46.3398 26.6086 46.4507L13.0945 48.9003Z" fill="white"/>
<path d="M27.606 47.0446V47.2879L27.4175 47.3219C27.4816 47.2295 27.5419 47.1333 27.606 47.0446ZM11.0844 48.6985C11.1872 48.5122 11.3182 48.343 11.4728 48.1969C12.7663 48.6853 14.0881 49.119 15.3722 49.5056L12.904 49.9545L12.7399 49.8583C12.2811 50.7647 12.0709 51.7766 12.1309 52.7907C12.1889 53.8982 12.551 54.9683 13.1774 55.8835C13.8208 56.8024 14.6732 57.5554 15.6645 58.0804C16.7514 58.6609 17.9456 59.0126 19.1736 59.1139C20.4387 59.211 21.711 59.0833 22.9316 58.7367C24.3465 58.3368 25.6988 57.7421 26.9499 56.9697C28.1193 56.2858 29.1477 55.3853 29.98 54.3163C30.6478 53.4453 31.0744 52.4137 31.217 51.3254C31.2879 50.7406 31.2444 50.1474 31.0888 49.5792C30.9368 49.018 30.6753 48.4925 30.3194 48.0328C29.9741 47.5808 29.5305 47.2132 29.0221 46.9579C28.6599 46.7798 28.2694 46.6662 27.8681 46.6222C28.2253 46.0327 28.4928 45.3933 28.662 44.7251C29.0945 44.8181 29.5138 44.9644 29.9103 45.1607C30.6916 45.5483 31.374 46.1095 31.9052 46.8014C32.4185 47.4698 32.7947 48.2331 33.0121 49.0474C33.2371 49.8633 33.3011 50.7152 33.2006 51.5555C33.0179 52.9919 32.4585 54.3543 31.579 55.5044C30.5915 56.7815 29.3691 57.8582 27.9775 58.6763C26.5679 59.5445 25.045 60.2134 23.4521 60.664C22.0043 61.0751 20.4951 61.2265 18.9945 61.1109C17.4903 60.9853 16.0278 60.5527 14.6972 59.8399C13.4303 59.1617 12.3426 58.1921 11.5237 57.0112C10.6898 55.7915 10.2071 54.3661 10.1284 52.8907C10.0431 51.4303 10.3746 49.9758 11.0844 48.6966V48.6985Z" fill="#231F20"/>
<path d="M22.9607 46.3852C22.8551 46.1966 21.3937 46.9151 21.1938 46.8453C21.0839 46.8072 20.9669 46.7939 20.8511 46.8063C20.7354 46.8187 20.6239 46.8565 20.5245 46.917C19.1348 47.6977 16.5647 49.0366 16.3648 50.4661C14.6395 58.9409 24.6351 56.2253 27.4126 52.6725C25.2404 50.4717 24.9028 48.8669 22.9607 46.3852Z" fill="white"/>
<path d="M21.6374 45.6777C22.4501 45.3816 23.3156 45.0629 23.8021 45.838C24.4857 46.7331 25.1105 47.6717 25.6726 48.6478C26.3363 49.7529 26.9491 50.7769 28.1239 51.9687L28.7405 52.593L28.1974 53.2869C26.8907 54.9615 24.1905 56.4608 21.6562 56.9266C20.5763 57.1525 19.4598 57.137 18.3866 56.8813C17.8464 56.752 17.3381 56.5141 16.8927 56.1821C16.4473 55.8501 16.0741 55.431 15.7958 54.9502C15.1773 53.8697 14.9642 52.3591 15.3696 50.3205C15.6374 48.497 18.1584 47.0883 19.7556 46.1982C19.9215 46.1058 19.4935 46.3434 20.0327 46.0416C20.2546 45.9158 20.4996 45.8362 20.753 45.8078C21.0143 45.7789 21.2787 45.8098 21.5261 45.8983C21.7769 45.987 21.4526 45.7456 21.6374 45.6777ZM22.0522 46.8224C21.8919 46.5546 22.0409 46.8639 22.1748 47.1618L22.0522 46.8224ZM22.0918 46.8903L22.0522 46.8224L22.1748 47.1618C22.246 47.2863 22.2952 47.4222 22.32 47.5635C21.8316 47.7408 21.3772 47.9105 20.9642 47.82C20.6965 47.9708 21.0717 47.7577 20.7285 47.9501C19.4689 48.6516 17.4815 49.7623 17.3571 50.611L17.3439 50.6657C17.0309 52.2026 17.1553 53.2643 17.5324 53.9545C17.6818 54.2026 17.8797 54.418 18.1142 54.5878C18.3488 54.7576 18.6153 54.8783 18.8976 54.9427C19.6841 55.1215 20.5002 55.126 21.2886 54.9559C23.0497 54.6315 24.8825 53.7358 26.0346 52.674C25.2469 51.7477 24.5516 50.7466 23.9586 49.685C23.4227 48.7558 22.8269 47.8626 22.1748 47.0109L22.0918 46.8903Z" fill="#231F20"/>
<path d="M25.8191 49.4458C27.601 47.1225 29.5017 45.0839 28.5759 41.6782C28.212 40.8201 26.3132 39.236 23.6733 37.601C21.0335 35.966 17.6696 34.2858 14.3867 33.2335C8.49985 31.3477 4.74372 32.5546 3.01462 35.0231C-4.36753 45.5592 16.4024 49.7966 22.8663 51.5051C24.2258 51.243 24.6934 50.9205 25.8229 49.4458" fill="white"/>
<path d="M25.022 48.8384L25.4595 48.2726C26.9265 46.3868 28.303 44.6179 27.6241 42.0061C27.4676 41.7213 27.0151 41.2668 26.3344 40.7011C25.6064 40.105 24.846 39.5497 24.0566 39.0378C24.6652 38.6823 25.2169 38.2373 25.6933 37.7177C26.4249 38.2194 27.0735 38.704 27.6147 39.1547C28.5858 39.9619 29.2533 40.7049 29.5003 41.2838L29.5475 41.4102C30.528 45.0234 28.8422 47.1902 27.0453 49.4965L26.6172 50.0623C25.9855 50.8864 25.5255 51.3974 24.9994 51.7595C24.4337 52.1518 23.868 52.3385 23.0515 52.4969L22.829 52.5384L22.6084 52.4799C22.2068 52.3743 21.6128 52.2253 20.9547 52.0594C16.582 50.9562 9.20365 49.0967 4.63294 45.8946C0.652421 43.0999 -1.2709 39.3905 2.19108 34.4496C3.13388 33.1013 4.58014 32.0792 6.5374 31.6021C7.04274 32.2131 7.58014 32.7995 8.14205 33.3577C7.97235 33.3747 7.80453 33.3955 7.64236 33.4219C5.86047 33.701 4.59711 34.5024 3.83155 35.5962C1.23884 39.2981 2.73036 42.1117 5.77938 44.2464C10.039 47.2317 17.1986 49.0364 21.4412 50.1057C21.9485 50.2339 22.4123 50.3508 22.8894 50.4828C23.2335 50.4242 23.562 50.2958 23.8548 50.1057C24.1848 49.8756 24.5242 49.489 25.022 48.8384Z" fill="#231F20"/>
<path d="M10.9379 48.1075C11.447 48.4224 11.9222 48.8354 12.5011 48.9882L17.2151 50.2441L21.865 51.6132C22.3251 49.916 22.9247 48.0302 23.6431 46.8138C19.0969 41.5751 9.15602 39.2046 10.9379 48.1075Z" fill="white"/>
<path d="M10.7792 49.2055C10.6397 49.1093 10.5002 49.0169 10.4021 48.9603L10.025 48.7283L9.94015 48.304C9.52154 46.2146 9.69879 44.6305 10.289 43.482C10.5557 42.9589 10.9313 42.4989 11.3905 42.1329C11.8498 41.767 12.382 41.5036 12.9515 41.3605C14.0036 41.0663 15.2255 41.0908 16.4964 41.3605C19.24 41.962 22.3286 43.7856 24.3801 46.1504L24.8553 46.6954L24.4782 47.3159C24.1145 47.9665 23.8121 48.6496 23.575 49.3563C23.2921 50.1521 23.0338 51.029 22.8056 51.8663L22.536 52.8545L16.9433 51.212L12.2444 49.9579C11.7152 49.7952 11.2191 49.5398 10.7792 49.2036M11.8503 47.5063L11.9106 47.5478C12.1669 47.7466 12.4517 47.9055 12.7554 48.0193C15.6064 48.7736 18.3386 49.5279 21.1652 50.3652C21.3292 49.8089 21.5083 49.2469 21.7026 48.6982C21.9092 48.1095 22.1471 47.5322 22.4153 46.9689C20.6617 45.1679 18.2462 43.8064 16.0853 43.333C15.1143 43.1199 14.2205 43.0916 13.4983 43.2915C13.1963 43.3653 12.9136 43.5027 12.669 43.6946C12.4245 43.8865 12.2238 44.1284 12.0803 44.4042C11.7296 45.0906 11.6183 46.1014 11.8503 47.5063Z" fill="#231F20"/>
<path d="M22.0918 23.5966C25.5312 26.8477 31.0918 32.1054 27.1679 37.5044C26.3492 38.6743 25.2389 39.6097 23.9473 40.2181C22.6462 40.7977 21.2152 41.0234 19.7989 40.8725H19.7178C15.8241 40.2012 11.2081 37.7571 7.59339 34.2363C4.48591 31.2039 2.08742 27.3475 1.48968 23.1138C1.14324 21.6315 1.04953 20.1013 1.2125 18.5878C1.3822 17.2546 1.814 16.0835 2.53242 15.1594C3.30855 14.1641 4.41694 13.4813 5.65498 13.2359C6.56096 13.0536 7.49149 13.0281 8.40608 13.1605H8.41928C9.1377 13.2623 10.55 14.1034 12.2885 15.3518C14.0271 16.6002 16.2068 18.3691 18.3602 20.221C19.0202 20.7867 19.6405 21.3374 20.2119 21.8522C20.726 22.3174 21.3017 22.8504 21.9391 23.4514L22.0918 23.5966ZM25.5425 36.3277C28.4331 32.3505 23.6663 27.8415 20.7172 25.0581L20.5664 24.9148C20.0987 24.4735 19.5255 23.9473 18.8693 23.3533C18.2131 22.7593 17.6248 22.2444 17.0497 21.7466C14.9567 19.9324 12.8354 18.2295 11.11 16.9811C9.61853 15.9024 8.51734 15.2028 8.14399 15.15C7.45762 15.051 6.75941 15.0695 6.07925 15.2047C5.30086 15.3529 4.60196 15.7767 4.11067 16.3984C3.6223 17.0264 3.32249 17.8637 3.19804 18.85C3.06715 20.14 3.15319 21.4429 3.4526 22.7046L3.4658 22.7838C3.98245 26.5554 6.15844 30.0347 8.99817 32.8012C12.3244 36.0392 16.5293 38.2833 20.0516 38.8924C21.098 38.996 22.1534 38.8278 23.1157 38.404C24.0915 37.9348 24.9279 37.2191 25.5425 36.3277Z" fill="#231F20"/>
<path d="M10.8379 35.9054C13.7191 38.1948 16.8511 39.8656 20.4658 40.3182C21.2389 38.323 22.1383 36.3278 23.0849 34.3326C13.4098 29.1504 10.4117 31.6925 10.8379 35.9054Z" fill="white"/>
<path d="M14.9439 39.7047C13.2578 38.8813 11.6706 37.8691 10.2129 36.6874L9.88294 36.4253L9.83957 36.001C9.73557 35.1575 9.79251 34.3019 10.0074 33.4796C10.1459 32.9391 10.3982 32.4344 10.7474 31.9992C11.0967 31.5641 11.5348 31.2086 12.0325 30.9564C12.9961 30.4661 14.2839 30.2926 15.9395 30.5491C17.8741 30.8489 20.3763 31.7485 23.5498 33.4476L24.3927 33.9002L23.9854 34.7601C23.5234 35.7313 23.0671 36.7176 22.6221 37.7284C22.1771 38.7392 21.7641 39.7255 21.3946 40.6778L21.1117 41.4076L20.3349 41.3095C18.4615 41.068 16.6392 40.5261 14.9382 39.7047M11.8044 35.3881C13.0461 36.362 14.3881 37.2009 15.8075 37.8906C17.0828 38.5077 18.4348 38.9517 19.8276 39.2106C20.1388 38.4318 20.4612 37.6718 20.7912 36.9231C21.1023 36.2197 21.4285 35.5012 21.7679 34.7771C19.211 33.4664 17.1934 32.7687 15.6378 32.5235C14.4348 32.3349 13.5636 32.4349 12.9489 32.7442C12.6994 32.8749 12.4806 33.0574 12.3073 33.2796C12.1339 33.5017 12.01 33.7583 11.9439 34.0322C11.8267 34.4741 11.7796 34.9316 11.8044 35.3881Z" fill="#231F20"/>
<path d="M149.278 70.9684C153.347 72.709 157.969 73.3445 162.366 73.4671C166.416 73.5821 170.911 73.3539 174.175 70.6591C176.902 68.4112 178.135 64.8621 178.68 61.479C179.383 57.1793 179.461 52.7288 179.346 48.382C179.222 43.7655 178.759 39.1643 177.962 34.6155C177.262 30.6214 176.406 26.5688 174.835 22.816C173.216 18.9463 170.696 15.4934 166.889 13.5623C162.517 11.354 157.324 10.6846 152.527 10.083C144.324 24.6038 121.889 58.8294 149.278 70.9608" fill="white"/>
<path d="M155.527 73.8233C153.247 73.4372 151.019 72.7918 148.886 71.8998H148.875C130.371 63.7041 133.584 46.0434 140.444 30.5534C143.352 23.9851 146.919 17.8204 149.718 12.9851C150.481 11.6651 151.192 10.4355 151.656 9.61329L151.993 9.01172L152.653 9.09281C155.065 9.39265 157.58 9.70947 160.079 10.2394C162.577 10.7693 165.066 11.518 167.337 12.6664C169.203 13.6219 170.862 14.9378 172.217 16.538C173.7 18.3072 174.897 20.2976 175.765 22.4368C176.56 24.3693 177.208 26.3588 177.704 28.3884C178.209 30.4044 178.603 32.4373 178.954 34.4495C179.354 36.7351 179.673 39.0552 179.912 41.41C180.144 43.7119 180.291 46.0283 180.351 48.3592C180.41 50.5543 180.419 52.7758 180.325 54.9878C180.24 57.216 180.022 59.4371 179.672 61.6391C179.399 63.4526 178.892 65.2231 178.164 66.9062C177.413 68.6532 176.267 70.2024 174.817 71.4321C173.039 72.8993 170.944 73.6951 168.753 74.1006C166.631 74.4947 164.429 74.5249 162.342 74.4664C160.057 74.4189 157.78 74.204 155.527 73.8233ZM149.682 70.0517C151.67 70.8809 153.747 71.48 155.872 71.8376C158.028 72.2069 160.208 72.4181 162.394 72.4693C164.361 72.524 166.432 72.4976 168.385 72.1337C170.271 71.7829 172.054 71.1134 173.54 69.8876C174.77 68.8731 175.669 67.5474 176.329 66.084C176.987 64.5616 177.444 62.9604 177.69 61.3204C178.028 59.1976 178.237 57.0565 178.318 54.9086C178.411 52.7343 178.401 50.5562 178.347 48.4064C178.286 46.1434 178.142 43.8766 177.913 41.6061C177.684 39.3356 177.37 37.0651 176.97 34.7946C176.623 32.8126 176.239 30.8211 175.75 28.875C175.279 26.942 174.663 25.0471 173.908 23.2062C173.12 21.2612 172.033 19.4511 170.687 17.8411C169.506 16.4397 168.059 15.2861 166.43 14.4466C164.335 13.3887 162.027 12.6947 159.657 12.1931C157.488 11.7329 155.244 11.4388 153.057 11.1597C152.491 12.1516 151.984 13.0323 151.443 13.9676C148.673 18.7538 145.141 24.8563 142.271 31.3397C135.821 45.9359 132.704 62.5292 149.684 70.0517H149.682Z" fill="#231F20"/>
<path d="M125.627 52.3243C125.089 47.8511 125.061 35.1426 126.834 32.9928C128.242 31.2842 130.982 39.5818 133.245 39.2612C142.284 55.4245 126.079 56.0355 125.627 52.3243Z" fill="white"/>
<path d="M126.454 40.0032C126.178 44.4009 126.318 49.6548 126.623 52.1968C126.678 52.6494 127.464 52.9964 128.509 53.1398C129.572 53.2685 130.651 53.1391 131.654 52.7626C132.716 52.3863 133.62 51.6636 134.22 50.7108C135.422 48.7383 135.435 45.4117 132.623 40.1993C131.202 39.8221 130 37.9194 128.886 36.1486C128.334 35.2698 127.807 34.4325 127.393 33.9799C126.921 35.0039 126.623 37.3159 126.45 40.0032M124.625 52.4326C124.31 49.8094 124.166 44.4009 124.447 39.8863C124.662 36.4409 125.154 33.4405 126.056 32.343C126.799 31.4416 127.602 31.5264 128.454 32.2299C129.146 32.7956 129.842 33.9063 130.577 35.0755C131.554 36.6276 132.62 38.321 133.1 38.2531L133.779 38.157L134.117 38.7604C137.607 45.0006 137.499 49.1663 135.925 51.7499C135.094 53.0864 133.835 54.1025 132.354 54.6333C131.042 55.1222 129.632 55.2872 128.243 55.1142C126.308 54.8653 124.804 53.8809 124.628 52.4326H124.625Z" fill="#231F20"/>
<path d="M125.626 52.3248C125.411 50.5333 125.277 47.4217 125.307 44.1969C126.039 43.9499 127.015 43.9763 128.324 44.4006C128.785 44.5382 129.202 44.7932 129.535 45.1407C129.868 45.4881 130.105 45.9161 130.223 46.3826C130.775 48.3835 129.644 51.0198 127.928 52.734C127.177 52.5875 126.416 52.4911 125.652 52.4455C125.652 52.4059 125.635 52.3663 125.629 52.3248" fill="white"/>
<path d="M126.373 48.6671C126.414 49.7344 126.475 50.7037 126.55 51.5071C126.693 51.5203 126.835 51.5373 126.971 51.5542C127.174 51.5788 127.374 51.607 127.57 51.6372C128.202 50.9159 128.696 50.085 129.028 49.1857C129.352 48.288 129.461 47.3885 129.254 46.6379C129.177 46.3335 129.025 46.0534 128.811 45.8232C128.588 45.5982 128.313 45.4329 128.009 45.3424C127.536 45.1789 127.044 45.0756 126.544 45.035H126.305C126.305 46.3022 126.328 47.5393 126.373 48.6689M124.629 52.4406C124.519 51.5203 124.429 50.2379 124.37 48.7538C124.316 47.364 124.291 45.795 124.308 44.1882V43.4735L124.985 43.2453C125.521 43.071 126.086 43.0031 126.648 43.0454C127.321 43.0935 127.985 43.2279 128.624 43.4452C129.243 43.6316 129.803 43.9739 130.252 44.4392C130.7 44.9045 131.021 45.4772 131.185 46.1023C131.509 47.2772 131.373 48.5992 130.911 49.874C130.416 51.2115 129.637 52.4265 128.63 53.4363L128.253 53.8134L127.723 53.6984C127.436 53.6381 127.101 53.5853 126.735 53.54C126.369 53.4947 125.967 53.457 125.586 53.4306L124.832 53.3778L124.67 52.6235C124.651 52.5631 124.636 52.4896 124.629 52.433V52.4406Z" fill="#231F20"/>
<path d="M139.346 53.5725C135.938 50.178 136.304 46.8081 136.127 43.8549C135.95 40.9017 135.229 38.3672 137.321 36.2739C146.079 40.6962 146.739 45.8463 146.792 49.2955C146.852 53.2387 140.871 55.0906 139.346 53.5725Z" fill="white"/>
<path d="M137.18 44.9813C137.267 47.4555 137.369 50.1881 140.054 52.8622C140.223 53.03 140.602 53.1073 141.091 53.0998C142.489 53.0305 143.815 52.4609 144.828 51.4949C145.128 51.2147 145.368 50.8761 145.533 50.5C145.697 50.1238 145.783 49.718 145.786 49.3074C145.761 47.7063 145.597 45.713 144.441 43.6368C143.329 41.6434 141.289 39.5351 137.565 37.5343C136.673 38.8543 136.826 40.4535 136.999 42.2582C137.048 42.7768 137.097 43.3086 137.127 43.7933C137.148 44.1384 137.163 44.5476 137.178 44.9776M138.638 54.2803C135.389 51.048 135.277 47.8987 135.176 45.0398C135.162 44.6758 135.149 44.3175 135.125 43.9083C135.093 43.3671 135.047 42.8975 135.006 42.4411C134.763 39.8727 134.551 37.6229 136.609 35.5617L137.123 35.0469L137.77 35.3731C142.356 37.6889 144.841 40.231 146.195 42.658C147.57 45.1247 147.764 47.431 147.792 49.2772C147.815 50.7387 147.191 51.9588 146.252 52.9018C144.867 54.2409 143.037 55.0224 141.111 55.0968C140.114 55.1176 139.213 54.8536 138.639 54.2841L138.638 54.2803Z" fill="#231F20"/>
<path d="M150.785 41.4017C150.335 41.9465 149.771 42.3853 149.132 42.6868C148.493 42.9884 147.795 43.1452 147.089 43.1461H93.7263C93.0951 43.1461 92.4701 43.0218 91.887 42.7802C91.3039 42.5386 90.774 42.1845 90.3277 41.7382C89.8814 41.2918 89.5273 40.7619 89.2858 40.1787C89.0442 39.5955 88.9199 38.9704 88.9199 38.3392V6.46891C88.9194 5.83734 89.0434 5.21186 89.2847 4.62822C89.526 4.04458 89.88 3.51422 90.3264 3.06746C90.7727 2.62069 91.3027 2.26628 91.8861 2.02447C92.4695 1.78266 93.0948 1.6582 93.7263 1.6582H147.089C148.364 1.6582 149.586 2.16465 150.488 3.06612C151.389 3.9676 151.895 5.19026 151.895 6.46514L150.785 41.4017Z" fill="white"/>
<path d="M148.697 41.7853C149.106 41.5913 149.479 41.3263 149.796 41.0027L150.886 6.46588C150.886 5.96696 150.789 5.47283 150.598 5.01172C150.408 4.55061 150.128 4.13156 149.776 3.7785C149.423 3.42545 149.004 3.14531 148.544 2.95409C148.083 2.76288 147.589 2.66433 147.09 2.66409H93.7275C93.2281 2.66359 92.7336 2.76159 92.2721 2.95247C91.8107 3.14335 91.3915 3.42337 91.0384 3.7765C90.6853 4.12963 90.4053 4.54893 90.2144 5.01041C90.0236 5.47189 89.9256 5.96649 89.9261 6.46588V38.3361C89.9256 38.8357 90.0235 39.3305 90.2144 39.7922C90.4052 40.2539 90.6851 40.6734 91.0381 41.0268C91.3912 41.3803 91.8104 41.6606 92.2719 41.8519C92.7333 42.0432 93.2279 42.1417 93.7275 42.1417H147.09C147.648 42.1433 148.2 42.0216 148.706 41.7853M151.568 42.0417C151.023 42.7009 150.339 43.2316 149.565 43.5964C148.791 43.9611 147.946 44.1508 147.09 44.152H93.7275C92.9642 44.1522 92.2084 44.0021 91.5032 43.7101C90.798 43.4181 90.1573 42.99 89.6176 42.4502C89.0779 41.9105 88.6498 41.2696 88.3579 40.5644C88.0659 39.8591 87.9158 39.1032 87.916 38.3399V6.46966C87.9153 5.70602 88.0651 4.94972 88.3568 4.24402C88.6485 3.53832 89.0765 2.89706 89.6163 2.35691C90.156 1.81676 90.7969 1.38831 91.5024 1.09608C92.2078 0.80385 92.9639 0.653561 93.7275 0.653809H147.09C148.631 0.654309 150.109 1.26681 151.199 2.35668C152.289 3.44655 152.901 4.92458 152.902 6.46588V6.49794L151.789 41.7815L151.568 42.0417Z" fill="#231F20"/>
<path d="M150.808 43.4289C148.974 47.0895 147.867 51.071 147.548 55.153C147.27 58.7945 147.699 62.3323 149.101 65.0762L147.318 65.987C145.734 62.8867 145.243 58.9793 145.545 55.004C145.888 50.6562 147.07 46.4159 149.026 42.5181L150.808 43.4289Z" fill="#231F20"/>
<path d="M96.8906 25.4905H100.375C100.725 25.4905 101.061 25.3514 101.309 25.1038C101.556 24.8563 101.695 24.5205 101.695 24.1704V19.5238C101.695 19.1737 101.556 18.8379 101.309 18.5903C101.061 18.3428 100.725 18.2037 100.375 18.2037H96.8906C96.5405 18.2037 96.2048 18.3428 95.9573 18.5903C95.7097 18.8379 95.5707 19.1737 95.5707 19.5238V24.1723C95.5707 24.5224 95.7097 24.8582 95.9573 25.1057C96.2048 25.3533 96.5405 25.4924 96.8906 25.4924M100.375 27.5027H96.8906C96.0079 27.5027 95.1614 27.152 94.5373 26.5278C93.9131 25.9036 93.5625 25.057 93.5625 24.1742V19.5238C93.5625 18.641 93.9131 17.7944 94.5373 17.1702C95.1614 16.546 96.0079 16.1953 96.8906 16.1953H100.375C101.258 16.1953 102.104 16.546 102.729 17.1702C103.353 17.7944 103.703 18.641 103.703 19.5238V24.1723C103.703 24.6094 103.617 25.0422 103.45 25.4461C103.283 25.8499 103.038 26.2168 102.729 26.5259C102.419 26.835 102.053 27.0801 101.649 27.2474C101.245 27.4147 100.812 27.5008 100.375 27.5008V27.5027Z" fill="#231F20"/>
<path d="M163.037 29.2224C157.968 26.9821 152.3 24.3099 146.487 21.798C140.673 19.2861 134.715 16.9364 129.067 15.3391C124.289 13.9888 122.296 15.7898 121.978 18.5582C120.746 29.2488 132.307 33.2769 139.987 36.0962C141.929 36.8091 143.786 37.6388 145.517 38.9249C147.248 40.2111 148.857 41.9762 150.294 44.5447C150.462 44.8451 150.624 45.1594 150.778 45.4876C150.933 45.8157 151.082 46.1551 151.225 46.5097C151.369 46.8642 151.504 47.2319 151.634 47.6166C151.764 48.0014 151.893 48.4011 152.011 48.8179L163.037 29.2224Z" fill="white"/>
<path d="M149.322 43.1444C149.233 43.1412 149.147 43.1707 149.078 43.2274C149.058 43.2486 149.042 43.2737 149.031 43.3012C149.021 43.3288 149.015 43.3581 149.016 43.3876L147.014 43.2538C147.044 42.6722 147.304 42.1264 147.736 41.7357C148.174 41.3496 148.738 41.1381 149.322 41.1416V43.1444Z" fill="#231F20"/>
<path d="M162.633 30.1409C160.572 29.2301 158.365 28.2268 156.089 27.1915C152.884 25.7338 149.541 24.2119 146.096 22.7221C143.182 21.4624 140.25 20.2517 137.367 19.1655C134.484 18.0792 131.592 17.0967 128.799 16.3066C128.209 16.1328 127.605 16.0067 126.995 15.9294C125.767 15.788 124.871 15.9483 124.251 16.3236C123.681 16.6893 123.276 17.2619 123.12 17.9208C123.051 18.1679 123.003 18.4202 122.976 18.6752C121.858 28.3871 132.536 32.2983 139.907 34.9988L140.333 35.1553C141.337 35.516 142.319 35.9315 143.277 36.3999C144.275 36.8892 145.227 37.468 146.12 38.1292C147.093 38.8574 147.983 39.6896 148.775 40.6109C149.689 41.6773 150.491 42.8343 151.17 44.0639C151.249 44.2053 151.338 44.3694 151.434 44.5542C151.53 44.739 151.605 44.8955 151.687 45.0671C151.768 45.2387 151.841 45.4009 151.926 45.5933C152.011 45.7856 152.083 45.961 152.156 46.142C152.252 46.3834 152.328 46.572 152.379 46.7078C152.445 46.8964 152.514 47.0849 152.586 47.2962C152.658 47.5074 152.722 47.7054 152.786 47.909C152.835 48.0618 152.897 48.273 152.974 48.5408L151.051 49.1065C151.01 48.9576 150.949 48.7614 150.863 48.5125C150.8 48.3239 150.738 48.1353 150.674 47.9468C150.61 47.7582 150.551 47.596 150.485 47.4093C150.401 47.1773 150.335 47.0038 150.297 46.8907C150.227 46.7172 150.159 46.5531 150.091 46.3966C150.023 46.2401 149.954 46.0911 149.875 45.9233C149.795 45.7554 149.727 45.6197 149.652 45.4763C149.577 45.333 149.511 45.2048 149.422 45.0464C148.81 43.9346 148.086 42.8882 147.261 41.9235C146.562 41.1138 145.778 40.3822 144.921 39.7416C144.126 39.1517 143.279 38.6354 142.391 38.199C141.497 37.764 140.581 37.3781 139.645 37.043L139.217 36.8865C131.241 33.9635 119.686 29.7298 120.983 18.4489C121.023 18.0912 121.092 17.7374 121.189 17.3909C121.479 16.2407 122.205 15.2485 123.214 14.6244C124.208 14.021 125.526 13.7513 127.223 13.9455C127.939 14.0339 128.647 14.179 129.34 14.3793C132.193 15.1751 135.118 16.1765 138.067 17.2891C141.016 18.4017 143.982 19.6237 146.882 20.8721C150.276 22.3355 153.67 23.8894 156.913 25.3585C159.155 26.3768 161.328 27.365 163.441 28.3004L162.633 30.1409Z" fill="#231F20"/>
<path d="M130.801 23.441C129.353 23.2372 127.958 22.7625 126.686 22.0417C124.291 20.6858 124.455 20.0729 125.117 17.5742L125.163 17.4026C125.306 16.8627 125.483 16.3324 125.692 15.8148C125.896 15.3089 126.133 14.8175 126.403 14.3438L126.78 13.6763L127.523 13.8649C130.58 14.6739 132.524 15.4056 135.505 16.5276L136.448 16.8803L136.54 16.9425C136.638 17.0109 136.739 17.0738 136.844 17.1311C136.946 17.1865 137.051 17.2356 137.159 17.2782L137.896 17.561L137.794 18.3418C137.694 19.2194 137.424 20.0692 137 20.8442C136.4 21.9236 135.423 22.7431 134.255 23.1449C133.143 23.5158 131.959 23.6166 130.801 23.4391M127.669 20.2992C128.717 20.8948 129.869 21.287 131.063 21.4552C131.905 21.5914 132.769 21.5268 133.582 21.2667C134.296 21.0208 134.893 20.5197 135.26 19.8599C135.447 19.5208 135.588 19.1579 135.679 18.7812L135.518 18.6831L134.807 18.4153C132.147 17.414 130.329 16.7294 127.793 16.026C127.708 16.2146 127.629 16.3881 127.554 16.5729C127.375 17.0092 127.224 17.4564 127.103 17.9118L127.056 18.0834C126.711 19.3865 126.626 19.6996 127.669 20.2992Z" fill="#231F20"/>
<path d="M137.817 51.8971C138.369 51.6595 138.963 51.4182 139.536 51.2201C140.058 51.0309 140.597 50.8907 141.145 50.8015C141.443 49.1929 141.017 45.3157 140.428 43.147H134.645C134.645 43.4166 134.551 43.7127 134.66 43.9918L137.817 51.8971Z" fill="white"/>
<path d="M138.371 50.5835C138.688 50.459 138.975 50.3496 139.212 50.2685C139.507 50.1686 139.81 50.08 140.123 49.9913L140.231 49.963C140.257 49.1196 140.226 48.2754 140.138 47.4361C140.036 46.3322 139.869 45.2353 139.639 44.151H135.805L138.371 50.5835ZM139.039 52.4693C138.833 52.5504 138.543 52.673 138.215 52.8163L137.272 53.2236L133.737 44.3603C133.606 44.0139 133.571 43.6387 133.635 43.2741C133.635 43.2062 133.648 43.1383 133.65 43.1194L133.678 42.1426H141.198L141.4 42.8837C141.759 44.3198 142.005 45.7821 142.133 47.2569C142.271 48.7203 142.293 50.1177 142.133 50.9833L142.001 51.6961L141.281 51.7961C141.063 51.8286 140.847 51.874 140.634 51.9318C140.406 51.9922 140.146 52.0752 139.865 52.1713C139.548 52.2788 139.271 52.3807 139.039 52.4731V52.4693Z" fill="#231F20"/>
<path d="M160.713 12.0242C155.16 11.0813 151.474 18.4623 152.145 23.6181C152.145 22.2019 151.877 9.34066 153.322 9.96486C153.342 9.96486 158.189 10.1534 158.53 11.185L160.713 12.0242Z" fill="#231F20"/>
<path d="M146.393 57.7058C144.286 56.8119 142.169 53.1799 137.166 57.7869C136.625 58.2848 137.276 58.7845 137.055 56.9873C136.895 55.688 133.914 48.1711 139.346 53.574C140.872 55.0921 146.853 53.2402 146.792 49.297C146.795 48.0892 146.648 46.8856 146.355 45.7139C146.57 42.1554 149.696 42.063 150.17 42.4458C148.546 44.0393 149.366 43.8715 148.742 46.2514C148.101 48.7029 147.26 49.9891 146.928 52.6745C146.74 54.2699 146.189 55.3278 146.551 57.076C146.621 57.4173 146.44 57.7247 146.398 57.7077" fill="#231F20"/>
<path fill-rule="evenodd" clip-rule="evenodd" d="M146.778 14.3119C146.991 14.8078 146.934 15.268 146.642 15.5961L146.689 15.6282L147.528 16.1939C147.71 15.9294 147.838 15.6315 147.905 15.3174C147.971 15.0033 147.974 14.6792 147.915 14.3637C147.856 14.0482 147.734 13.7476 147.558 13.4791C147.382 13.2106 147.155 12.9797 146.889 12.7994L146.308 13.665L146.278 13.7103C146.503 13.8549 146.677 14.0649 146.778 14.3119ZM146.884 7.7285C146.883 7.87149 146.859 8.01345 146.814 8.14903L147.872 8.51111C147.957 8.26099 148.001 7.99851 148.002 7.73415C148.004 7.17092 147.813 6.62403 147.459 6.18546C147.106 5.74689 146.612 5.44338 146.061 5.32597L145.831 6.42163C146.131 6.4837 146.4 6.64798 146.592 6.88637C146.784 7.12476 146.887 7.42245 146.884 7.7285ZM145.541 10.1669C145.888 10.1688 146.231 10.0972 146.548 9.95673C146.865 9.8163 147.148 9.61025 147.38 9.35218L146.55 8.59786C146.425 8.74067 146.271 8.8549 146.098 8.93275C145.925 9.01061 145.737 9.05026 145.547 9.04901C145.358 9.04775 145.171 9.00563 144.999 8.92549C144.827 8.84536 144.674 8.72911 144.551 8.58466L143.716 9.32767C143.943 9.58938 144.223 9.79963 144.538 9.94434C144.853 10.0891 145.195 10.1649 145.541 10.1669ZM143.231 8.48282L144.295 8.13395C144.25 7.99834 144.227 7.85626 144.229 7.71341C144.229 7.40691 144.336 7.11 144.531 6.87361C144.726 6.63722 144.997 6.47609 145.298 6.41786L145.081 5.32031C144.742 5.38825 144.421 5.52728 144.139 5.72825C143.857 5.92922 143.621 6.18757 143.446 6.48632C143.272 6.78506 143.162 7.11742 143.125 7.46153C143.088 7.80564 143.124 8.15371 143.231 8.48282ZM144.223 15.4094C144.097 15.1619 144.062 14.8777 144.125 14.6071C144.188 14.3365 144.345 14.097 144.568 13.9309L145.511 16.1543C145.244 16.1896 144.973 16.1356 144.74 16.0009C144.507 15.8662 144.325 15.6582 144.223 15.4094ZM143.267 15.8205C143.532 16.4019 144.014 16.8568 144.609 17.0882C145.205 17.3196 145.867 17.3093 146.456 17.0595C146.568 17.0104 146.677 16.9544 146.782 16.8917L144.879 12.4732L144.664 12.5562C144.156 12.745 143.726 13.0981 143.442 13.5594C143.202 13.9494 143.072 14.397 143.065 14.855C143.065 15.1873 143.134 15.516 143.267 15.8205ZM142.051 10.9174V11.9584L146.746 11.981C146.95 11.9886 147.152 11.9354 147.327 11.8283C147.472 11.7312 147.587 11.5944 147.657 11.4341L147.996 10.6326L147.033 10.214L146.735 10.94L142.051 10.9174Z" fill="#231F20"/>
<path fill-rule="evenodd" clip-rule="evenodd" d="M21.4947 40.9743C24.4306 40.3142 26.9309 41.2515 28.0774 42.449C28.8184 43.224 27.2006 35.9222 23.4313 38.9564C23.0768 39.2431 21.3458 40.2445 21.6644 40.6933C21.8021 40.648 21.3288 41.0139 21.4947 40.9743Z" fill="#231F20"/>
<path fill-rule="evenodd" clip-rule="evenodd" d="M25.9974 48.3912C28.9314 47.7293 31.4317 48.6665 32.5801 49.864C33.3211 50.6391 31.7033 43.3372 27.9339 46.3715C27.5776 46.6581 25.8485 47.6595 26.1652 48.1083C26.3029 48.0631 25.8296 48.4289 25.9974 48.3912Z" fill="#231F20"/>
<path d="M27.0219 14.3027L26.1998 13.3127L25.3814 12.3283L26.411 12.1171L27.2086 13.0713L28.01 14.0312C28.4738 14.5969 28.9698 14.7572 29.4845 14.6516C29.9993 14.546 30.0974 14.2518 29.6297 13.6974L28.8246 12.7375L28.0213 11.7946L29.0508 11.5721C29.3274 11.8989 29.6039 12.2258 29.8805 12.5527L30.7158 13.5409C31.1137 14.0123 31.2438 14.4366 31.1401 14.7704C31.0364 15.1042 30.7007 15.3362 30.1615 15.4568C29.5988 15.5671 29.0167 15.5195 28.4795 15.3192C27.9123 15.1153 27.4093 14.7645 27.0219 14.3027ZM22.7718 12.779C22.1665 12.9035 21.7271 13.1694 21.829 13.7596C21.5295 13.5669 21.1949 13.4355 20.8444 13.3731C20.4938 13.3106 20.1344 13.3183 19.7869 13.3956C19.2702 13.5031 18.944 13.7389 18.8441 14.0708C18.7441 14.4027 18.8799 14.8251 19.2759 15.3211C19.538 15.6492 19.8019 15.9754 20.0659 16.3036L20.8598 17.2917C21.1954 17.2201 21.5367 17.1503 21.8799 17.0805L21.103 16.1169L20.328 15.157C19.8906 14.6158 20.0075 14.2631 20.4826 14.1651C21.0483 14.0481 21.6555 14.2801 22.1797 14.9194C22.4223 15.2199 22.6662 15.5191 22.9113 15.817C23.1545 16.1188 23.3997 16.4186 23.6448 16.7203L24.6725 16.5091L23.9333 15.6058C23.6882 15.306 23.4412 15.0061 23.1979 14.7063C22.6831 14.0783 22.7755 13.6936 23.3488 13.5748C23.8277 13.4749 24.4028 13.6842 24.8572 14.2235L25.6322 15.174C25.8962 15.4946 26.1621 15.8151 26.4261 16.1376L27.45 15.9283C27.1784 15.5983 26.9069 15.272 26.6354 14.9439L25.8246 13.9652C25.4401 13.4995 24.9419 13.141 24.3783 12.9242C23.8674 12.7242 23.3102 12.6738 22.7718 12.779ZM36.4537 8.75089C36.2011 8.46425 36.3217 8.18515 36.6819 8.11537C36.8802 8.08247 37.0835 8.09823 37.2743 8.1613C37.4651 8.22437 37.6378 8.33287 37.7774 8.47745C38.0263 8.76032 37.9264 9.04319 37.5587 9.11297C37.359 9.14489 37.1546 9.12869 36.9624 9.06572C36.7702 9.00275 36.5958 8.89481 36.4537 8.75089ZM40.5644 13.2259L39.0898 11.5457L37.6322 9.89369L38.6542 9.68248L40.1175 11.3439L41.5977 13.0223L40.5644 13.2259ZM35.8994 10.2407L37.0119 10.0125C37.2017 10.6235 37.3946 11.2376 37.5907 11.8549C37.7887 12.4735 37.983 13.0939 38.1809 13.7181L37.2381 13.9067L34.917 12.3981L32.6241 10.9083L33.7234 10.682L35.2526 11.7097L36.7988 12.7413C36.6461 12.3226 36.499 11.9002 36.3462 11.4834C36.1935 11.0667 36.0464 10.6574 35.8994 10.2407ZM32.839 14.8194L31.372 13.0883L29.9182 11.3759L30.9496 11.1628L32.0942 12.5055L33.2463 13.8539L35.2733 13.439L35.9144 14.1933L32.839 14.8194ZM51.301 11.9681L50.8786 11.5079C51.0409 11.5419 51.2085 11.5419 51.3708 11.5079C51.4224 11.5047 51.4726 11.4899 51.5177 11.4646C51.5627 11.4392 51.6015 11.404 51.631 11.3616C51.6606 11.3191 51.6802 11.2706 51.6883 11.2195C51.6965 11.1684 51.693 11.1162 51.6781 11.0667C51.6771 11.0547 51.6771 11.0428 51.6781 11.0308C51.2161 10.7385 50.7542 10.4462 50.3016 10.1539L48.9402 9.28269C48.8479 9.21696 48.7333 9.19051 48.6215 9.20914L48.5405 9.22612L48.1087 8.76221L49.4286 8.48876L49.8528 8.95079L49.5926 9.00359C49.4795 9.02622 49.4757 9.09411 49.5926 9.17143L51.4669 10.3972L50.8692 8.91496C50.8459 8.86653 50.8063 8.82787 50.7573 8.80579C50.7083 8.78372 50.6531 8.77963 50.6014 8.79426L50.3525 8.84518C50.2111 8.69432 50.0716 8.54157 49.9302 8.38881L51.301 8.1116C51.4424 8.26246 51.5838 8.41522 51.7234 8.56797L51.6178 8.58871C51.5141 8.61134 51.4801 8.65849 51.5065 8.74523C51.6479 9.13182 51.7875 9.5203 51.9289 9.90689C52.0703 10.2935 52.2099 10.6857 52.3513 11.0742C52.5512 11.6173 52.2702 11.8908 51.8855 11.97C51.6925 12.0086 51.4937 12.008 51.301 11.9681ZM49.6907 10.7348L50.1036 11.2138L49.1835 11.4023L48.7139 10.8875C48.7488 10.9788 48.7598 11.0774 48.746 11.1742C48.6989 11.408 48.4726 11.6324 48.0408 11.7229C47.7642 11.7745 47.4793 11.7572 47.211 11.6727C46.9426 11.5882 46.6992 11.439 46.5021 11.2383C46.042 10.7272 46.4267 10.45 46.9886 10.2086C47.2847 10.0804 47.575 9.97855 47.6146 9.83146C47.6196 9.80214 47.617 9.77204 47.6071 9.744C47.5972 9.71596 47.5803 9.6909 47.5581 9.67117C47.411 9.51087 47.1432 9.41658 46.7567 9.49579C46.306 9.58819 46.1024 9.84278 46.24 10.0615C46.24 10.0615 46.24 10.0615 46.2495 10.0615L45.7158 10.1728L45.0219 9.40338L45.5989 9.28269L45.8478 9.55802C45.8591 9.2808 46.1401 9.09411 46.5002 9.02056C46.8079 8.96292 47.1251 8.98462 47.422 9.08361C47.719 9.18259 47.9858 9.3556 48.1973 9.58631L49.1816 10.6669C49.2208 10.7116 49.271 10.7452 49.3272 10.7644C49.3835 10.7836 49.4438 10.7877 49.5021 10.7763L49.6907 10.7348ZM48.0823 10.2086C48.0276 10.3255 47.8126 10.4161 47.6109 10.5047C47.2639 10.6593 46.9339 10.8064 47.1602 11.0572C47.2467 11.1404 47.3522 11.2011 47.4676 11.234C47.583 11.2669 47.7047 11.2709 47.8221 11.2458C47.9287 11.2327 48.0292 11.1885 48.111 11.1188C48.1928 11.0491 48.2523 10.9568 48.2821 10.8536C48.3161 10.6952 48.284 10.4915 48.0728 10.2162L48.0823 10.2086ZM43.1156 12.0944L43.34 12.0492C43.455 12.0247 43.4757 11.953 43.3928 11.8606L42.4688 10.8215L41.5486 9.78997C41.5105 9.7454 41.4614 9.71165 41.4061 9.69212C41.3508 9.67259 41.2914 9.66796 41.2337 9.67871L41.0094 9.72586C40.8736 9.57311 40.7397 9.42035 40.6039 9.26949L42.218 8.9357C43.0835 8.75655 44.0885 8.96587 44.6976 9.64099C45.3067 10.3161 44.9371 10.8215 44.0659 11.0007L43.5116 11.1157L44.0546 11.7248C44.0938 11.77 44.1444 11.8039 44.201 11.8231C44.2577 11.8424 44.3184 11.8462 44.377 11.8342L44.8315 11.7418L45.2482 12.2057L43.5285 12.5602L43.1156 12.0944ZM43.57 10.5311C44.1489 10.4123 44.3073 10.1539 43.9848 9.79375C43.6624 9.43356 43.1608 9.31286 42.5857 9.43167L42.0823 9.53539L43.0666 10.6367L43.57 10.5311Z" fill="#2C3137"/>
</svg>
