<svg width="24" height="19" viewBox="0 0 24 19" fill="none" xmlns="http://www.w3.org/2000/svg">
<path d="M5.24255 11.4038C4.38958 10.5508 3.03978 10.4981 2.12538 11.2456V4.89251C2.12538 3.92721 2.91086 3.14174 3.87615 3.14174H11.7017C11.6848 3.2535 11.6759 3.36832 11.6759 3.48577C11.6759 4.77125 12.7191 5.81453 14.0046 5.81453H17.5856C17.6044 6.38348 17.8305 6.94633 18.2638 7.38296L18.2651 7.38429C19.1181 8.23727 20.4679 8.28999 21.3823 7.54247V13.8956C21.3823 14.8609 20.5968 15.6464 19.6315 15.6464H11.806C11.8229 15.5346 11.8318 15.4198 11.8318 15.3023C11.8318 14.0168 10.7885 12.9736 9.50308 12.9736H5.92206C5.90327 12.4046 5.67723 11.8418 5.24389 11.4051L5.24255 11.4038ZM20.1518 0.992326L20.1537 0.994216L22.4044 3.24498C22.4676 3.30819 22.5042 3.39499 22.5042 3.48929C22.5042 3.58359 22.4676 3.6704 22.4044 3.7336L20.1537 5.98437C20.0173 6.12074 19.8008 6.11801 19.6705 5.98626C19.5327 5.84702 19.5373 5.62913 19.6667 5.50116L19.6686 5.49927L20.4774 4.6904L21.3296 3.83823L20.1245 3.83685L14.0052 3.82981H14.0046C13.813 3.82981 13.6606 3.67737 13.6606 3.48577C13.6606 3.29418 13.813 3.14174 14.0046 3.14174H20.1274H21.3382L20.4802 2.28742L19.6686 1.47931C19.6685 1.47928 19.6685 1.47925 19.6685 1.47921C19.5322 1.34284 19.535 1.12641 19.6667 0.996101C19.8059 0.858338 20.0238 0.862972 20.1518 0.992326ZM11.7538 13.2702C13.8939 13.2702 15.63 11.5341 15.63 9.39404C15.63 7.25398 13.8939 5.51789 11.7538 5.51789C9.61378 5.51789 7.87769 7.25398 7.87769 9.39404C7.87769 11.5341 9.61378 13.2702 11.7538 13.2702Z" stroke="#46505A"/>
</svg>
