<svg width="16" height="17" viewBox="0 0 16 17" fill="none" xmlns="http://www.w3.org/2000/svg">
<path d="M13.6361 3.32311C12.9026 2.58279 12.0291 1.99586 11.0664 1.59652C10.1038 1.19718 9.0713 0.993426 8.02913 0.99712C3.66214 0.99712 0.103156 4.55511 0.0991561 8.92309C0.0991561 10.3221 0.465155 11.6831 1.15615 12.8881L0.0351562 16.9971L4.23914 15.8951C5.40214 16.528 6.70507 16.8597 8.02913 16.8601H8.03313C12.4011 16.8601 15.9591 13.3021 15.9631 8.93009C15.9641 7.88814 15.7589 6.85629 15.3594 5.89398C14.9598 4.93168 14.3748 4.05794 13.6361 3.32311ZM8.02913 15.5181C6.84813 15.5185 5.68884 15.2007 4.67314 14.5981L4.43314 14.4541L1.93915 15.1081L2.60515 12.6751L2.44915 12.4241C1.78896 11.3744 1.4398 10.1591 1.44215 8.9191C1.44215 5.29311 4.39914 2.33512 8.03313 2.33512C8.89887 2.33356 9.75635 2.50339 10.5561 2.83481C11.3559 3.16622 12.0822 3.65267 12.6931 4.26611C13.3061 4.87716 13.7921 5.60353 14.123 6.40333C14.4539 7.20314 14.6232 8.06054 14.6211 8.92609C14.6171 12.5651 11.6601 15.5181 8.02913 15.5181ZM11.6441 10.5841C11.4471 10.4851 10.4741 10.0061 10.2911 9.93809C10.1091 9.87309 9.97613 9.83909 9.84613 10.0371C9.71313 10.2341 9.33313 10.6831 9.21913 10.8121C9.10513 10.9451 8.98713 10.9601 8.78913 10.8621C8.59213 10.7621 7.95313 10.5541 7.19713 9.87709C6.60714 9.35209 6.21214 8.7021 6.09414 8.5051C5.98014 8.3071 6.08314 8.2011 6.18214 8.1021C6.26914 8.0141 6.37914 7.8701 6.47814 7.7561C6.57814 7.6421 6.61114 7.5581 6.67614 7.4261C6.74114 7.2921 6.71014 7.1781 6.66114 7.0791C6.61114 6.9801 6.21614 6.0031 6.04914 5.60911C5.88914 5.22011 5.72614 5.27411 5.60414 5.26911C5.49014 5.26211 5.35714 5.26211 5.22414 5.26211C5.1237 5.2646 5.02487 5.28783 4.93384 5.33034C4.8428 5.37284 4.76154 5.4337 4.69514 5.50911C4.51314 5.7071 4.00414 6.1861 4.00414 7.1631C4.00414 8.1401 4.71414 9.07909 4.81414 9.21209C4.91214 9.34509 6.20814 11.3441 8.19713 12.2041C8.66713 12.4091 9.03713 12.5301 9.32613 12.6221C9.80113 12.7741 10.2301 12.7511 10.5721 12.7021C10.9521 12.6441 11.7431 12.2221 11.9101 11.7591C12.0741 11.2951 12.0741 10.8991 12.0241 10.8161C11.9751 10.7321 11.8421 10.6831 11.6441 10.5841Z" fill="#46505A"/>
</svg>
