<svg width="416" height="398" viewBox="0 0 416 398" fill="none" xmlns="http://www.w3.org/2000/svg">
<path d="M321.673 183.499C371.971 183.499 412.745 142.742 412.745 92.4658C412.745 42.1896 371.971 1.43262 321.673 1.43262C271.376 1.43262 230.602 42.1896 230.602 92.4658C230.602 142.742 271.376 183.499 321.673 183.499Z" fill="white"/>
<path d="M94.5405 191.203C144.838 191.203 185.612 150.446 185.612 100.17C185.612 49.8937 144.838 9.13672 94.5405 9.13672C44.243 9.13672 3.46875 49.8937 3.46875 100.17C3.46875 150.446 44.243 191.203 94.5405 191.203Z" fill="white"/>
<path d="M96.7436 395.095C147.041 395.095 187.815 354.338 187.815 304.062C187.815 253.786 147.041 213.029 96.7436 213.029C46.4461 213.029 5.67188 253.786 5.67188 304.062C5.67188 354.338 46.4461 395.095 96.7436 395.095Z" fill="white"/>
<path d="M317.486 385.743C367.783 385.743 408.558 344.986 408.558 294.71C408.558 244.434 367.783 203.677 317.486 203.677C267.188 203.677 226.414 244.434 226.414 294.71C226.414 344.986 267.188 385.743 317.486 385.743Z" fill="white"/>
<path d="M184.261 287.413C202.55 291.916 221.789 290.604 239.297 283.66C256.805 276.716 271.71 264.486 281.936 248.674C292.161 232.862 297.198 214.255 296.343 195.446C295.489 176.638 288.787 158.564 277.17 143.743C265.553 128.922 249.6 118.093 231.535 112.763C213.469 107.433 194.19 107.869 176.384 114.01C158.578 120.151 143.132 131.69 132.198 147.021C121.263 162.352 115.385 180.71 115.383 199.538C115.41 219.767 122.205 239.406 134.686 255.33C147.167 271.253 164.617 282.547 184.261 287.413Z" fill="#E1E55E"/>
<path d="M205.916 292.767C191.862 292.787 177.986 289.624 165.331 283.516C152.675 277.407 141.568 268.512 132.844 257.498C119.688 241.05 112.557 220.597 112.637 199.538C112.637 148.137 154.472 106.315 205.905 106.315C257.339 106.315 299.168 148.131 299.168 199.538C299.168 250.945 257.328 292.767 205.916 292.767ZM205.916 111.817C157.521 111.817 118.153 151.169 118.153 199.538C118.105 219.168 124.664 238.244 136.775 253.698C148.885 269.151 165.844 280.085 184.922 284.739C191.793 286.422 198.842 287.27 205.916 287.264C254.306 287.264 293.675 247.913 293.675 199.538C293.675 151.163 254.295 111.817 205.916 111.817Z" fill="#000001"/>
<path d="M322.155 186.452C312.35 186.462 302.605 184.926 293.278 181.901L294.979 176.669C303.757 179.513 312.928 180.958 322.155 180.949C370.545 180.949 409.913 141.598 409.913 93.2286C409.913 44.8591 370.545 5.50216 322.155 5.50216C273.765 5.50216 234.391 44.8536 234.391 93.2286C234.387 99.8397 235.126 106.43 236.593 112.877L231.232 114.104C229.67 107.255 228.883 100.253 228.887 93.2286C228.887 41.8164 270.726 0 322.155 0C373.583 0 415.417 41.8164 415.417 93.2286C415.417 144.641 373.578 186.452 322.155 186.452Z" fill="#000001"/>
<path d="M93.315 192.724C41.881 192.724 0.046875 150.902 0.046875 99.495C0.046875 48.0884 41.881 6.27197 93.315 6.27197C144.749 6.27197 186.578 48.0884 186.578 99.495C186.577 103.804 186.283 108.107 185.697 112.376L180.242 111.622C180.794 107.61 181.072 103.566 181.073 99.517C181.073 51.1476 141.705 11.7961 93.315 11.7961C44.925 11.7961 5.55137 51.1256 5.55137 99.495C5.55137 147.865 44.9195 187.221 93.315 187.221C101.305 187.226 109.259 186.144 116.957 184.003L118.437 189.301C110.258 191.578 101.806 192.729 93.315 192.724Z" fill="#000001"/>
<path d="M95.411 397.92C43.9881 397.92 2.14844 356.104 2.14844 304.691C2.14844 253.279 43.9826 211.468 95.411 211.468C102.921 211.465 110.404 212.365 117.699 214.148L116.389 219.49C109.522 217.813 102.479 216.967 95.411 216.97C47.021 216.97 7.65293 256.322 7.65293 304.691C7.65293 353.061 47.021 392.418 95.411 392.418C143.801 392.418 183.175 353.066 183.175 304.691C183.176 299.068 182.639 293.458 181.573 287.937L186.978 286.892C188.11 292.757 188.68 298.718 188.679 304.691C188.679 356.098 146.839 397.92 95.411 397.92Z" fill="#000001"/>
<path d="M317.108 387.044C265.679 387.044 223.84 345.228 223.84 293.815C223.84 291.229 223.95 288.61 224.159 286.046L229.664 286.498C229.465 288.913 229.361 291.378 229.361 293.815C229.361 342.19 268.729 381.542 317.124 381.542C365.52 381.542 404.872 342.19 404.872 293.815C404.872 245.44 365.503 206.094 317.108 206.094C310.352 206.093 303.619 206.864 297.039 208.394L295.789 203.03C302.778 201.403 309.932 200.585 317.108 200.592C368.536 200.592 410.371 242.409 410.371 293.815C410.371 345.222 368.542 387.044 317.108 387.044Z" fill="#000001"/>
<path d="M254.051 35.3784C250.748 34.3936 247.374 33.4967 244.005 32.7154L245.249 27.3563C248.728 28.1596 252.218 29.0895 255.63 30.1074L254.051 35.3784ZM161.669 34.278L160.227 28.9519C163.667 28.0166 167.179 27.1747 170.685 26.4539L171.786 31.8406C168.401 32.5393 164.999 33.3536 161.669 34.2615V34.278ZM233.811 30.6961C230.409 30.1459 226.946 29.6562 223.512 29.2986L224.062 23.8294C227.607 24.1981 231.185 24.6822 234.697 25.271L233.811 30.6961ZM182.024 30.0579L181.248 24.6107C184.771 24.11 188.36 23.7084 191.921 23.4278L192.356 28.9299C188.91 29.161 185.437 29.5737 182.024 30.0579ZM213.141 28.5228C209.701 28.3797 206.195 28.3357 202.743 28.4017L202.644 22.8995C206.206 22.8335 209.8 22.8995 213.378 23.0261L213.141 28.5228Z" fill="#000001"/>
<path d="M376.838 224.859L371.41 223.935C371.961 220.535 372.445 217.074 372.803 213.64L378.307 214.191C377.911 217.772 377.427 221.349 376.838 224.859ZM379.039 203.522L373.535 203.291C373.634 200.908 373.684 198.493 373.684 196.105C373.684 195.032 373.683 193.965 373.656 192.892L379.16 192.793C379.182 193.893 379.193 194.994 379.193 196.094C379.215 198.564 379.166 201.062 379.061 203.522H379.039ZM373.15 182.515C372.869 179.07 372.484 175.593 371.999 172.182L377.443 171.406C377.949 174.927 378.346 178.52 378.632 182.074L373.15 182.515Z" fill="#000001"/>
<path d="M207.568 369.318L207.474 363.816C210.926 363.761 214.421 363.59 217.856 363.32L218.296 368.823C214.724 369.087 211.129 369.257 207.568 369.318ZM196.829 369.158C193.256 368.993 189.673 368.713 186.117 368.327L186.723 362.858C190.141 363.232 193.625 363.502 197.082 363.662L196.829 369.158ZM228.969 367.612L228.188 362.165C231.601 361.67 235.046 361.065 238.415 360.355L239.549 365.736C236.059 366.468 232.498 367.1 228.964 367.612H228.969ZM175.482 366.809C171.965 366.193 168.431 365.455 164.969 364.608L166.284 359.287C169.631 360.102 173.055 360.811 176.457 361.406L175.482 366.809ZM249.991 363.188L248.51 357.89C250.266 357.4 252.039 356.872 253.773 356.327L255.424 361.571C253.63 362.137 251.797 362.682 249.986 363.188H249.991Z" fill="#000001"/>
<path d="M37.1586 235.782C37.076 235.441 36.9989 235.095 36.9219 234.748L42.2888 233.527C42.3603 233.862 42.4374 234.192 42.5199 234.528L37.1586 235.782ZM34.8632 224.228C34.3127 220.712 33.8173 217.13 33.4596 213.587L38.964 213.037C39.3108 216.47 39.7677 219.936 40.3237 223.342L34.8632 224.228ZM32.722 202.88C32.6339 200.64 32.5898 198.362 32.5898 196.117C32.5898 194.725 32.5898 193.421 32.5898 192.194L38.0943 192.227C38.0943 193.449 38.0943 194.736 38.0943 196.117C38.0943 198.318 38.1384 200.519 38.2209 202.665L32.722 202.88ZM38.4852 181.894L32.9807 181.438C33.2559 178.136 33.6962 174.835 34.4228 170.73L39.8613 171.666C39.1732 175.605 38.7494 178.753 38.4852 181.883V181.894Z" fill="#000001"/>
<path d="M120.373 256.172H70.4527C66.0994 256.172 62.5703 259.699 62.5703 264.051V346.347C62.5703 350.698 66.0994 354.226 70.4527 354.226H120.373C124.726 354.226 128.255 350.698 128.255 346.347V264.051C128.255 259.699 124.726 256.172 120.373 256.172Z" fill="#E1E55E"/>
<path d="M120.371 356.976H70.4511C67.6315 356.973 64.9282 355.852 62.9344 353.859C60.9407 351.866 59.8193 349.164 59.8164 346.346V264.05C59.8193 261.232 60.9407 258.53 62.9344 256.537C64.9282 254.544 67.6315 253.423 70.4511 253.42H120.371C123.19 253.424 125.893 254.546 127.886 256.538C129.88 258.531 131.002 261.232 131.006 264.05V346.346C131.002 349.164 129.88 351.865 127.886 353.858C125.893 355.85 123.19 356.972 120.371 356.976ZM70.4511 258.922C69.0909 258.924 67.7869 259.464 66.8251 260.426C65.8633 261.387 65.3224 262.691 65.3209 264.05V346.346C65.3224 347.705 65.8633 349.009 66.8251 349.97C67.7869 350.932 69.0909 351.472 70.4511 351.474H120.371C121.731 351.472 123.035 350.932 123.997 349.97C124.959 349.009 125.5 347.705 125.501 346.346V264.05C125.5 262.691 124.959 261.387 123.997 260.426C123.035 259.464 121.731 258.924 120.371 258.922H70.4511Z" fill="#000001"/>
<path d="M118.035 272.655H73.9492V298.526H118.035V272.655Z" fill="white"/>
<path d="M120.789 301.28H71.1992V269.918H120.789V301.28ZM76.7037 295.778H115.285V275.42H76.7037V295.778Z" fill="#000001"/>
<path d="M115.818 256.171H110.314V240.831H83.1217V256.171H77.6172V235.329H115.818V256.171Z" fill="#000001"/>
<path d="M118.909 374.056H73.2383V354.227H78.7428V368.554H113.405V354.122H118.909V374.056Z" fill="#000001"/>
<path d="M118.035 308.283H73.9492V313.785H118.035V308.283Z" fill="#000001"/>
<path d="M83.2199 317.64H73.7852V323.142H83.2199V317.64Z" fill="#000001"/>
<path d="M83.2199 326.992H73.7852V332.494H83.2199V326.992Z" fill="#000001"/>
<path d="M83.2199 336.349H73.7852V341.851H83.2199V336.349Z" fill="#000001"/>
<path d="M100.126 317.64H90.6914V323.142H100.126V317.64Z" fill="#000001"/>
<path d="M100.126 326.992H90.6914V332.494H100.126V326.992Z" fill="#000001"/>
<path d="M100.126 336.349H90.6914V341.851H100.126V336.349Z" fill="#000001"/>
<path d="M117.028 317.64H107.594V323.142H117.028V317.64Z" fill="#000001"/>
<path d="M117.028 326.992H107.594V332.494H117.028V326.992Z" fill="#000001"/>
<path d="M117.028 336.349H107.594V341.851H117.028V336.349Z" fill="#000001"/>
<path d="M199.857 215.182C198.644 215.221 197.435 215.017 196.301 214.584C195.167 214.15 194.13 213.495 193.252 212.657C191.568 210.979 190.681 208.607 190.692 205.812L190.753 193.675L195.751 193.702L195.702 205.471C195.702 208.772 197.094 210.423 199.879 210.423C200.444 210.465 201.011 210.383 201.541 210.182C202.071 209.982 202.55 209.668 202.945 209.262C203.677 208.448 204.046 207.182 204.046 205.493L204.096 193.708H209.094L209.044 205.84C209.044 208.635 208.131 210.995 206.435 212.662C205.555 213.495 204.517 214.142 203.383 214.567C202.248 214.991 201.04 215.183 199.83 215.133M177.399 197.746C176.742 197.706 176.084 197.818 175.476 198.071C174.868 198.325 174.327 198.714 173.893 199.21C173.04 200.222 172.616 201.708 172.605 203.611L172.555 214.561L167.645 214.533L167.684 203.611C167.684 201.702 167.287 200.228 166.478 199.21L166.429 199.149C166 198.651 165.462 198.257 164.857 197.998C164.252 197.74 163.596 197.624 162.939 197.658C162.365 197.635 161.793 197.741 161.266 197.968C160.738 198.194 160.268 198.536 159.889 198.968C159.036 200.065 158.606 201.432 158.678 202.819L158.64 214.583H153.719L153.768 202.638C153.768 199.743 154.644 197.317 156.284 195.622C157.111 194.787 158.103 194.134 159.196 193.703C160.29 193.271 161.461 193.073 162.636 193.119C165.608 193.119 167.717 193.999 169.17 195.826C169.526 196.281 169.834 196.771 170.089 197.289L170.183 197.46L170.276 197.284C170.746 196.334 171.415 195.495 172.236 194.824C173.628 193.724 175.461 193.174 177.74 193.174C178.916 193.14 180.087 193.35 181.177 193.791C182.268 194.232 183.255 194.895 184.076 195.738C184.23 195.895 184.375 196.06 184.511 196.233C185.908 198.118 186.617 200.425 186.52 202.77L186.47 214.715L181.516 214.687L181.571 203.017C181.638 199.793 180.041 197.801 177.405 197.796L177.399 197.746ZM257.214 214.94H252.26L252.359 194.357L257.313 194.384L257.214 214.94ZM254.853 189.972C254.349 189.974 253.851 189.864 253.396 189.649C252.94 189.434 252.539 189.119 252.222 188.728C251.751 188.143 251.524 187.398 251.589 186.65C251.653 185.902 252.004 185.208 252.568 184.712C253.201 184.143 254.025 183.837 254.875 183.853C255.367 183.846 255.855 183.949 256.303 184.154C256.751 184.36 257.147 184.663 257.462 185.042C257.885 185.577 258.11 186.241 258.1 186.923C258.099 187.344 258.012 187.76 257.845 188.147C257.677 188.533 257.434 188.881 257.128 189.171C256.823 189.46 256.461 189.685 256.067 189.831C255.672 189.977 255.251 190.042 254.831 190.021L254.853 189.972ZM240.183 214.869H235.593L227.088 194.247L232.438 194.274L237.943 208.717L243.552 194.324H248.941L240.183 214.869ZM228.811 214.819L213.619 214.797L213.729 193.675H218.738L218.666 210.412L228.811 210.451V214.819Z" fill="#000001"/>
<path d="M44.3449 81.7804L125.965 58.0166C127.157 57.6685 128.406 57.561 129.64 57.7001C130.873 57.8393 132.067 58.2224 133.151 58.8271C134.235 59.4319 135.188 60.2462 135.954 61.2227C136.72 62.1991 137.284 63.3182 137.613 64.5147L148.699 104.636C149.354 106.987 149.064 109.501 147.891 111.642C146.717 113.782 144.753 115.379 142.418 116.092L61.4474 140.94C60.256 141.306 59.0033 141.432 57.7628 141.308C56.5223 141.184 55.3191 140.814 54.2238 140.219C53.1286 139.624 52.1633 138.816 51.3846 137.843C50.606 136.869 50.0298 135.751 49.6898 134.552L37.9542 93.335C37.2737 90.9557 37.5642 88.4039 38.762 86.2383C39.9598 84.0727 41.9673 82.4697 44.3449 81.7804Z" fill="#E1E55E"/>
<path d="M58.6842 144.103C56.0514 144.094 53.4925 143.232 51.3928 141.644C49.2931 140.056 47.7663 137.829 47.0422 135.299L35.3066 94.0826C34.4401 91.0061 34.8207 87.7123 36.3661 84.9143C37.9114 82.1163 40.4972 80.0394 43.5634 79.1332L125.184 55.3694C126.726 54.9192 128.342 54.7801 129.938 54.9602C131.534 55.1403 133.078 55.636 134.481 56.4184C135.883 57.2008 137.116 58.2543 138.108 59.5176C139.099 60.7809 139.829 62.2287 140.255 63.7767L151.341 103.898C152.197 106.938 151.825 110.192 150.306 112.961C148.787 115.73 146.241 117.792 143.217 118.705L62.2511 143.558C61.096 143.917 59.8937 144.1 58.6842 144.103ZM45.1156 84.4263C43.4373 84.9123 42.0199 86.0432 41.174 87.5715C40.328 89.0998 40.1223 90.9009 40.6019 92.5805L52.343 133.786C52.5827 134.633 52.9895 135.424 53.5394 136.112C54.0894 136.8 54.7714 137.371 55.5454 137.791C56.3193 138.211 57.1696 138.473 58.0461 138.56C58.9226 138.647 59.8077 138.558 60.6493 138.298L141.609 113.45C143.257 112.947 144.644 111.821 145.473 110.311C146.301 108.801 146.507 107.027 146.046 105.367L134.96 65.2457C134.728 64.4008 134.33 63.6104 133.789 62.9208C133.248 62.2312 132.575 61.656 131.81 61.2289C131.045 60.8018 130.202 60.5313 129.331 60.4331C128.46 60.3349 127.578 60.411 126.736 60.6569L45.1156 84.4263Z" fill="#000001"/>
<path d="M137.735 65.0715L38.0664 93.7705L39.5901 99.0577L139.258 70.3586L137.735 65.0715Z" fill="#000001"/>
<path fill-rule="evenodd" clip-rule="evenodd" d="M134.788 101.577C135.064 101.856 135.251 102.212 135.324 102.598C135.398 102.984 135.355 103.383 135.201 103.745L135.294 103.772L136.946 104.284C137.028 104.007 137.083 103.724 137.111 103.436C137.173 102.884 137.12 102.325 136.954 101.794C136.788 101.264 136.514 100.774 136.147 100.355C135.643 99.7376 134.964 99.2869 134.199 99.0622L133.676 100.746L133.643 100.839C134.093 100.958 134.494 101.216 134.788 101.577ZM131.7 90.7485C131.768 90.9824 131.8 91.2256 131.793 91.4693L133.703 91.5408C133.724 90.949 133.619 90.3595 133.395 89.8113C133.171 89.263 132.834 88.7685 132.405 88.3603C131.975 87.9521 131.465 87.6396 130.906 87.4433C130.347 87.247 129.753 87.1714 129.162 87.2216L129.327 89.1308C129.849 89.0864 130.369 89.2231 130.801 89.5178C131.234 89.8125 131.551 90.2472 131.7 90.7485ZM130.709 95.4033C131.278 95.2365 131.805 94.9498 132.254 94.5626C132.703 94.1754 133.064 93.6966 133.313 93.1584L131.606 92.3441C131.472 92.6419 131.274 92.9072 131.028 93.1217C130.781 93.3362 130.491 93.4949 130.177 93.5868C129.864 93.6788 129.534 93.7019 129.21 93.6546C128.887 93.6072 128.578 93.4905 128.304 93.3125L127.302 94.9631C127.806 95.2737 128.371 95.4736 128.958 95.5495C129.545 95.6254 130.142 95.5756 130.709 95.4033ZM126.102 93.7912L127.671 92.6907C127.529 92.4892 127.422 92.2663 127.351 92.0305C127.203 91.5301 127.231 90.9938 127.432 90.5118C127.632 90.0299 127.992 89.6316 128.452 89.3839L127.555 87.6948C126.704 88.1482 126.035 88.8814 125.662 89.7706C125.289 90.6598 125.234 91.6504 125.507 92.5752C125.637 93.0105 125.838 93.4214 126.102 93.7912ZM131.16 104.641C130.83 104.298 130.632 103.849 130.601 103.374C130.569 102.899 130.707 102.428 130.99 102.044L133.637 105.219C133.218 105.414 132.745 105.463 132.294 105.358C131.843 105.254 131.44 105.001 131.149 104.641H131.16ZM129.795 105.786C130.519 106.605 131.534 107.111 132.624 107.195C133.714 107.279 134.794 106.936 135.636 106.237C135.795 106.102 135.946 105.957 136.087 105.802L130.781 99.5079L130.467 99.75C129.727 100.31 129.198 101.103 128.964 102C128.768 102.756 128.779 103.551 128.997 104.3C129.158 104.843 129.425 105.348 129.784 105.786H129.795ZM125.392 98.3635L125.898 100.069L133.604 97.7802C133.944 97.6872 134.249 97.4958 134.48 97.23C134.674 97.0007 134.796 96.7195 134.832 96.4212L134.991 94.9411L133.203 94.732L133.076 96.0691L125.392 98.3635Z" fill="#000001"/>
<path d="M59.346 105.423L53.7024 107.145C52.0567 107.648 51.13 109.388 51.6325 111.033L52.2144 112.938C52.7169 114.583 54.4584 115.509 56.104 115.007L61.7476 113.285C63.3933 112.782 64.32 111.042 63.8175 109.397L63.2355 107.492C62.733 105.847 60.9916 104.92 59.346 105.423Z" fill="white"/>
<path d="M55.1914 117.892C53.9365 117.887 52.7161 117.481 51.7081 116.734C50.7001 115.987 49.9573 114.937 49.5878 113.738L49.0044 111.829C48.5522 110.343 48.7071 108.738 49.4354 107.366C50.1636 105.993 51.4059 104.965 52.8905 104.506L58.5326 102.784C60.0217 102.331 61.6297 102.487 63.0035 103.219C64.3772 103.95 65.4043 105.197 65.8591 106.685L66.4426 108.588C66.8943 110.076 66.7379 111.682 66.0074 113.055C65.277 114.427 64.0321 115.455 62.5454 115.912L56.9033 117.634C56.3483 117.803 55.7716 117.89 55.1914 117.892ZM60.2611 108.033H60.151L54.5089 109.755C54.4635 109.769 54.4213 109.791 54.3848 109.821C54.3482 109.852 54.3181 109.889 54.2961 109.931C54.274 109.973 54.2606 110.019 54.2565 110.066C54.2524 110.113 54.2577 110.161 54.2722 110.206L54.8226 112.11C54.8506 112.201 54.9138 112.278 54.9983 112.324C55.0829 112.369 55.182 112.379 55.274 112.352L60.9216 110.63C60.9673 110.616 61.0098 110.593 61.0467 110.563C61.0836 110.533 61.114 110.496 61.1363 110.454C61.1554 110.41 61.1652 110.363 61.1652 110.316C61.1652 110.269 61.1554 110.222 61.1363 110.178L60.5858 108.275C60.5728 108.229 60.5505 108.186 60.5202 108.149C60.4899 108.112 60.4522 108.082 60.4097 108.06C60.3631 108.039 60.3121 108.03 60.2611 108.033Z" fill="#000001"/>
<path fill-rule="evenodd" clip-rule="evenodd" d="M134.788 101.577C135.064 101.856 135.251 102.212 135.324 102.598C135.398 102.984 135.355 103.383 135.201 103.745L135.294 103.772L136.946 104.284C137.028 104.007 137.083 103.724 137.111 103.436C137.173 102.884 137.12 102.325 136.954 101.794C136.788 101.264 136.514 100.774 136.147 100.355C135.643 99.7376 134.964 99.2869 134.199 99.0622L133.676 100.746L133.643 100.839C134.093 100.958 134.494 101.216 134.788 101.577ZM131.7 90.7485C131.768 90.9824 131.8 91.2256 131.793 91.4693L133.703 91.5408C133.724 90.949 133.619 90.3595 133.395 89.8113C133.171 89.263 132.834 88.7685 132.405 88.3603C131.975 87.9521 131.465 87.6396 130.906 87.4433C130.347 87.247 129.753 87.1714 129.162 87.2216L129.327 89.1308C129.849 89.0864 130.369 89.2231 130.801 89.5178C131.234 89.8125 131.551 90.2472 131.7 90.7485ZM130.709 95.4033C131.278 95.2365 131.805 94.9498 132.254 94.5626C132.703 94.1754 133.064 93.6966 133.313 93.1584L131.606 92.3441C131.472 92.6419 131.274 92.9072 131.028 93.1217C130.781 93.3362 130.491 93.4949 130.177 93.5868C129.864 93.6788 129.534 93.7019 129.21 93.6546C128.887 93.6072 128.578 93.4905 128.304 93.3125L127.302 94.9631C127.806 95.2737 128.371 95.4736 128.958 95.5495C129.545 95.6254 130.142 95.5756 130.709 95.4033ZM126.102 93.7912L127.671 92.6907C127.529 92.4892 127.422 92.2663 127.351 92.0305C127.203 91.5301 127.231 90.9938 127.432 90.5118C127.632 90.0299 127.992 89.6316 128.452 89.3839L127.555 87.6948C126.704 88.1482 126.035 88.8814 125.662 89.7706C125.289 90.6598 125.234 91.6504 125.507 92.5752C125.637 93.0105 125.838 93.4214 126.102 93.7912ZM131.16 104.641C130.83 104.298 130.632 103.849 130.601 103.374C130.569 102.899 130.707 102.428 130.99 102.044L133.637 105.219C133.218 105.414 132.745 105.463 132.294 105.358C131.843 105.254 131.44 105.001 131.149 104.641H131.16ZM129.795 105.786C130.519 106.605 131.534 107.111 132.624 107.195C133.714 107.279 134.794 106.936 135.636 106.237C135.795 106.102 135.946 105.957 136.087 105.802L130.781 99.5079L130.467 99.75C129.727 100.31 129.198 101.103 128.964 102C128.768 102.756 128.779 103.551 128.997 104.3C129.158 104.843 129.425 105.348 129.784 105.786H129.795ZM125.392 98.3635L125.898 100.069L133.604 97.7802C133.944 97.6872 134.249 97.4958 134.48 97.23C134.674 97.0007 134.796 96.7195 134.832 96.4212L134.991 94.9411L133.203 94.732L133.076 96.0691L125.392 98.3635Z" fill="#000001"/>
<path d="M323.335 160.607C315.628 160.607 307.685 158.329 298.834 153.718C285.899 146.983 264.75 129.415 263.055 110.955C262.268 102.465 265.725 95.1364 273.332 89.1721C283.311 81.3425 300.711 82.5695 312.017 87.648C323.026 92.6329 337.729 100.661 337.729 112.743H333.05C333.05 102.289 315.766 94.4761 310.085 91.9121C299.896 87.3123 284.445 86.41 276.216 92.853C269.947 97.7719 267.084 103.72 267.712 110.526C269.17 126.251 288.078 142.824 301.014 149.564C314.962 156.832 325.927 157.817 337.663 152.865C343.008 150.615 365.637 133.189 367.91 128.391C368.4 127.368 368.857 126.009 368.262 125.365C366.539 123.506 358.778 123.99 354.242 125.712C349.839 127.363 343.784 132.579 340.481 136.634C340.175 137.03 339.802 137.371 339.38 137.641L336.843 133.712C336.808 133.734 336.777 133.76 336.749 133.789L336.837 133.679C340.575 129.096 347.169 123.384 352.558 121.343C356.18 119.962 367.448 117.607 371.681 122.191C372.985 123.605 374.125 126.174 372.121 130.4C369.093 136.788 345.275 154.725 339.457 157.179C334.37 159.398 328.885 160.564 323.335 160.607Z" fill="#231F20"/>
<path d="M370.723 125.859L367.161 122.821C371.703 117.495 372.726 114.139 372.22 112.885C371.807 111.845 369.793 111.481 368.631 111.36C365.053 110.986 362.103 113.281 356.301 118.101C355.261 118.964 354.149 119.889 352.949 120.852L350.004 117.209C351.187 116.257 352.283 115.344 353.307 114.491C359.174 109.616 363.407 106.089 369.115 106.695C373.046 107.107 375.55 108.604 376.563 111.135C377.989 114.695 376.002 119.647 370.723 125.859Z" fill="#231F20"/>
<path d="M310.321 143.916C306.985 143.916 303.584 142.843 300.149 140.279C300.055 140.213 291.138 133.517 291.226 130.265L295.905 130.386C295.916 130.147 295.874 129.908 295.784 129.687C296.186 130.49 299.086 133.643 302.94 136.532C312.578 143.723 321.963 135.497 334.172 123.084C335.719 121.511 337.183 120.025 338.642 118.606C339.192 118.083 340.876 116.317 340.188 115.475C337.91 112.724 325.326 112.465 316.161 118.776L316.035 118.859C314.994 119.475 313.255 120.509 311.383 119.723C309.512 118.936 308.868 116.972 308.516 115.513C307.982 113.781 307.274 112.107 306.402 110.518C302.549 103.524 296.279 99.9589 287.824 99.9259V95.249C300.633 95.2985 307.211 102.347 310.481 108.251C311.522 110.145 312.365 112.142 312.996 114.209L313.04 114.358C313.093 114.596 313.159 114.832 313.238 115.062C313.354 115.002 313.464 114.93 313.558 114.875C324.192 107.623 339.588 107.392 343.788 112.52C344.834 113.791 346.739 117.263 341.889 121.973C340.464 123.354 339.021 124.823 337.486 126.375C329.614 134.402 320.257 143.916 310.321 143.916Z" fill="#231F20"/>
<path d="M331.445 131.397L329.849 130.473C326.733 128.668 325.941 126.242 325.825 124.525C325.572 120.806 328.275 117.317 330.664 115.463C333.603 113.18 335.315 114.142 337.423 115.755L337.577 115.876C338.64 116.684 339.593 117.628 340.412 118.682L341.513 120.107L340.412 121.532C338.475 124.033 336.397 126.421 334.186 128.685L333.328 129.598L333.097 129.747C332.957 129.839 332.828 129.946 332.711 130.066L331.445 131.397ZM333.537 119.155C331.671 120.602 330.394 122.731 330.493 124.211C330.517 124.621 330.663 125.013 330.911 125.339C332.7 123.43 334.032 122.038 335.491 120.222C335.249 120.002 334.996 119.788 334.737 119.59L334.577 119.469C334.335 119.287 334.06 119.078 333.845 118.918C333.763 118.973 333.663 119.05 333.537 119.149V119.155Z" fill="#231F20"/>
<path d="M344.243 116.215L340.566 113.342C341.205 112.534 341.805 111.747 342.388 110.998C347.508 104.396 351.196 99.576 360.861 97.6172C364.164 96.946 366.636 97.4797 368.155 99.2019C369.872 101.15 370.032 104.258 368.623 108.445L364.186 106.954C365.183 103.989 364.924 102.613 364.649 102.3C364.461 102.09 363.647 101.832 361.792 102.206C353.849 103.813 350.931 107.593 346.093 113.854C345.504 114.597 344.893 115.389 344.243 116.215Z" fill="#231F20"/>
<path d="M362.095 140.947L360.499 140.022C357.279 138.157 355.886 135.153 356.679 131.769C357.13 130.027 357.984 128.416 359.172 127.065C359.2 127.032 362.062 123.725 363.025 122.96C364.126 122.124 365.326 121.381 366.879 121.661C367.979 121.86 368.767 122.476 369.785 123.257L369.945 123.378C370.467 123.778 370.963 124.209 371.431 124.671C371.914 125.144 372.365 125.65 372.779 126.184L373.88 127.609L372.779 129.034C371.579 130.602 368.844 133.854 367.759 135.087C366.868 136.083 365.937 137.078 364.853 138.228L363.972 139.169L363.741 139.318C363.666 139.365 363.595 139.416 363.526 139.472C363.46 139.527 363.405 139.582 363.35 139.637L362.095 140.947ZM365.948 126.641C365.486 127.021 363.488 129.232 362.767 130.08C362.06 130.869 361.544 131.811 361.258 132.831C361.151 133.174 361.125 133.537 361.181 133.892C361.237 134.247 361.375 134.585 361.583 134.878C362.602 133.777 363.482 132.853 364.335 131.934C365.068 131.114 366.658 129.232 367.913 127.703C367.671 127.483 367.418 127.274 367.165 127.076L367.005 126.955C366.768 126.773 366.493 126.564 366.279 126.404C366.146 126.481 366.047 126.547 365.926 126.652L365.948 126.641Z" fill="#231F20"/>
<path d="M369.701 127.097L367.912 125.721C367.176 125.073 366.223 124.726 365.242 124.747L362.809 124.868V122.436C362.782 119.685 363.976 116.544 366.007 113.98C368.479 110.86 370.411 111.399 373.124 112.582L373.328 112.676C374.088 113.013 374.824 113.402 375.53 113.842L377.077 114.805L376.526 116.544C375.717 119.086 373.906 122.046 371.154 125.347L369.701 127.097ZM367.78 120.423C368.123 120.53 368.46 120.659 368.787 120.808C369.737 119.583 370.579 118.278 371.302 116.907L371.214 116.868C370.813 116.692 370.367 116.494 370.075 116.39C369.976 116.494 369.838 116.648 369.646 116.885C368.813 117.939 368.181 119.136 367.78 120.417V120.423Z" fill="#231F20"/>
<path d="M346.311 35.4171C349.883 36.6394 353.183 38.5456 356.026 41.0293L362.241 37.4144C362.493 37.2662 362.772 37.1698 363.061 37.1306C363.351 37.0913 363.646 37.1102 363.928 37.186C364.21 37.2618 364.475 37.393 364.706 37.5721C364.937 37.7511 365.13 37.9743 365.274 38.2287L372.43 50.6416C372.578 50.8934 372.674 51.1723 372.714 51.4619C372.753 51.7514 372.734 52.0459 372.658 52.3281C372.582 52.6103 372.451 52.8746 372.272 53.1055C372.093 53.3365 371.869 53.5295 371.615 53.6732L365.384 57.2717C366.103 60.9767 366.103 64.7855 365.384 68.4906L371.615 72.089C371.869 72.2327 372.093 72.4257 372.272 72.6567C372.451 72.8876 372.582 73.1519 372.658 73.4341C372.734 73.7163 372.753 74.0108 372.714 74.3004C372.674 74.5899 372.578 74.8688 372.43 75.1207L365.274 87.5335C365.131 87.7893 364.939 88.0141 364.709 88.1948C364.478 88.3754 364.214 88.5084 363.932 88.5857C363.649 88.6631 363.354 88.6834 363.064 88.6453C362.774 88.6073 362.494 88.5118 362.241 88.3644L356.004 84.7604C353.163 87.2477 349.862 89.156 346.289 90.3781V97.5695C346.289 98.1532 346.057 98.713 345.644 99.1257C345.231 99.5385 344.671 99.7703 344.087 99.7703H329.764C329.18 99.7703 328.62 99.5385 328.207 99.1257C327.794 98.713 327.563 98.1532 327.563 97.5695V90.3781C323.989 89.156 320.689 87.2477 317.847 84.7604L311.599 88.3644C311.348 88.5125 311.069 88.6089 310.779 88.6482C310.489 88.6874 310.195 88.6685 309.912 88.5927C309.63 88.5169 309.366 88.3857 309.134 88.2067C308.903 88.0276 308.71 87.8044 308.567 87.55L301.411 75.1372C301.262 74.8856 301.165 74.607 301.126 74.3177C301.086 74.0284 301.105 73.734 301.18 73.4519C301.255 73.1697 301.386 72.9053 301.564 72.6742C301.743 72.443 301.966 72.2497 302.22 72.1055L308.456 68.5071C307.73 64.8027 307.73 60.9925 308.456 57.2882L302.22 53.6898C301.966 53.5455 301.743 53.3522 301.564 53.121C301.386 52.8899 301.255 52.6255 301.18 52.3434C301.105 52.0612 301.086 51.7669 301.126 51.4775C301.165 51.1882 301.262 50.9096 301.411 50.6581L308.567 38.2452C308.709 37.9894 308.901 37.7646 309.131 37.5839C309.362 37.4033 309.626 37.2704 309.908 37.193C310.191 37.1156 310.486 37.0954 310.776 37.1334C311.067 37.1714 311.347 37.2669 311.599 37.4144L317.836 41.0183C320.68 38.5309 323.982 36.6226 327.557 35.4006V28.2258C327.557 27.6421 327.789 27.0823 328.202 26.6695C328.615 26.2568 329.175 26.0249 329.759 26.0249H344.07C344.652 26.032 345.208 26.2662 345.619 26.6774C346.031 27.0886 346.265 27.6443 346.272 28.2258L346.311 35.4171Z" fill="#E1E55E"/>
<path d="M344.079 102.716H329.767C328.401 102.715 327.091 102.172 326.125 101.206C325.16 100.241 324.616 98.9319 324.615 97.5665V92.3999C322.091 91.3469 319.714 89.9729 317.542 88.3118L313.061 90.8979C311.876 91.5783 310.47 91.7618 309.151 91.4081C307.831 91.0543 306.706 90.1922 306.021 89.0106L298.865 76.5977C298.184 75.4137 298 74.0083 298.354 72.6892C298.708 71.3702 299.571 70.2451 300.753 69.5605L305.234 66.9745C304.889 64.2655 304.889 61.5237 305.234 58.8148L300.753 56.2288C299.569 55.5441 298.706 54.418 298.352 53.0977C297.998 51.7773 298.182 50.3705 298.865 49.186L306.021 36.7731C306.707 35.5924 307.832 34.7315 309.152 34.3788C310.471 34.0261 311.877 34.2104 313.061 34.8914L317.542 37.4774C319.712 35.8144 322.09 34.4402 324.615 33.3893V28.2228C324.616 26.8574 325.16 25.5483 326.125 24.5828C327.091 23.6173 328.401 23.0742 329.767 23.0728H344.079C345.446 23.0728 346.757 23.6152 347.724 24.5808C348.691 25.5465 349.235 26.8564 349.236 28.2228V33.3893C351.759 34.4415 354.135 35.8156 356.304 37.4774L360.79 34.8914C361.974 34.2104 363.38 34.0261 364.699 34.3788C366.019 34.7315 367.145 35.5924 367.831 36.7731L374.986 49.186C375.668 50.3694 375.852 51.7743 375.499 53.0933C375.146 54.4122 374.285 55.5377 373.104 56.2233L368.618 58.8148C368.963 61.5237 368.963 64.2655 368.618 66.9745L373.098 69.5605C374.28 70.2451 375.143 71.3702 375.497 72.6892C375.851 74.0083 375.667 75.4137 374.986 76.5977L367.831 89.0106C367.146 90.1937 366.019 91.0569 364.698 91.4107C363.377 91.7645 361.97 91.5801 360.785 90.8979L356.304 88.3118C354.133 89.9716 351.758 91.3456 349.236 92.3999V97.5665C349.235 98.9328 348.691 100.243 347.724 101.208C346.757 102.174 345.446 102.716 344.079 102.716ZM330.466 96.8347H343.38V88.2788L345.361 87.6021C348.577 86.4983 351.545 84.7748 354.097 82.5291L355.677 81.148L363.113 85.4397L369.57 74.2758L362.139 69.9897L362.541 67.9374C362.866 66.2734 363.03 64.5819 363.031 62.8864C363.03 61.193 362.867 59.5036 362.546 57.8409L362.139 55.7886L369.57 51.4969L363.113 40.322L355.677 44.6192L354.097 43.2382C351.543 41.0003 348.575 39.2843 345.361 38.1872L343.38 37.5104V28.9326H330.466V37.5104L328.479 38.1872C325.265 39.2834 322.297 40.9995 319.743 43.2382L318.164 44.6192L310.727 40.3275L304.27 51.5024L311.701 55.7941L311.299 57.8464C310.646 61.1802 310.646 64.609 311.299 67.9429L311.701 69.9952L304.27 74.2758L310.727 85.4562L318.164 81.1645L319.743 82.5456C322.297 84.7834 325.265 86.4994 328.479 87.5966L330.466 88.2733V96.8347Z" fill="#231F20"/>
<path fill-rule="evenodd" clip-rule="evenodd" d="M336.921 54.4287C338.596 54.4287 340.234 54.9255 341.628 55.8562C343.021 56.7869 344.107 58.1097 344.748 59.6573C345.389 61.2049 345.556 62.9078 345.229 64.5505C344.902 66.1933 344.094 67.7021 342.909 68.8861C341.724 70.0702 340.214 70.8762 338.57 71.2023C336.926 71.5284 335.223 71.36 333.675 70.7182C332.127 70.0764 330.804 68.9902 329.874 67.597C328.944 66.2037 328.448 64.566 328.449 62.891C328.451 60.6462 329.344 58.4938 330.932 56.9069C332.521 55.3201 334.675 54.4287 336.921 54.4287Z" fill="white"/>
<path d="M336.919 74.278C334.663 74.2791 332.457 73.6114 330.581 72.3593C328.704 71.1073 327.242 69.3272 326.378 67.2441C325.513 65.161 325.287 62.8686 325.726 60.6568C326.166 58.4449 327.252 56.4131 328.846 54.8181C330.441 53.2232 332.473 52.1369 334.686 51.6965C336.899 51.2562 339.192 51.4816 341.276 52.3443C343.361 53.2071 345.142 54.6683 346.396 56.5432C347.649 58.4181 348.318 60.6225 348.318 62.8775C348.316 65.8993 347.114 68.7965 344.977 70.9337C342.84 73.0709 339.942 74.2736 336.919 74.278ZM336.919 57.3479C335.821 57.3413 334.745 57.6612 333.83 58.2669C332.914 58.8726 332.199 59.7368 331.776 60.7495C331.353 61.7623 331.24 62.8779 331.453 63.9547C331.666 65.0315 332.194 66.0208 332.97 66.7969C333.746 67.573 334.736 68.1008 335.813 68.3133C336.891 68.5259 338.007 68.4135 339.02 67.9904C340.033 67.5674 340.898 66.8528 341.504 65.9376C342.11 65.0223 342.43 63.9476 342.423 62.85C342.409 61.3967 341.824 60.0073 340.794 58.9812C339.764 57.9551 338.373 57.3744 336.919 57.3644V57.3479Z" fill="#231F20"/>
<path d="M320.564 354.172C317.571 354.146 314.594 353.743 311.702 352.973C292.062 347.911 270.93 327.316 265.563 308.004C262.558 297.192 264.584 287.8 271.42 280.839C274.095 278.171 275.708 276.553 277.904 276.306C280.53 276.003 282.347 277.819 284.449 279.921L291.126 286.595C291.71 287.145 292.227 287.635 292.612 288.003C293.752 289.054 294.814 290.044 294.858 291.728C294.902 293.412 293.829 294.479 292.491 295.783C292.233 296.031 291.941 296.333 291.627 296.636L286.508 301.748C285.856 302.407 285.49 303.296 285.49 304.224C285.49 305.151 285.856 306.04 286.508 306.7L311.944 332.125C312.604 332.777 313.494 333.142 314.421 333.142C315.349 333.142 316.239 332.777 316.898 332.125L321.302 327.723C321.94 327.085 322.436 326.54 322.838 326.1C323.883 324.939 324.88 323.844 326.586 323.806C328.293 323.767 329.41 324.846 330.885 326.337L331.491 326.942L337.474 332.879C337.98 333.385 338.448 333.831 338.872 334.238C340.826 336.12 342.368 337.6 342.39 339.922C342.39 342.409 340.601 344.411 337.832 347.179C333.269 351.806 327.395 354.172 320.564 354.172ZM275.598 284.955C270.242 290.413 268.773 297.637 271.194 306.413C275.989 323.652 295.59 342.728 313.144 347.272C319.084 348.802 327.456 349.308 333.626 343.025C334.619 342.101 335.537 341.1 336.373 340.032C336.026 339.624 335.382 339.003 334.799 338.441C334.353 338.012 333.858 337.539 333.318 337L326.768 330.447C326.416 330.837 325.981 331.3 325.463 331.817L321.06 336.219C320.191 337.089 319.158 337.779 318.022 338.25C316.886 338.721 315.668 338.963 314.438 338.963C313.208 338.963 311.99 338.721 310.853 338.25C309.717 337.779 308.685 337.089 307.816 336.219L282.385 310.799C281.515 309.93 280.824 308.898 280.353 307.762C279.882 306.627 279.639 305.409 279.639 304.18C279.639 302.95 279.882 301.732 280.353 300.597C280.824 299.461 281.515 298.429 282.385 297.56L287.499 292.449L288.148 291.805C287.813 291.497 287.433 291.134 287.003 290.705L280.326 284.031C279.859 283.568 278.989 282.699 278.444 282.27C277.449 283.115 276.499 284.011 275.598 284.955Z" fill="#231F20"/>
<path d="M309.896 245.946C313.349 242.594 317.48 240.02 322.011 238.399C326.543 236.777 331.37 236.145 336.166 236.546C340.963 236.947 345.618 238.371 349.817 240.722C354.016 243.073 357.663 246.296 360.511 250.175C363.358 254.053 365.341 258.497 366.326 263.207C367.31 267.916 367.273 272.782 366.217 277.476C365.162 282.17 363.111 286.583 360.205 290.418C357.299 294.253 353.604 297.421 349.369 299.708C349.022 307.337 345.78 314.548 340.303 319.873C340.495 315.658 339.792 311.45 338.239 307.526C337.703 306.174 337.072 304.861 336.351 303.598C329.426 304.209 322.481 302.663 316.47 299.172C310.459 295.681 305.676 290.416 302.777 284.1C299.879 277.784 299.007 270.726 300.282 263.894C301.556 257.063 304.915 250.793 309.896 245.946Z" fill="#E1E55E"/>
<path d="M337.029 327.139L337.37 319.744C337.553 315.942 336.919 312.145 335.51 308.608C335.246 307.942 334.959 307.282 334.646 306.638C327.261 306.891 319.972 304.904 313.738 300.94C307.504 296.975 302.616 291.217 299.717 284.423C296.818 277.63 296.043 270.118 297.495 262.876C298.946 255.634 302.556 249 307.85 243.847C311.554 240.253 315.976 237.482 320.827 235.716C325.678 233.951 330.848 233.231 335.997 233.603C341.146 233.976 346.159 235.433 350.704 237.879C355.25 240.325 359.227 243.704 362.374 247.795C365.521 251.886 367.767 256.596 368.965 261.615C370.162 266.635 370.284 271.851 369.322 276.921C368.36 281.991 366.336 286.801 363.383 291.034C360.43 295.267 356.615 298.828 352.188 301.483C351.462 309.272 347.971 316.544 342.346 321.984L337.029 327.139ZM337.959 300.514L338.895 302.165C340.69 305.296 341.962 308.699 342.66 312.239C344.951 308.4 346.25 304.051 346.442 299.584L346.513 297.934L347.977 297.147C350.488 295.79 352.798 294.092 354.841 292.101C357.815 289.306 360.202 285.946 361.862 282.218C363.523 278.49 364.424 274.469 364.513 270.389C364.602 266.31 363.878 262.253 362.381 258.456C360.885 254.66 358.648 251.199 355.799 248.276C352.951 245.353 349.548 243.026 345.79 241.432C342.032 239.837 337.995 239.007 333.912 238.989C329.83 238.971 325.785 239.766 322.013 241.328C318.242 242.889 314.819 245.186 311.945 248.084C307.398 252.509 304.333 258.232 303.169 264.468C302.006 270.704 302.802 277.147 305.447 282.913C308.093 288.678 312.459 293.485 317.946 296.671C323.433 299.858 329.772 301.27 336.093 300.712L337.959 300.514Z" fill="#231F20"/>
<path d="M350.034 256.642H319.633V261.319H350.034V256.642Z" fill="#231F20"/>
<path d="M350.034 266.946H319.633V271.623H350.034V266.946Z" fill="#231F20"/>
<path d="M350.034 277.255H319.633V281.932H350.034V277.255Z" fill="#231F20"/>
</svg>
